Caprasimo-Regular.ufo
<glyph name="exclam" format="2">
  <advance width="631"/>
  <unicode hex="0021"/>
  <outline>
    <contour>
      <point x="317" y="1494" type="curve" smooth="yes"/>
      <point x="162" y="1494"/>
      <point x="51" y="1429"/>
      <point x="51" y="1261" type="curve" smooth="yes"/>
      <point x="51" y="1214"/>
      <point x="59" y="1167"/>
      <point x="71" y="1122" type="curve" smooth="yes"/>
      <point x="197" y="636" type="line" smooth="yes"/>
      <point x="213" y="573"/>
      <point x="244" y="521"/>
      <point x="317" y="521" type="curve" smooth="yes"/>
      <point x="390" y="521"/>
      <point x="421" y="572"/>
      <point x="437" y="636" type="curve" smooth="yes"/>
      <point x="562" y="1122" type="line" smooth="yes"/>
      <point x="574" y="1168"/>
      <point x="582" y="1214"/>
      <point x="582" y="1261" type="curve" smooth="yes"/>
      <point x="582" y="1428"/>
      <point x="472" y="1494"/>
    </contour>
    <contour>
      <point x="310" y="-31" type="curve" smooth="yes"/>
      <point x="448" y="-31"/>
      <point x="545" y="94"/>
      <point x="545" y="226" type="curve" smooth="yes"/>
      <point x="545" y="359"/>
      <point x="449" y="482"/>
      <point x="310" y="482" type="curve" smooth="yes"/>
      <point x="172" y="482"/>
      <point x="78" y="357"/>
      <point x="78" y="226" type="curve" smooth="yes"/>
      <point x="78" y="96"/>
      <point x="172" y="-31"/>
    </contour>
  </outline>
</glyph>
<glyph name="quotedbl" format="2">
  <advance width="885"/>
  <unicode hex="0022"/>
  <outline>
    <contour>
      <point x="660" y="748" type="curve" smooth="yes"/>
      <point x="732" y="748"/>
      <point x="767" y="796"/>
      <point x="780" y="861" type="curve" smooth="yes"/>
      <point x="855" y="1227" type="line" smooth="yes"/>
      <point x="863" y="1266"/>
      <point x="868" y="1305"/>
      <point x="868" y="1344" type="curve" smooth="yes"/>
      <point x="868" y="1471"/>
      <point x="811" y="1559"/>
      <point x="675" y="1559" type="curve" smooth="yes"/>
      <point x="534" y="1559"/>
      <point x="475" y="1471"/>
      <point x="475" y="1338" type="curve" smooth="yes"/>
      <point x="475" y="1300"/>
      <point x="479" y="1262"/>
      <point x="486" y="1225" type="curve" smooth="yes"/>
      <point x="553" y="864" type="line" smooth="yes"/>
      <point x="563" y="810"/>
      <point x="597" y="748"/>
    </contour>
    <contour>
      <point x="205" y="748" type="curve" smooth="yes"/>
      <point x="276" y="748"/>
      <point x="311" y="796"/>
      <point x="324" y="861" type="curve" smooth="yes"/>
      <point x="400" y="1227" type="line" smooth="yes"/>
      <point x="408" y="1265"/>
      <point x="413" y="1305"/>
      <point x="413" y="1344" type="curve" smooth="yes"/>
      <point x="413" y="1472"/>
      <point x="355" y="1559"/>
      <point x="219" y="1559" type="curve" smooth="yes"/>
      <point x="78" y="1559"/>
      <point x="19" y="1472"/>
      <point x="19" y="1339" type="curve" smooth="yes"/>
      <point x="19" y="1301"/>
      <point x="24" y="1263"/>
      <point x="31" y="1225" type="curve" smooth="yes"/>
      <point x="98" y="864" type="line" smooth="yes"/>
      <point x="108" y="809"/>
      <point x="142" y="748"/>
    </contour>
  </outline>
</glyph>
<glyph name="numbersign" format="2">
  <advance width="1229"/>
  <unicode hex="0023"/>
  <outline>
    <contour>
      <point x="648" y="1303" type="curve" smooth="yes"/>
      <point x="648" y="1362"/>
      <point x="603" y="1398"/>
      <point x="546" y="1398" type="curve" smooth="yes"/>
      <point x="458" y="1398"/>
      <point x="447" y="1258"/>
      <point x="438" y="1195" type="curve" smooth="yes"/>
      <point x="426" y="1108" type="line" smooth="yes"/>
      <point x="393" y="868"/>
      <point x="350" y="627"/>
      <point x="272" y="397" type="curve" smooth="yes"/>
      <point x="243" y="311"/>
      <point x="187" y="167"/>
      <point x="187" y="79" type="curve" smooth="yes"/>
      <point x="187" y="20"/>
      <point x="233" y="-15"/>
      <point x="289" y="-15" type="curve" smooth="yes"/>
      <point x="371" y="-15"/>
      <point x="385" y="105"/>
      <point x="395" y="165" type="curve" smooth="yes"/>
      <point x="440" y="439"/>
      <point x="494" y="712"/>
      <point x="571" y="979" type="curve" smooth="yes"/>
      <point x="597" y="1069"/>
      <point x="648" y="1213"/>
    </contour>
    <contour>
      <point x="645" y="1010" type="curve" smooth="yes"/>
      <point x="484" y="1010"/>
      <point x="327" y="1049"/>
      <point x="166" y="1049" type="curve" smooth="yes"/>
      <point x="99" y="1049"/>
      <point x="63" y="1017"/>
      <point x="63" y="949" type="curve" smooth="yes"/>
      <point x="63" y="885"/>
      <point x="100" y="851"/>
      <point x="163" y="851" type="curve" smooth="yes"/>
      <point x="348" y="851"/>
      <point x="532" y="861"/>
      <point x="717" y="861" type="curve" smooth="yes"/>
      <point x="852" y="861"/>
      <point x="987" y="842"/>
      <point x="1122" y="842" type="curve" smooth="yes"/>
      <point x="1184" y="842"/>
      <point x="1219" y="884"/>
      <point x="1219" y="944" type="curve" smooth="yes"/>
      <point x="1219" y="1004"/>
      <point x="1183" y="1041"/>
      <point x="1123" y="1041" type="curve" smooth="yes"/>
      <point x="1069" y="1041"/>
      <point x="1015" y="1036"/>
      <point x="962" y="1030" type="curve" smooth="yes"/>
      <point x="857" y="1018"/>
      <point x="751" y="1010"/>
    </contour>
    <contour>
      <point x="682" y="412" type="curve" smooth="yes"/>
      <point x="812" y="412"/>
      <point x="941" y="392"/>
      <point x="1071" y="392" type="curve" smooth="yes"/>
      <point x="1133" y="392"/>
      <point x="1169" y="434"/>
      <point x="1169" y="494" type="curve" smooth="yes"/>
      <point x="1169" y="555"/>
      <point x="1133" y="591"/>
      <point x="1072" y="591" type="curve" smooth="yes"/>
      <point x="1018" y="591"/>
      <point x="964" y="586"/>
      <point x="911" y="580" type="curve" smooth="yes"/>
      <point x="806" y="568"/>
      <point x="700" y="560"/>
      <point x="594" y="560" type="curve" smooth="yes"/>
      <point x="433" y="560"/>
      <point x="276" y="599"/>
      <point x="115" y="599" type="curve" smooth="yes"/>
      <point x="48" y="599"/>
      <point x="12" y="567"/>
      <point x="12" y="499" type="curve" smooth="yes"/>
      <point x="12" y="436"/>
      <point x="49" y="401"/>
      <point x="112" y="402" type="curve" smooth="yes"/>
      <point x="302" y="405"/>
      <point x="492" y="412"/>
    </contour>
    <contour>
      <point x="1019" y="1304" type="curve" smooth="yes"/>
      <point x="1019" y="1363"/>
      <point x="973" y="1398"/>
      <point x="917" y="1398" type="curve" smooth="yes"/>
      <point x="825" y="1398"/>
      <point x="816" y="1237"/>
      <point x="807" y="1172" type="curve" smooth="yes"/>
      <point x="773" y="913"/>
      <point x="729" y="653"/>
      <point x="646" y="404" type="curve" smooth="yes"/>
      <point x="617" y="317"/>
      <point x="558" y="166"/>
      <point x="558" y="79" type="curve" smooth="yes"/>
      <point x="558" y="21"/>
      <point x="605" y="-15"/>
      <point x="660" y="-15" type="curve" smooth="yes"/>
      <point x="738" y="-15"/>
      <point x="752" y="86"/>
      <point x="763" y="144" type="curve" smooth="yes"/>
      <point x="866" y="675" type="line" smooth="yes"/>
      <point x="888" y="790"/>
      <point x="920" y="903"/>
      <point x="953" y="1015" type="curve" smooth="yes"/>
      <point x="977" y="1098"/>
      <point x="1019" y="1219"/>
    </contour>
  </outline>
</glyph>
<glyph name="dollar" format="2">
  <advance width="1229"/>
  <unicode hex="0024"/>
  <outline>
    <contour>
      <point x="650" y="1378" type="curve" smooth="yes"/>
      <point x="386" y="1378"/>
      <point x="102" y="1246"/>
      <point x="102" y="945" type="curve" smooth="yes"/>
      <point x="102" y="466"/>
      <point x="758" y="539"/>
      <point x="758" y="247" type="curve" smooth="yes"/>
      <point x="758" y="155"/>
      <point x="680" y="112"/>
      <point x="597" y="112" type="curve" smooth="yes"/>
      <point x="518" y="112"/>
      <point x="464" y="171"/>
      <point x="464" y="249" type="curve" smooth="yes"/>
      <point x="464" y="315" type="line" smooth="yes"/>
      <point x="464" y="424"/>
      <point x="388" y="511"/>
      <point x="276" y="511" type="curve" smooth="yes"/>
      <point x="163" y="511"/>
      <point x="93" y="435"/>
      <point x="93" y="324" type="curve" smooth="yes"/>
      <point x="93" y="71"/>
      <point x="388" y="4"/>
      <point x="590" y="4" type="curve" smooth="yes"/>
      <point x="872" y="4"/>
      <point x="1159" y="108"/>
      <point x="1159" y="437" type="curve" smooth="yes"/>
      <point x="1159" y="873"/>
      <point x="507" y="802"/>
      <point x="507" y="1107" type="curve" smooth="yes"/>
      <point x="507" y="1179"/>
      <point x="542" y="1279"/>
      <point x="629" y="1279" type="curve" smooth="yes"/>
      <point x="711" y="1279"/>
      <point x="755" y="1210"/>
      <point x="755" y="1134" type="curve" smooth="yes"/>
      <point x="755" y="1033" type="line" smooth="yes"/>
      <point x="755" y="919"/>
      <point x="857" y="847"/>
      <point x="964" y="847" type="curve" smooth="yes"/>
      <point x="1067" y="847"/>
      <point x="1127" y="955"/>
      <point x="1127" y="1047" type="curve" smooth="yes"/>
      <point x="1127" y="1308"/>
      <point x="864" y="1378"/>
    </contour>
    <contour>
      <point x="682" y="788" type="line"/>
      <point x="682" y="923"/>
      <point x="682" y="1059"/>
      <point x="703" y="1193" type="curve" smooth="yes"/>
      <point x="717" y="1284"/>
      <point x="737" y="1375"/>
      <point x="737" y="1468" type="curve" smooth="yes"/>
      <point x="737" y="1531"/>
      <point x="711" y="1597"/>
      <point x="638" y="1597" type="curve" smooth="yes"/>
      <point x="565" y="1597"/>
      <point x="540" y="1536"/>
      <point x="540" y="1472" type="curve" smooth="yes"/>
      <point x="540" y="1376"/>
      <point x="561" y="1282"/>
      <point x="575" y="1187" type="curve" smooth="yes"/>
      <point x="595" y="1055"/>
      <point x="594" y="921"/>
      <point x="594" y="788" type="curve"/>
    </contour>
    <contour>
      <point x="564" y="633" type="line"/>
      <point x="564" y="497"/>
      <point x="563" y="360"/>
      <point x="542" y="225" type="curve" smooth="yes"/>
      <point x="528" y="133"/>
      <point x="507" y="42"/>
      <point x="507" y="-51" type="curve" smooth="yes"/>
      <point x="507" y="-114"/>
      <point x="535" y="-178"/>
      <point x="607" y="-178" type="curve" smooth="yes"/>
      <point x="678" y="-178"/>
      <point x="705" y="-117"/>
      <point x="705" y="-55" type="curve" smooth="yes"/>
      <point x="705" y="42"/>
      <point x="685" y="137"/>
      <point x="670" y="232" type="curve" smooth="yes"/>
      <point x="649" y="365"/>
      <point x="651" y="499"/>
      <point x="651" y="633" type="curve"/>
    </contour>
  </outline>
</glyph>
<glyph name="percent" format="2">
  <advance width="1660"/>
  <unicode hex="0025"/>
  <outline>
    <contour>
      <point x="419" y="1425" type="curve" smooth="yes"/>
      <point x="174" y="1425"/>
      <point x="29" y="1251"/>
      <point x="29" y="1013" type="curve" smooth="yes"/>
      <point x="29" y="770"/>
      <point x="147" y="604"/>
      <point x="403" y="604" type="curve" smooth="yes"/>
      <point x="660" y="604"/>
      <point x="777" y="806"/>
      <point x="777" y="1041" type="curve" smooth="yes"/>
      <point x="777" y="1259"/>
      <point x="646" y="1425"/>
    </contour>
    <contour>
      <point x="407" y="737" type="curve" smooth="yes"/>
      <point x="373" y="737"/>
      <point x="373" y="920"/>
      <point x="373" y="951" type="curve" smooth="yes"/>
      <point x="373" y="1107" type="line" smooth="yes"/>
      <point x="373" y="1134"/>
      <point x="373" y="1293"/>
      <point x="404" y="1293" type="curve" smooth="yes"/>
      <point x="434" y="1293"/>
      <point x="434" y="1114"/>
      <point x="434" y="1084" type="curve" smooth="yes"/>
      <point x="434" y="913" type="line" smooth="yes"/>
      <point x="434" y="888"/>
      <point x="433" y="737"/>
    </contour>
    <contour>
      <point x="1213" y="1264" type="curve" smooth="yes"/>
      <point x="1213" y="1346"/>
      <point x="1126" y="1422"/>
      <point x="1046" y="1422" type="curve" smooth="yes"/>
      <point x="872" y="1422"/>
      <point x="850" y="1049"/>
      <point x="841" y="926" type="curve" smooth="yes"/>
      <point x="839" y="898"/>
      <point x="836" y="870"/>
      <point x="829" y="842" type="curve" smooth="yes"/>
      <point x="826" y="831"/>
      <point x="823" y="821"/>
      <point x="823" y="809" type="curve" smooth="yes"/>
      <point x="823" y="774"/>
      <point x="856" y="741"/>
      <point x="891" y="741" type="curve" smooth="yes"/>
      <point x="923" y="741"/>
      <point x="946" y="783"/>
      <point x="961" y="806" type="curve" smooth="yes"/>
      <point x="1021" y="897"/>
      <point x="1213" y="1163"/>
    </contour>
    <contour>
      <point x="455" y="126" type="curve" smooth="yes"/>
      <point x="455" y="43"/>
      <point x="540" y="-31"/>
      <point x="621" y="-31" type="curve" smooth="yes"/>
      <point x="787" y="-31"/>
      <point x="801" y="287"/>
      <point x="814" y="404" type="curve" smooth="yes"/>
      <point x="824" y="491" type="line" smooth="yes"/>
      <point x="828" y="523"/>
      <point x="843" y="553"/>
      <point x="843" y="586" type="curve" smooth="yes"/>
      <point x="843" y="620"/>
      <point x="812" y="651"/>
      <point x="778" y="651" type="curve" smooth="yes"/>
      <point x="727" y="651"/>
      <point x="663" y="515"/>
      <point x="638" y="475" type="curve" smooth="yes"/>
      <point x="581" y="386"/>
      <point x="455" y="232"/>
    </contour>
    <contour>
      <point x="1274" y="776" type="curve" smooth="yes"/>
      <point x="1028" y="776"/>
      <point x="884" y="601"/>
      <point x="884" y="363" type="curve" smooth="yes"/>
      <point x="884" y="121"/>
      <point x="1002" y="-45"/>
      <point x="1257" y="-45" type="curve" smooth="yes"/>
      <point x="1514" y="-45"/>
      <point x="1631" y="156"/>
      <point x="1631" y="391" type="curve" smooth="yes"/>
      <point x="1631" y="609"/>
      <point x="1501" y="776"/>
    </contour>
    <contour>
      <point x="1262" y="88" type="curve" smooth="yes"/>
      <point x="1228" y="88"/>
      <point x="1228" y="262"/>
      <point x="1228" y="291" type="curve" smooth="yes"/>
      <point x="1228" y="467" type="line" smooth="yes"/>
      <point x="1228" y="493"/>
      <point x="1228" y="644"/>
      <point x="1258" y="644" type="curve" smooth="yes"/>
      <point x="1288" y="644"/>
      <point x="1288" y="465"/>
      <point x="1288" y="435" type="curve" smooth="yes"/>
      <point x="1288" y="261" type="line" smooth="yes"/>
      <point x="1288" y="236"/>
      <point x="1288" y="88"/>
    </contour>
  </outline>
</glyph>
<glyph name="ampersand" format="2">
  <advance width="1780"/>
  <unicode hex="0026"/>
  <outline>
    <contour>
      <point x="837" y="1242" type="curve" smooth="yes"/>
      <point x="750" y="1242"/>
      <point x="705" y="1170"/>
      <point x="705" y="1090" type="curve" smooth="yes"/>
      <point x="705" y="956"/>
      <point x="752" y="894"/>
      <point x="867" y="831" type="curve" smooth="yes"/>
      <point x="1010" y="753"/>
      <point x="1094" y="714"/>
      <point x="1211" y="594" type="curve" smooth="yes"/>
      <point x="1541" y="254" type="line" smooth="yes"/>
      <point x="1605" y="188"/>
      <point x="1740" y="236"/>
      <point x="1740" y="107" type="curve" smooth="yes"/>
      <point x="1740" y="32"/>
      <point x="1694" y="-1"/>
      <point x="1623" y="-1" type="curve" smooth="yes"/>
      <point x="1294" y="-1" type="line" smooth="yes"/>
      <point x="1213" y="-1"/>
      <point x="1155" y="22"/>
      <point x="1099" y="80" type="curve" smooth="yes"/>
      <point x="673" y="516" type="line" smooth="yes"/>
      <point x="597" y="594"/>
      <point x="568" y="615"/>
      <point x="471" y="665" type="curve" smooth="yes"/>
      <point x="332" y="736"/>
      <point x="242" y="803"/>
      <point x="242" y="973" type="curve" smooth="yes"/>
      <point x="242" y="1311"/>
      <point x="628" y="1411"/>
      <point x="901" y="1411" type="curve" smooth="yes"/>
      <point x="1115" y="1411"/>
      <point x="1415" y="1322"/>
      <point x="1415" y="1061" type="curve" smooth="yes"/>
      <point x="1415" y="791"/>
      <point x="1033" y="756"/>
      <point x="834" y="750" type="curve"/>
      <point x="828" y="814" type="line"/>
      <point x="941" y="842"/>
      <point x="960" y="975"/>
      <point x="960" y="1073" type="curve" smooth="yes"/>
      <point x="960" y="1145"/>
      <point x="923" y="1242"/>
    </contour>
    <contour>
      <point x="648" y="586" type="line"/>
      <point x="571" y="577"/>
      <point x="526" y="467"/>
      <point x="526" y="399" type="curve" smooth="yes" name=".hr01"/>
      <point x="526" y="281"/>
      <point x="611" y="210"/>
      <point x="725" y="210" type="curve" smooth="yes"/>
      <point x="815" y="210"/>
      <point x="901" y="227"/>
      <point x="965" y="296" type="curve"/>
      <point x="1113" y="204" type="line"/>
      <point x="971" y="36"/>
      <point x="798" y="-30"/>
      <point x="581" y="-30" type="curve" smooth="yes"/>
      <point x="372" y="-30"/>
      <point x="60" y="50"/>
      <point x="60" y="310" type="curve" smooth="yes"/>
      <point x="60" y="600"/>
      <point x="415" y="691"/>
      <point x="648" y="691" type="curve"/>
    </contour>
    <contour>
      <point x="1293" y="448" type="line"/>
      <point x="1331" y="455" type="line"/>
      <point x="1351" y="479"/>
      <point x="1372" y="507"/>
      <point x="1372" y="540" type="curve" smooth="yes"/>
      <point x="1372" y="570"/>
      <point x="1365" y="574"/>
      <point x="1341" y="589" type="curve" smooth="yes"/>
      <point x="1305" y="612"/>
      <point x="1275" y="650"/>
      <point x="1275" y="695" type="curve" smooth="yes"/>
      <point x="1275" y="756"/>
      <point x="1328" y="806"/>
      <point x="1388" y="806" type="curve" smooth="yes"/>
      <point x="1632" y="806" type="line" smooth="yes"/>
      <point x="1700" y="806"/>
      <point x="1747" y="784"/>
      <point x="1747" y="709" type="curve" smooth="yes"/>
      <point x="1747" y="643"/>
      <point x="1728" y="613"/>
      <point x="1674" y="577" type="curve" smooth="yes"/>
      <point x="1582" y="516"/>
      <point x="1475" y="410"/>
      <point x="1396" y="340" type="curve"/>
    </contour>
  </outline>
</glyph>
<glyph name="quotesingle" format="2">
  <advance width="467"/>
  <unicode hex="0027"/>
  <outline>
    <contour>
      <point x="224" y="748" type="curve" smooth="yes"/>
      <point x="295" y="748"/>
      <point x="331" y="796"/>
      <point x="344" y="861" type="curve" smooth="yes"/>
      <point x="420" y="1227" type="line" smooth="yes"/>
      <point x="428" y="1265"/>
      <point x="433" y="1304"/>
      <point x="433" y="1343" type="curve" smooth="yes"/>
      <point x="433" y="1471"/>
      <point x="374" y="1559"/>
      <point x="238" y="1559" type="curve" smooth="yes"/>
      <point x="97" y="1559"/>
      <point x="37" y="1471"/>
      <point x="37" y="1338" type="curve" smooth="yes"/>
      <point x="37" y="1300"/>
      <point x="41" y="1262"/>
      <point x="48" y="1225" type="curve" smooth="yes"/>
      <point x="115" y="864" type="line" smooth="yes"/>
      <point x="125" y="808"/>
      <point x="160" y="748"/>
    </contour>
  </outline>
</glyph>
<glyph name="parenleft" format="2">
  <advance width="1021"/>
  <unicode hex="0028"/>
  <outline>
    <contour>
      <point x="174" y="602" type="curve" smooth="yes"/>
      <point x="174" y="256"/>
      <point x="367" y="-38"/>
      <point x="678" y="-185" type="curve" smooth="yes"/>
      <point x="732" y="-210"/>
      <point x="876" y="-260"/>
      <point x="933" y="-260" type="curve" smooth="yes"/>
      <point x="970" y="-260"/>
      <point x="1021" y="-239"/>
      <point x="1021" y="-195" type="curve" smooth="yes"/>
      <point x="1021" y="-148"/>
      <point x="964" y="-109"/>
      <point x="931" y="-83" type="curve" smooth="yes"/>
      <point x="717" y="87"/>
      <point x="554" y="320"/>
      <point x="554" y="602" type="curve" smooth="yes"/>
      <point x="554" y="809"/>
      <point x="665" y="1053"/>
      <point x="817" y="1193" type="curve" smooth="yes"/>
      <point x="853" y="1226"/>
      <point x="892" y="1255"/>
      <point x="931" y="1285" type="curve" smooth="yes"/>
      <point x="964" y="1311"/>
      <point x="1021" y="1352"/>
      <point x="1021" y="1399" type="curve" smooth="yes"/>
      <point x="1021" y="1443"/>
      <point x="970" y="1463"/>
      <point x="933" y="1463" type="curve" smooth="yes"/>
      <point x="869" y="1463"/>
      <point x="737" y="1417"/>
      <point x="678" y="1389" type="curve" smooth="yes"/>
      <point x="366" y="1239"/>
      <point x="174" y="950"/>
    </contour>
  </outline>
</glyph>
<glyph name="parenright" format="2">
  <advance width="1021"/>
  <unicode hex="0029"/>
  <outline>
    <contour>
      <point x="846" y="602" type="curve" smooth="yes"/>
      <point x="846" y="946"/>
      <point x="654" y="1242"/>
      <point x="343" y="1389" type="curve" smooth="yes"/>
      <point x="283" y="1417"/>
      <point x="153" y="1463"/>
      <point x="88" y="1463" type="curve" smooth="yes"/>
      <point x="51" y="1463"/>
      <point x="0" y="1444"/>
      <point x="0" y="1399" type="curve" smooth="yes"/>
      <point x="0" y="1352"/>
      <point x="46" y="1321"/>
      <point x="78" y="1295" type="curve" smooth="yes"/>
      <point x="300" y="1119"/>
      <point x="467" y="897"/>
      <point x="467" y="602" type="curve" smooth="yes"/>
      <point x="467" y="308"/>
      <point x="299" y="85"/>
      <point x="79" y="-92" type="curve" smooth="yes"/>
      <point x="48" y="-117"/>
      <point x="0" y="-150"/>
      <point x="0" y="-195" type="curve" smooth="yes"/>
      <point x="0" y="-240"/>
      <point x="51" y="-260"/>
      <point x="88" y="-260" type="curve" smooth="yes"/>
      <point x="145" y="-260"/>
      <point x="288" y="-210"/>
      <point x="343" y="-185" type="curve" smooth="yes"/>
      <point x="655" y="-41"/>
      <point x="846" y="258"/>
    </contour>
  </outline>
</glyph>
<glyph name="asterisk" format="2">
  <advance width="1229"/>
  <unicode hex="002A"/>
  <outline>
    <contour>
      <point x="644" y="918" type="line"/>
      <point x="644" y="1115"/>
      <point x="836" y="1218"/>
      <point x="836" y="1369" type="curve" smooth="yes"/>
      <point x="836" y="1484"/>
      <point x="713" y="1511"/>
      <point x="621" y="1511" type="curve" smooth="yes"/>
      <point x="526" y="1511"/>
      <point x="405" y="1488"/>
      <point x="405" y="1369" type="curve" smooth="yes"/>
      <point x="405" y="1218"/>
      <point x="597" y="1115"/>
      <point x="597" y="918" type="curve"/>
    </contour>
    <contour>
      <point x="628" y="941" type="line"/>
      <point x="456" y="1000"/>
      <point x="379" y="1272"/>
      <point x="236" y="1272" type="curve" smooth="yes"/>
      <point x="117" y="1272"/>
      <point x="56" y="1078"/>
      <point x="56" y="982" type="curve" smooth="yes"/>
      <point x="56" y="892"/>
      <point x="108" y="839"/>
      <point x="198" y="839" type="curve" smooth="yes"/>
      <point x="311" y="839"/>
      <point x="411" y="909"/>
      <point x="524" y="909" type="curve" smooth="yes"/>
      <point x="554" y="909"/>
      <point x="584" y="904"/>
      <point x="613" y="894" type="curve"/>
    </contour>
    <contour>
      <point x="602" y="933" type="line"/>
      <point x="545" y="854"/>
      <point x="457" y="819"/>
      <point x="369" y="787" type="curve" smooth="yes"/>
      <point x="287" y="757"/>
      <point x="168" y="717"/>
      <point x="168" y="611" type="curve" smooth="yes"/>
      <point x="168" y="503"/>
      <point x="340" y="371"/>
      <point x="442" y="371" type="curve" smooth="yes"/>
      <point x="573" y="371"/>
      <point x="579" y="534"/>
      <point x="580" y="629" type="curve" smooth="yes"/>
      <point x="581" y="725"/>
      <point x="582" y="821"/>
      <point x="640" y="903" type="curve"/>
    </contour>
    <contour>
      <point x="602" y="903" type="line"/>
      <point x="659" y="821"/>
      <point x="661" y="726"/>
      <point x="662" y="630" type="curve" smooth="yes"/>
      <point x="663" y="534"/>
      <point x="667" y="373"/>
      <point x="799" y="373" type="curve" smooth="yes"/>
      <point x="899" y="373"/>
      <point x="1075" y="501"/>
      <point x="1075" y="608" type="curve" smooth="yes"/>
      <point x="1075" y="785"/>
      <point x="754" y="774"/>
      <point x="640" y="933" type="curve"/>
    </contour>
    <contour>
      <point x="628" y="894" type="line"/>
      <point x="657" y="904"/>
      <point x="687" y="909"/>
      <point x="718" y="909" type="curve" smooth="yes"/>
      <point x="831" y="909"/>
      <point x="931" y="839"/>
      <point x="1044" y="839" type="curve" smooth="yes"/>
      <point x="1136" y="839"/>
      <point x="1185" y="896"/>
      <point x="1185" y="986" type="curve" smooth="yes"/>
      <point x="1185" y="1079"/>
      <point x="1125" y="1273"/>
      <point x="1009" y="1273" type="curve" smooth="yes"/>
      <point x="858" y="1273"/>
      <point x="783" y="1000"/>
      <point x="613" y="942" type="curve"/>
    </contour>
  </outline>
</glyph>
<glyph name="plus" format="2">
  <advance width="1229"/>
  <unicode hex="002B"/>
  <outline>
    <contour>
      <point x="116" y="674" type="curve" smooth="yes"/>
      <point x="116" y="616"/>
      <point x="147" y="553"/>
      <point x="213" y="553" type="curve" smooth="yes"/>
      <point x="1017" y="553" type="line" smooth="yes"/>
      <point x="1083" y="553"/>
      <point x="1113" y="616"/>
      <point x="1113" y="674" type="curve" smooth="yes"/>
      <point x="1113" y="733"/>
      <point x="1085" y="801"/>
      <point x="1017" y="801" type="curve" smooth="yes"/>
      <point x="214" y="801" type="line" smooth="yes"/>
      <point x="146" y="801"/>
      <point x="116" y="733"/>
    </contour>
    <contour>
      <point x="618" y="162" type="curve" smooth="yes"/>
      <point x="676" y="162"/>
      <point x="737" y="195"/>
      <point x="737" y="260" type="curve" smooth="yes"/>
      <point x="737" y="1094" type="line" smooth="yes"/>
      <point x="737" y="1160"/>
      <point x="677" y="1192"/>
      <point x="618" y="1192" type="curve" smooth="yes"/>
      <point x="559" y="1192"/>
      <point x="493" y="1162"/>
      <point x="493" y="1094" type="curve" smooth="yes"/>
      <point x="493" y="262" type="line" smooth="yes"/>
      <point x="493" y="194"/>
      <point x="558" y="162"/>
    </contour>
  </outline>
</glyph>
<glyph name="comma" format="2">
  <advance width="614"/>
  <unicode hex="002C"/>
  <outline>
    <contour>
      <point x="338" y="-58" type="curve" smooth="yes"/>
      <point x="338" y="-175"/>
      <point x="230" y="-216"/>
      <point x="137" y="-249" type="curve" smooth="yes"/>
      <point x="88" y="-266"/>
      <point x="55" y="-277"/>
      <point x="55" y="-337" type="curve" smooth="yes"/>
      <point x="55" y="-397"/>
      <point x="92" y="-433"/>
      <point x="152" y="-433" type="curve" smooth="yes"/>
      <point x="166" y="-433"/>
      <point x="180" y="-431"/>
      <point x="194" y="-428" type="curve" smooth="yes"/>
      <point x="476" y="-364"/>
      <point x="560" y="-162"/>
      <point x="560" y="106" type="curve" smooth="yes"/>
      <point x="560" y="265"/>
      <point x="493" y="431"/>
      <point x="309" y="431" type="curve" smooth="yes"/>
      <point x="173" y="431"/>
      <point x="82" y="320"/>
      <point x="82" y="189" type="curve" smooth="yes"/>
      <point x="82" y="44"/>
      <point x="155" y="-25"/>
      <point x="299" y="-25" type="curve" smooth="yes"/>
      <point x="323" y="-25"/>
      <point x="338" y="-30"/>
    </contour>
  </outline>
</glyph>
<glyph name="hyphen" format="2">
  <advance width="582"/>
  <unicode hex="002D"/>
  <outline>
    <contour>
      <point x="144" y="688" type="line" smooth="yes"/>
      <point x="81" y="688"/>
      <point x="47" y="637"/>
      <point x="36" y="581" type="curve"/>
      <point x="35" y="575"/>
      <point x="34" y="569"/>
      <point x="30" y="563" type="curve"/>
      <point x="30" y="561" type="line"/>
      <point x="17" y="527"/>
      <point x="3" y="493"/>
      <point x="3" y="456" type="curve" smooth="yes"/>
      <point x="3" y="413"/>
      <point x="34" y="397"/>
      <point x="73" y="397" type="curve" smooth="yes"/>
      <point x="440" y="397" type="line" smooth="yes"/>
      <point x="523" y="397"/>
      <point x="540" y="477"/>
      <point x="559" y="541" type="curve" smooth="yes"/>
      <point x="567" y="570"/>
      <point x="580" y="599"/>
      <point x="580" y="629" type="curve" smooth="yes"/>
      <point x="580" y="672"/>
      <point x="549" y="688"/>
      <point x="510" y="688" type="curve" smooth="yes"/>
    </contour>
  </outline>
</glyph>
<glyph name="period" format="2">
  <advance width="614"/>
  <unicode hex="002E"/>
  <outline>
    <contour>
      <point x="306" y="-31" type="curve" smooth="yes"/>
      <point x="444" y="-31"/>
      <point x="541" y="94"/>
      <point x="541" y="226" type="curve" smooth="yes"/>
      <point x="541" y="359"/>
      <point x="445" y="482"/>
      <point x="306" y="482" type="curve" smooth="yes"/>
      <point x="168" y="482"/>
      <point x="74" y="357"/>
      <point x="74" y="226" type="curve" smooth="yes"/>
      <point x="74" y="96"/>
      <point x="168" y="-31"/>
    </contour>
  </outline>
</glyph>
<glyph name="slash" format="2">
  <advance width="966"/>
  <unicode hex="002F"/>
  <outline>
    <contour>
      <point x="961" y="1390" type="curve" smooth="yes"/>
      <point x="961" y="1464"/>
      <point x="888" y="1519"/>
      <point x="818" y="1519" type="curve" smooth="yes"/>
      <point x="757" y="1519"/>
      <point x="726" y="1474"/>
      <point x="701" y="1425" type="curve" smooth="yes"/>
      <point x="662" y="1348"/>
      <point x="636" y="1265"/>
      <point x="609" y="1183" type="curve" smooth="yes"/>
      <point x="548" y="1002"/>
      <point x="486" y="821"/>
      <point x="411" y="645" type="curve" smooth="yes"/>
      <point x="324" y="442"/>
      <point x="213" y="250"/>
      <point x="106" y="56" type="curve" smooth="yes"/>
      <point x="72" y="-5"/>
      <point x="8" y="-117"/>
      <point x="8" y="-185" type="curve" smooth="yes"/>
      <point x="8" y="-260"/>
      <point x="82" y="-314"/>
      <point x="152" y="-314" type="curve" smooth="yes"/>
      <point x="244" y="-314"/>
      <point x="277" y="-202"/>
      <point x="307" y="-134" type="curve"/>
      <point x="307" y="-132" type="line"/>
      <point x="310" y="-126" type="line"/>
      <point x="310" y="-125" type="line"/>
      <point x="592" y="559" type="line"/>
      <point x="642" y="680"/>
      <point x="695" y="799"/>
      <point x="753" y="916" type="curve" smooth="yes"/>
      <point x="795" y="1002"/>
      <point x="839" y="1087"/>
      <point x="880" y="1174" type="curve"/>
      <point x="910" y="1223"/>
      <point x="961" y="1334"/>
    </contour>
  </outline>
</glyph>
<glyph name="zero" format="2">
  <advance width="1229"/>
  <unicode hex="0030"/>
  <outline>
    <contour>
      <point x="634" y="1306" type="curve" smooth="yes"/>
      <point x="246" y="1306"/>
      <point x="70" y="981"/>
      <point x="70" y="631" type="curve" smooth="yes"/>
      <point x="70" y="270"/>
      <point x="212" y="-40"/>
      <point x="618" y="-40" type="curve" smooth="yes"/>
      <point x="1019" y="-40"/>
      <point x="1160" y="335"/>
      <point x="1160" y="678" type="curve" smooth="yes"/>
      <point x="1160" y="1004"/>
      <point x="995" y="1306"/>
    </contour>
    <contour>
      <point x="623" y="145" type="curve" smooth="yes"/>
      <point x="598" y="145"/>
      <point x="586" y="160"/>
      <point x="573" y="179" type="curve" smooth="yes"/>
      <point x="527" y="244"/>
      <point x="526" y="536"/>
      <point x="526" y="626" type="curve" smooth="yes"/>
      <point x="526" y="697"/>
      <point x="528" y="768"/>
      <point x="529" y="839" type="curve" smooth="yes"/>
      <point x="530" y="896"/>
      <point x="533" y="1120"/>
      <point x="615" y="1120" type="curve" smooth="yes"/>
      <point x="710" y="1120"/>
      <point x="707" y="726"/>
      <point x="707" y="654" type="curve" smooth="yes"/>
      <point x="707" y="580"/>
      <point x="715" y="145"/>
    </contour>
  </outline>
</glyph>
<glyph name="one" format="2">
  <advance width="1229"/>
  <unicode hex="0031"/>
  <outline>
    <contour>
      <point x="71" y="1048" type="curve" smooth="yes"/>
      <point x="71" y="1124"/>
      <point x="125" y="1174"/>
      <point x="200" y="1174" type="curve" smooth="yes"/>
      <point x="239" y="1174"/>
      <point x="278" y="1173"/>
      <point x="317" y="1173" type="curve" smooth="yes"/>
      <point x="434" y="1173"/>
      <point x="494" y="1187"/>
      <point x="601" y="1233" type="curve" smooth="yes"/>
      <point x="649" y="1254"/>
      <point x="699" y="1273"/>
      <point x="752" y="1273" type="curve" smooth="yes"/>
      <point x="827" y="1273"/>
      <point x="866" y="1229"/>
      <point x="866" y="1155" type="curve" smooth="yes"/>
      <point x="866" y="329" type="line" smooth="yes"/>
      <point x="866" y="182"/>
      <point x="1191" y="304"/>
      <point x="1191" y="111" type="curve" smooth="yes"/>
      <point x="1191" y="36"/>
      <point x="1147" y="0"/>
      <point x="1074" y="0" type="curve" smooth="yes"/>
      <point x="180" y="0" type="line" smooth="yes"/>
      <point x="108" y="0"/>
      <point x="61" y="36"/>
      <point x="61" y="111" type="curve" smooth="yes"/>
      <point x="61" y="316"/>
      <point x="415" y="174"/>
      <point x="415" y="329" type="curve" smooth="yes"/>
      <point x="415" y="819" type="line" smooth="yes"/>
      <point x="415" y="892"/>
      <point x="392" y="925"/>
      <point x="316" y="925" type="curve" smooth="yes"/>
      <point x="288" y="925"/>
      <point x="260" y="922"/>
      <point x="232" y="922" type="curve" smooth="yes"/>
      <point x="141" y="922"/>
      <point x="71" y="942"/>
    </contour>
  </outline>
</glyph>
<glyph name="two" format="2">
  <advance width="1229"/>
  <unicode hex="0032"/>
  <outline>
    <contour>
      <point x="274" y="322" type="line"/>
      <point x="595" y="415" type="line" smooth="yes"/>
      <point x="649" y="431"/>
      <point x="699" y="455"/>
      <point x="749" y="480" type="curve" smooth="yes"/>
      <point x="929" y="571"/>
      <point x="1100" y="703"/>
      <point x="1100" y="924" type="curve" smooth="yes"/>
      <point x="1100" y="1216"/>
      <point x="850" y="1306"/>
      <point x="600" y="1306" type="curve" smooth="yes"/>
      <point x="375" y="1306"/>
      <point x="97" y="1217"/>
      <point x="97" y="947" type="curve" smooth="yes"/>
      <point x="97" y="821"/>
      <point x="158" y="710"/>
      <point x="297" y="710" type="curve" smooth="yes"/>
      <point x="426" y="710"/>
      <point x="501" y="797"/>
      <point x="501" y="923" type="curve" smooth="yes"/>
      <point x="501" y="1029" type="line" smooth="yes"/>
      <point x="501" y="1074"/>
      <point x="501" y="1151"/>
      <point x="565" y="1151" type="curve" smooth="yes"/>
      <point x="632" y="1151"/>
      <point x="632" y="982"/>
      <point x="632" y="937" type="curve" smooth="yes"/>
      <point x="632" y="728"/>
      <point x="602" y="608"/>
      <point x="419" y="488" type="curve" smooth="yes"/>
      <point x="395" y="472"/>
      <point x="362" y="451"/>
      <point x="334" y="444" type="curve" smooth="yes"/>
      <point x="187" y="405" type="line"/>
    </contour>
    <contour>
      <point x="70" y="194" type="curve" smooth="yes"/>
      <point x="70" y="74"/>
      <point x="133" y="-40"/>
      <point x="266" y="-40" type="curve" smooth="yes"/>
      <point x="410" y="-40"/>
      <point x="459" y="0"/>
      <point x="496" y="138" type="curve" smooth="yes"/>
      <point x="503" y="163"/>
      <point x="509" y="198"/>
      <point x="543" y="198" type="curve" smooth="yes"/>
      <point x="579" y="198"/>
      <point x="576" y="166"/>
      <point x="584" y="141" type="curve" smooth="yes"/>
      <point x="621" y="18"/>
      <point x="728" y="-41"/>
      <point x="851" y="-41" type="curve" smooth="yes"/>
      <point x="1101" y="-41"/>
      <point x="1169" y="182"/>
      <point x="1184" y="390" type="curve" smooth="yes"/>
      <point x="1185" y="402"/>
      <point x="1186" y="415"/>
      <point x="1186" y="427" type="curve" smooth="yes"/>
      <point x="1186" y="472"/>
      <point x="1179" y="544"/>
      <point x="1119" y="544" type="curve" smooth="yes"/>
      <point x="1040" y="544"/>
      <point x="1035" y="416"/>
      <point x="871" y="416" type="curve" smooth="yes"/>
      <point x="704" y="416"/>
      <point x="539" y="445"/>
      <point x="372" y="445" type="curve" smooth="yes"/>
      <point x="213" y="445"/>
      <point x="70" y="371"/>
    </contour>
  </outline>
</glyph>
<glyph name="four" format="2">
  <advance width="1229"/>
  <unicode hex="0034"/>
  <outline>
    <contour>
      <point x="360" y="111" type="curve" smooth="yes"/>
      <point x="360" y="40"/>
      <point x="396" y="0"/>
      <point x="468" y="0" type="curve" smooth="yes"/>
      <point x="1012" y="0" type="line" smooth="yes"/>
      <point x="1084" y="0"/>
      <point x="1120" y="40"/>
      <point x="1120" y="111" type="curve" smooth="yes"/>
      <point x="1120" y="241"/>
      <point x="965" y="208"/>
      <point x="964" y="329" type="curve" smooth="yes"/>
      <point x="961" y="818" type="line" smooth="yes"/>
      <point x="961" y="859"/>
      <point x="950" y="905"/>
      <point x="900" y="905" type="curve" smooth="yes"/>
      <point x="861" y="905"/>
      <point x="830" y="874"/>
      <point x="805" y="848" type="curve" smooth="yes"/>
      <point x="578" y="615" type="line" smooth="yes"/>
      <point x="547" y="583"/>
      <point x="537" y="538"/>
      <point x="537" y="495" type="curve" smooth="yes"/>
      <point x="537" y="329" type="line" smooth="yes"/>
      <point x="537" y="184"/>
      <point x="360" y="273"/>
    </contour>
    <contour>
      <point x="36" y="438" type="curve" smooth="yes"/>
      <point x="36" y="371"/>
      <point x="70" y="315"/>
      <point x="143" y="315" type="curve" smooth="yes"/>
      <point x="1041" y="315" type="line" smooth="yes"/>
      <point x="1115" y="315"/>
      <point x="1143" y="353"/>
      <point x="1143" y="424" type="curve" smooth="yes"/>
      <point x="1143" y="488"/>
      <point x="1104" y="520"/>
      <point x="1042" y="520" type="curve" smooth="yes"/>
      <point x="188" y="520" type="line"/>
      <point x="222" y="436" type="line"/>
      <point x="637" y="814" type="line" smooth="yes"/>
      <point x="722" y="892"/>
      <point x="822" y="1007"/>
      <point x="822" y="1129" type="curve" smooth="yes"/>
      <point x="822" y="1274"/>
      <point x="725" y="1345"/>
      <point x="587" y="1345" type="curve" smooth="yes"/>
      <point x="441" y="1345"/>
      <point x="317" y="1277"/>
      <point x="317" y="1116" type="curve" smooth="yes"/>
      <point x="317" y="1029"/>
      <point x="383" y="965"/>
      <point x="383" y="886" type="curve" smooth="yes"/>
      <point x="383" y="830"/>
      <point x="316" y="736"/>
      <point x="273" y="703" type="curve" smooth="yes"/>
      <point x="221" y="663"/>
      <point x="165" y="627"/>
      <point x="113" y="587" type="curve" smooth="yes"/>
      <point x="72" y="555"/>
      <point x="36" y="491"/>
    </contour>
  </outline>
</glyph>
<glyph name="five" format="2">
  <advance width="1229"/>
  <unicode hex="0035"/>
  <outline>
    <contour>
      <point x="92" y="253" type="curve" smooth="yes"/>
      <point x="92" y="12"/>
      <point x="380" y="-40"/>
      <point x="568" y="-40" type="curve" smooth="yes"/>
      <point x="841" y="-40"/>
      <point x="1134" y="61"/>
      <point x="1134" y="382" type="curve" smooth="yes"/>
      <point x="1134" y="656"/>
      <point x="907" y="781"/>
      <point x="659" y="781" type="curve" smooth="yes"/>
      <point x="526" y="781"/>
      <point x="408" y="763"/>
      <point x="295" y="688" type="curve"/>
      <point x="372" y="657" type="line"/>
      <point x="372" y="1119" type="line"/>
      <point x="242" y="907" type="line"/>
      <point x="383" y="860"/>
      <point x="531" y="830"/>
      <point x="680" y="830" type="curve" smooth="yes"/>
      <point x="928" y="830"/>
      <point x="1143" y="927"/>
      <point x="1143" y="1207" type="curve" smooth="yes"/>
      <point x="1143" y="1249"/>
      <point x="1128" y="1295"/>
      <point x="1078" y="1295" type="curve" smooth="yes"/>
      <point x="1056" y="1295"/>
      <point x="1038" y="1282"/>
      <point x="1018" y="1274" type="curve" smooth="yes"/>
      <point x="939" y="1242"/>
      <point x="847" y="1239"/>
      <point x="763" y="1239" type="curve" smooth="yes"/>
      <point x="652" y="1239"/>
      <point x="541" y="1249"/>
      <point x="431" y="1269" type="curve" smooth="yes"/>
      <point x="395" y="1276"/>
      <point x="358" y="1282"/>
      <point x="321" y="1282" type="curve" smooth="yes"/>
      <point x="219" y="1282"/>
      <point x="180" y="1218"/>
      <point x="180" y="1123" type="curve" smooth="yes"/>
      <point x="180" y="618" type="line" smooth="yes"/>
      <point x="180" y="560"/>
      <point x="211" y="521"/>
      <point x="271" y="521" type="curve" smooth="yes"/>
      <point x="311" y="521"/>
      <point x="352" y="540"/>
      <point x="388" y="556" type="curve"/>
      <point x="516" y="556" type="line" smooth="yes"/>
      <point x="675" y="556"/>
      <point x="711" y="435"/>
      <point x="711" y="300" type="curve" smooth="yes"/>
      <point x="711" y="217"/>
      <point x="704" y="114"/>
      <point x="596" y="114" type="curve" smooth="yes"/>
      <point x="549" y="114"/>
      <point x="498" y="138"/>
      <point x="498" y="192" type="curve" smooth="yes"/>
      <point x="498" y="287" type="line" smooth="yes"/>
      <point x="498" y="407"/>
      <point x="429" y="488"/>
      <point x="306" y="488" type="curve" smooth="yes"/>
      <point x="175" y="488"/>
      <point x="92" y="377"/>
    </contour>
  </outline>
</glyph>
<glyph name="six" format="2">
  <advance width="1229"/>
  <unicode hex="0036"/>
  <outline>
    <contour>
      <point x="697" y="1306" type="curve" smooth="yes"/>
      <point x="274" y="1306"/>
      <point x="71" y="984"/>
      <point x="71" y="592" type="curve" smooth="yes"/>
      <point x="71" y="240"/>
      <point x="253" y="-41"/>
      <point x="631" y="-41" type="curve" smooth="yes"/>
      <point x="907" y="-41"/>
      <point x="1160" y="103"/>
      <point x="1160" y="406" type="curve" smooth="yes"/>
      <point x="1160" y="639"/>
      <point x="1026" y="781"/>
      <point x="791" y="781" type="curve" smooth="yes"/>
      <point x="641" y="781"/>
      <point x="415" y="693"/>
      <point x="388" y="526" type="curve"/>
      <point x="474" y="473" type="line"/>
      <point x="504" y="528"/>
      <point x="564" y="551"/>
      <point x="624" y="551" type="curve" smooth="yes"/>
      <point x="721" y="551"/>
      <point x="737" y="414"/>
      <point x="737" y="342" type="curve" smooth="yes"/>
      <point x="737" y="275"/>
      <point x="731" y="147"/>
      <point x="638" y="147" type="curve" smooth="yes"/>
      <point x="508" y="147"/>
      <point x="513" y="465"/>
      <point x="513" y="553" type="curve" smooth="yes"/>
      <point x="513" y="654"/>
      <point x="504" y="1119"/>
      <point x="648" y="1119" type="curve" smooth="yes"/>
      <point x="693" y="1119"/>
      <point x="710" y="1099"/>
      <point x="710" y="1055" type="curve" smooth="yes"/>
      <point x="710" y="993" type="line" smooth="yes"/>
      <point x="710" y="858"/>
      <point x="788" y="800"/>
      <point x="917" y="800" type="curve" smooth="yes"/>
      <point x="1052" y="800"/>
      <point x="1128" y="888"/>
      <point x="1128" y="1020" type="curve" smooth="yes"/>
      <point x="1128" y="1234"/>
      <point x="870" y="1306"/>
    </contour>
  </outline>
</glyph>
<glyph name="seven" format="2">
  <advance width="1229"/>
  <unicode hex="0037"/>
  <outline>
    <contour>
      <point x="908" y="857" type="line"/>
      <point x="691" y="773" type="line" smooth="yes"/>
      <point x="660" y="761"/>
      <point x="625" y="727"/>
      <point x="599" y="706" type="curve" smooth="yes"/>
      <point x="467" y="598"/>
      <point x="299" y="452"/>
      <point x="299" y="266" type="curve" smooth="yes"/>
      <point x="299" y="76"/>
      <point x="409" y="-41"/>
      <point x="601" y="-41" type="curve" smooth="yes"/>
      <point x="758" y="-41"/>
      <point x="874" y="64"/>
      <point x="874" y="224" type="curve" smooth="yes"/>
      <point x="874" y="366"/>
      <point x="753" y="461"/>
      <point x="753" y="585" type="curve" smooth="yes"/>
      <point x="753" y="687"/>
      <point x="839" y="747"/>
      <point x="913" y="801" type="curve" smooth="yes"/>
      <point x="967" y="841"/>
      <point x="1017" y="873"/>
      <point x="1081" y="896" type="curve" smooth="yes"/>
      <point x="1160" y="924" type="line"/>
      <point x="1210" y="977"/>
      <point x="1255" y="1043"/>
      <point x="1255" y="1119" type="curve" smooth="yes"/>
      <point x="1255" y="1215"/>
      <point x="1193" y="1265"/>
      <point x="1100" y="1265" type="curve" smooth="yes"/>
      <point x="264" y="1265" type="line" smooth="yes"/>
      <point x="185" y="1265"/>
      <point x="139" y="1210"/>
      <point x="134" y="1134" type="curve" smooth="yes"/>
      <point x="107" y="721" type="line"/>
      <point x="107" y="713" type="line" smooth="yes"/>
      <point x="107" y="652"/>
      <point x="151" y="615"/>
      <point x="210" y="615" type="curve" smooth="yes"/>
      <point x="288" y="615"/>
      <point x="310" y="676"/>
      <point x="328" y="739" type="curve" smooth="yes"/>
      <point x="351" y="816"/>
      <point x="357" y="846"/>
      <point x="447" y="846" type="curve" smooth="yes"/>
      <point x="979" y="846" type="line"/>
    </contour>
  </outline>
</glyph>
<glyph name="eight" format="2">
  <advance width="1229"/>
  <unicode hex="0038"/>
  <outline>
    <contour>
      <point x="570" y="-39" type="curve" smooth="yes"/>
      <point x="820" y="-39"/>
      <point x="1141" y="56"/>
      <point x="1141" y="359" type="curve" smooth="yes"/>
      <point x="1141" y="769"/>
      <point x="538" y="633"/>
      <point x="538" y="1022" type="curve" smooth="yes"/>
      <point x="538" y="1080"/>
      <point x="548" y="1145"/>
      <point x="621" y="1145" type="curve" smooth="yes"/>
      <point x="708" y="1145"/>
      <point x="711" y="1044"/>
      <point x="711" y="981" type="curve" smooth="yes"/>
      <point x="711" y="885"/>
      <point x="706" y="784"/>
      <point x="660" y="698" type="curve"/>
      <point x="692" y="651" type="line"/>
      <point x="710" y="650"/>
      <point x="728" y="649"/>
      <point x="746" y="649" type="curve" smooth="yes"/>
      <point x="940" y="649"/>
      <point x="1132" y="725"/>
      <point x="1132" y="949" type="curve" smooth="yes"/>
      <point x="1132" y="1201"/>
      <point x="896" y="1306"/>
      <point x="676" y="1306" type="curve" smooth="yes"/>
      <point x="400" y="1306"/>
      <point x="112" y="1183"/>
      <point x="112" y="866" type="curve" smooth="yes"/>
      <point x="112" y="631"/>
      <point x="277" y="561"/>
      <point x="467" y="488" type="curve" smooth="yes"/>
      <point x="599" y="437"/>
      <point x="688" y="399"/>
      <point x="688" y="239" type="curve" smooth="yes"/>
      <point x="688" y="191"/>
      <point x="685" y="109"/>
      <point x="618" y="109" type="curve" smooth="yes"/>
      <point x="537" y="109"/>
      <point x="537" y="255"/>
      <point x="537" y="310" type="curve" smooth="yes"/>
      <point x="537" y="387"/>
      <point x="540" y="464"/>
      <point x="562" y="538" type="curve"/>
      <point x="544" y="538"/>
      <point x="527" y="539"/>
      <point x="509" y="539" type="curve" smooth="yes"/>
      <point x="344" y="539"/>
      <point x="104" y="497"/>
      <point x="104" y="286" type="curve" smooth="yes"/>
      <point x="104" y="23"/>
      <point x="355" y="-39"/>
    </contour>
  </outline>
</glyph>
<glyph name="nine" format="2">
  <advance width="1229"/>
  <unicode hex="0039"/>
  <outline>
    <contour>
      <point x="530" y="-41" type="curve" smooth="yes"/>
      <point x="957" y="-41"/>
      <point x="1159" y="278"/>
      <point x="1159" y="674" type="curve" smooth="yes"/>
      <point x="1159" y="1025"/>
      <point x="975" y="1306"/>
      <point x="599" y="1306" type="curve" smooth="yes"/>
      <point x="318" y="1306"/>
      <point x="70" y="1156"/>
      <point x="70" y="850" type="curve" smooth="yes"/>
      <point x="70" y="616"/>
      <point x="201" y="467"/>
      <point x="440" y="467" type="curve" smooth="yes"/>
      <point x="590" y="467"/>
      <point x="815" y="555"/>
      <point x="842" y="722" type="curve"/>
      <point x="756" y="776" type="line"/>
      <point x="727" y="720"/>
      <point x="667" y="697"/>
      <point x="607" y="697" type="curve" smooth="yes"/>
      <point x="508" y="697"/>
      <point x="494" y="841"/>
      <point x="494" y="914" type="curve" smooth="yes"/>
      <point x="494" y="980"/>
      <point x="497" y="1119"/>
      <point x="591" y="1119" type="curve" smooth="yes"/>
      <point x="722" y="1119"/>
      <point x="717" y="783"/>
      <point x="717" y="694" type="curve" smooth="yes"/>
      <point x="717" y="593"/>
      <point x="725" y="146"/>
      <point x="579" y="146" type="curve" smooth="yes"/>
      <point x="532" y="146"/>
      <point x="523" y="170"/>
      <point x="523" y="212" type="curve" smooth="yes"/>
      <point x="523" y="273" type="line" smooth="yes"/>
      <point x="523" y="408"/>
      <point x="444" y="466"/>
      <point x="315" y="466" type="curve" smooth="yes"/>
      <point x="180" y="466"/>
      <point x="104" y="378"/>
      <point x="104" y="246" type="curve" smooth="yes"/>
      <point x="104" y="32"/>
      <point x="355" y="-41"/>
    </contour>
  </outline>
  <guideline angle="0" x="0" y="1618"/>
</glyph>
<glyph name="colon" format="2">
  <advance width="614"/>
  <unicode hex="003A"/>
  <outline>
    <contour>
      <point x="306" y="-31" type="curve" smooth="yes"/>
      <point x="444" y="-31"/>
      <point x="541" y="94"/>
      <point x="541" y="226" type="curve" smooth="yes"/>
      <point x="541" y="359"/>
      <point x="445" y="482"/>
      <point x="306" y="482" type="curve" smooth="yes"/>
      <point x="168" y="482"/>
      <point x="74" y="357"/>
      <point x="74" y="226" type="curve" smooth="yes"/>
      <point x="74" y="96"/>
      <point x="168" y="-31"/>
    </contour>
    <contour>
      <point x="306" y="521" type="curve" smooth="yes"/>
      <point x="444" y="521"/>
      <point x="541" y="648"/>
      <point x="541" y="779" type="curve" smooth="yes"/>
      <point x="541" y="912"/>
      <point x="445" y="1034"/>
      <point x="306" y="1034" type="curve" smooth="yes"/>
      <point x="168" y="1034"/>
      <point x="73" y="910"/>
      <point x="73" y="779" type="curve" smooth="yes"/>
      <point x="73" y="648"/>
      <point x="168" y="521"/>
    </contour>
  </outline>
</glyph>
<glyph name="semicolon" format="2">
  <advance width="614"/>
  <unicode hex="003B"/>
  <outline>
    <contour>
      <point x="302" y="520" type="curve" smooth="yes"/>
      <point x="440" y="520"/>
      <point x="537" y="647"/>
      <point x="537" y="778" type="curve" smooth="yes"/>
      <point x="537" y="911"/>
      <point x="441" y="1033"/>
      <point x="302" y="1033" type="curve" smooth="yes"/>
      <point x="164" y="1033"/>
      <point x="70" y="909"/>
      <point x="70" y="778" type="curve" smooth="yes"/>
      <point x="70" y="648"/>
      <point x="164" y="520"/>
    </contour>
    <contour>
      <point x="339" y="-57" type="curve" smooth="yes"/>
      <point x="339" y="-174"/>
      <point x="231" y="-216"/>
      <point x="138" y="-248" type="curve" smooth="yes"/>
      <point x="88" y="-265"/>
      <point x="55" y="-275"/>
      <point x="55" y="-336" type="curve" smooth="yes"/>
      <point x="55" y="-397"/>
      <point x="93" y="-432"/>
      <point x="153" y="-432" type="curve" smooth="yes"/>
      <point x="167" y="-432"/>
      <point x="181" y="-430"/>
      <point x="195" y="-427" type="curve" smooth="yes"/>
      <point x="476" y="-364"/>
      <point x="560" y="-160"/>
      <point x="560" y="107" type="curve" smooth="yes" name=".hr01"/>
      <point x="560" y="266"/>
      <point x="494" y="432"/>
      <point x="310" y="432" type="curve" smooth="yes"/>
      <point x="174" y="432"/>
      <point x="82" y="322"/>
      <point x="82" y="190" type="curve" smooth="yes"/>
      <point x="82" y="44"/>
      <point x="156" y="-24"/>
      <point x="300" y="-24" type="curve" smooth="yes"/>
      <point x="324" y="-24"/>
      <point x="339" y="-29"/>
    </contour>
  </outline>
</glyph>
<glyph name="less" format="2">
  <advance width="1024"/>
  <unicode hex="003C"/>
  <outline>
    <contour>
      <point x="410" y="702" type="line"/>
      <point x="794" y="414" type="line" smooth="yes"/>
      <point x="849" y="373"/>
      <point x="895" y="335"/>
      <point x="895" y="260" type="curve" smooth="yes"/>
      <point x="895" y="188"/>
      <point x="863" y="136"/>
      <point x="785" y="136" type="curve" smooth="yes"/>
      <point x="726" y="136"/>
      <point x="618" y="190"/>
      <point x="570" y="225" type="curve" smooth="yes"/>
      <point x="218" y="484" type="line" smooth="yes"/>
      <point x="206" y="493"/>
      <point x="194" y="500"/>
      <point x="182" y="509" type="curve" smooth="yes"/>
      <point x="133" y="545"/>
      <point x="105" y="616"/>
      <point x="105" y="676" type="curve" smooth="yes"/>
      <point x="105" y="736"/>
      <point x="132" y="808"/>
      <point x="182" y="844" type="curve" smooth="yes"/>
      <point x="194" y="853"/>
      <point x="206" y="860"/>
      <point x="218" y="869" type="curve" smooth="yes"/>
      <point x="570" y="1128" type="line" smooth="yes"/>
      <point x="618" y="1163"/>
      <point x="726" y="1217"/>
      <point x="785" y="1217" type="curve" smooth="yes"/>
      <point x="862" y="1217"/>
      <point x="895" y="1165"/>
      <point x="895" y="1093" type="curve" smooth="yes"/>
      <point x="895" y="1018"/>
      <point x="849" y="980"/>
      <point x="794" y="939" type="curve" smooth="yes"/>
      <point x="410" y="651" type="line"/>
    </contour>
  </outline>
</glyph>
<glyph name="equal" format="2">
  <advance width="1229"/>
  <unicode hex="003D"/>
  <outline>
    <contour>
      <point x="116" y="876" type="curve" smooth="yes"/>
      <point x="116" y="818"/>
      <point x="147" y="754"/>
      <point x="213" y="754" type="curve" smooth="yes"/>
      <point x="1017" y="754" type="line" smooth="yes"/>
      <point x="1084" y="754"/>
      <point x="1113" y="818"/>
      <point x="1113" y="876" type="curve" smooth="yes"/>
      <point x="1113" y="934"/>
      <point x="1085" y="1002"/>
      <point x="1017" y="1002" type="curve" smooth="yes"/>
      <point x="214" y="1002" type="line" smooth="yes"/>
      <point x="147" y="1002"/>
      <point x="116" y="935"/>
    </contour>
    <contour>
      <point x="116" y="476" type="curve" smooth="yes"/>
      <point x="116" y="418"/>
      <point x="147" y="355"/>
      <point x="213" y="355" type="curve" smooth="yes"/>
      <point x="1017" y="355" type="line" smooth="yes"/>
      <point x="1084" y="355"/>
      <point x="1113" y="417"/>
      <point x="1113" y="476" type="curve" smooth="yes"/>
      <point x="1113" y="535"/>
      <point x="1085" y="603"/>
      <point x="1017" y="603" type="curve" smooth="yes"/>
      <point x="214" y="603" type="line" smooth="yes"/>
      <point x="146" y="603"/>
      <point x="116" y="535"/>
    </contour>
  </outline>
</glyph>
<glyph name="greater" format="2">
  <advance width="1024"/>
  <unicode hex="003E"/>
  <outline>
    <contour>
      <point x="616" y="651" type="line"/>
      <point x="232" y="939" type="line" smooth="yes"/>
      <point x="177" y="980"/>
      <point x="129" y="1018"/>
      <point x="129" y="1093" type="curve" smooth="yes"/>
      <point x="129" y="1165"/>
      <point x="163" y="1217"/>
      <point x="240" y="1217" type="curve" smooth="yes"/>
      <point x="299" y="1217"/>
      <point x="407" y="1163"/>
      <point x="455" y="1128" type="curve" smooth="yes"/>
      <point x="824" y="857" type="line" smooth="yes"/>
      <point x="887" y="811"/>
      <point x="919" y="755"/>
      <point x="919" y="676" type="curve" smooth="yes"/>
      <point x="919" y="584"/>
      <point x="878" y="536"/>
      <point x="807" y="484" type="curve" smooth="yes"/>
      <point x="455" y="225" type="line" smooth="yes"/>
      <point x="407" y="190"/>
      <point x="299" y="136"/>
      <point x="240" y="136" type="curve" smooth="yes"/>
      <point x="163" y="136"/>
      <point x="129" y="188"/>
      <point x="129" y="260" type="curve" smooth="yes"/>
      <point x="129" y="335"/>
      <point x="177" y="373"/>
      <point x="232" y="414" type="curve" smooth="yes"/>
      <point x="616" y="702" type="line"/>
    </contour>
  </outline>
</glyph>
<glyph name="question" format="2">
  <advance width="987"/>
  <unicode hex="003F"/>
  <outline>
    <contour>
      <point x="275" y="704" type="curve" smooth="yes"/>
      <point x="275" y="773"/>
      <point x="319" y="802"/>
      <point x="370" y="837" type="curve" smooth="yes"/>
      <point x="483" y="916"/>
      <point x="488" y="978"/>
      <point x="488" y="1107" type="curve" smooth="yes"/>
      <point x="488" y="1136"/>
      <point x="490" y="1274"/>
      <point x="455" y="1274" type="curve" smooth="yes"/>
      <point x="430" y="1274"/>
      <point x="434" y="1157"/>
      <point x="434" y="1136" type="curve" smooth="yes"/>
      <point x="434" y="980"/>
      <point x="375" y="864"/>
      <point x="203" y="864" type="curve" smooth="yes"/>
      <point x="67" y="864"/>
      <point x="-10" y="951"/>
      <point x="-10" y="1084" type="curve" smooth="yes"/>
      <point x="-10" y="1339"/>
      <point x="253" y="1463"/>
      <point x="476" y="1463" type="curve" smooth="yes"/>
      <point x="744" y="1463"/>
      <point x="988" y="1396"/>
      <point x="988" y="1079" type="curve" smooth="yes"/>
      <point x="988" y="866"/>
      <point x="872" y="752"/>
      <point x="667" y="720" type="curve"/>
      <point x="664" y="719"/>
      <point x="660" y="719"/>
      <point x="657" y="718" type="curve"/>
      <point x="609" y="718"/>
      <point x="610" y="659"/>
      <point x="576" y="639" type="curve"/>
      <point x="547" y="572"/>
      <point x="514" y="521"/>
      <point x="434" y="521" type="curve" smooth="yes"/>
      <point x="361" y="521"/>
      <point x="343" y="557"/>
      <point x="309" y="613" type="curve" smooth="yes"/>
      <point x="290" y="645"/>
      <point x="275" y="665"/>
    </contour>
    <contour>
      <point x="430" y="-31" type="curve" smooth="yes"/>
      <point x="292" y="-31"/>
      <point x="198" y="96"/>
      <point x="198" y="226" type="curve" smooth="yes" name=".hr01"/>
      <point x="198" y="357"/>
      <point x="292" y="482"/>
      <point x="430" y="482" type="curve" smooth="yes"/>
      <point x="569" y="482"/>
      <point x="665" y="359"/>
      <point x="665" y="226" type="curve" smooth="yes"/>
      <point x="665" y="94"/>
      <point x="568" y="-31"/>
    </contour>
  </outline>
</glyph>
<glyph name="A" format="2">
  <advance width="1693"/>
  <unicode hex="0041"/>
  <anchor x="846" y="0" name="bottom"/>
  <anchor x="1517" y="10" name="ogonek"/>
  <anchor x="846" y="1384" name="top"/>
  <outline>
    <contour>
      <point x="398" y="643" type="line"/>
      <point x="399" y="420" type="line"/>
      <point x="1038" y="420" type="line"/>
      <point x="1038" y="643" type="line"/>
    </contour>
    <contour>
      <point x="594" y="109" type="curve" smooth="yes"/>
      <point x="594" y="224"/>
      <point x="435" y="223"/>
      <point x="435" y="298" type="curve" smooth="yes"/>
      <point x="435" y="331"/>
      <point x="458" y="374"/>
      <point x="469" y="406" type="curve" smooth="yes"/>
      <point x="725" y="1186" type="line"/>
      <point x="696" y="1191" type="line"/>
      <point x="974" y="318" type="line" smooth="yes"/>
      <point x="980" y="300"/>
      <point x="986" y="282"/>
      <point x="986" y="263" type="curve" smooth="yes"/>
      <point x="986" y="218"/>
      <point x="869" y="217"/>
      <point x="869" y="109" type="curve" smooth="yes"/>
      <point x="869" y="32"/>
      <point x="919" y="0"/>
      <point x="991" y="0" type="curve" smooth="yes"/>
      <point x="1502" y="0" type="line" smooth="yes"/>
      <point x="1574" y="0"/>
      <point x="1623" y="32"/>
      <point x="1623" y="109" type="curve" smooth="yes"/>
      <point x="1623" y="168"/>
      <point x="1606" y="185"/>
      <point x="1561" y="219" type="curve" smooth="yes"/>
      <point x="1474" y="284"/>
      <point x="1477" y="346"/>
      <point x="1445" y="440" type="curve" smooth="yes"/>
      <point x="1238" y="1045" type="line" smooth="yes"/>
      <point x="1231" y="1066"/>
      <point x="1224" y="1088"/>
      <point x="1224" y="1111" type="curve" smooth="yes"/>
      <point x="1224" y="1176"/>
      <point x="1316" y="1165"/>
      <point x="1316" y="1275" type="curve" smooth="yes"/>
      <point x="1316" y="1352"/>
      <point x="1267" y="1384"/>
      <point x="1195" y="1384" type="curve" smooth="yes"/>
      <point x="475" y="1384" type="line" smooth="yes"/>
      <point x="403" y="1384"/>
      <point x="354" y="1351"/>
      <point x="354" y="1275" type="curve" smooth="yes"/>
      <point x="354" y="1160"/>
      <point x="456" y="1171"/>
      <point x="456" y="1110" type="curve" smooth="yes"/>
      <point x="456" y="1085"/>
      <point x="447" y="1062"/>
      <point x="439" y="1039" type="curve" smooth="yes"/>
      <point x="212" y="358" type="line" smooth="yes"/>
      <point x="196" y="311"/>
      <point x="181" y="268"/>
      <point x="144" y="233" type="curve" smooth="yes"/>
      <point x="103" y="194"/>
      <point x="62" y="173"/>
      <point x="62" y="109" type="curve" smooth="yes"/>
      <point x="62" y="32"/>
      <point x="112" y="0"/>
      <point x="184" y="0" type="curve" smooth="yes"/>
      <point x="473" y="0" type="line" smooth="yes"/>
      <point x="545" y="0"/>
      <point x="594" y="33"/>
    </contour>
  </outline>
</glyph>
<glyph name="B" format="2">
  <advance width="1469"/>
  <unicode hex="0042"/>
  <anchor x="738" y="0" name="bottom"/>
  <anchor x="738" y="692" name="center"/>
  <anchor x="738" y="1384" name="top"/>
  <outline>
    <contour>
      <point x="1456" y="332" type="curve" smooth="yes"/>
      <point x="1456" y="597"/>
      <point x="1142" y="680"/>
      <point x="928" y="680" type="curve"/>
      <point x="903" y="630" type="line"/>
      <point x="1114" y="630"/>
      <point x="1381" y="713" name=".hr01"/>
      <point x="1381" y="968" type="curve" smooth="yes"/>
      <point x="1381" y="1283"/>
      <point x="1052" y="1384"/>
      <point x="791" y="1384" type="curve" smooth="yes"/>
      <point x="180" y="1384" type="line" smooth="yes"/>
      <point x="108" y="1384"/>
      <point x="61" y="1351"/>
      <point x="61" y="1275" type="curve" smooth="yes"/>
      <point x="61" y="1139"/>
      <point x="197" y="1173"/>
      <point x="197" y="1057" type="curve" smooth="yes"/>
      <point x="197" y="327" type="line" smooth="yes"/>
      <point x="197" y="215"/>
      <point x="61" y="243"/>
      <point x="61" y="109" type="curve" smooth="yes"/>
      <point x="61" y="33"/>
      <point x="108" y="0"/>
      <point x="180" y="0" type="curve" smooth="yes"/>
      <point x="964" y="0" type="line" smooth="yes"/>
      <point x="1184" y="0"/>
      <point x="1456" y="60" name=".hr02"/>
    </contour>
    <contour>
      <point x="974" y="353" type="curve" smooth="yes"/>
      <point x="974" y="264"/>
      <point x="939" y="200"/>
      <point x="842" y="200" type="curve" smooth="yes"/>
      <point x="736" y="200"/>
      <point x="689" y="266"/>
      <point x="689" y="367" type="curve" smooth="yes"/>
      <point x="689" y="1183" type="line"/>
      <point x="695" y="1183" type="line" smooth="yes"/>
      <point x="850" y="1183"/>
      <point x="923" y="1088"/>
      <point x="923" y="939" type="curve" smooth="yes" name=".hr03"/>
      <point x="923" y="802"/>
      <point x="876" y="706"/>
      <point x="725" y="706" type="curve" smooth="yes"/>
      <point x="513" y="706" type="line"/>
      <point x="513" y="538" type="line"/>
      <point x="798" y="538" type="line" smooth="yes"/>
      <point x="908" y="538"/>
      <point x="974" y="460"/>
    </contour>
  </outline>
</glyph>
<glyph name="C" format="2">
  <advance width="1474"/>
  <unicode hex="0043"/>
  <anchor x="739" y="0" name="bottom"/>
  <anchor x="739" y="1384" name="top"/>
  <outline>
    <contour>
      <point x="1406" y="380" type="curve" smooth="yes"/>
      <point x="1406" y="424"/>
      <point x="1384" y="466"/>
      <point x="1335" y="466" type="curve" smooth="yes"/>
      <point x="1268" y="466"/>
      <point x="1141" y="263"/>
      <point x="942" y="263" type="curve" smooth="yes"/>
      <point x="660" y="263"/>
      <point x="563" y="508"/>
      <point x="563" y="752" type="curve" smooth="yes"/>
      <point x="563" y="934"/>
      <point x="604" y="1220"/>
      <point x="841" y="1220" type="curve" smooth="yes"/>
      <point x="1143" y="1220"/>
      <point x="1111" y="883"/>
      <point x="1274" y="883" type="curve" smooth="yes"/>
      <point x="1330" y="883"/>
      <point x="1392" y="914"/>
      <point x="1392" y="977" type="curve" smooth="yes"/>
      <point x="1392" y="987"/>
      <point x="1391" y="996"/>
      <point x="1388" y="1006" type="curve" smooth="yes"/>
      <point x="1298" y="1318" type="line" smooth="yes"/>
      <point x="1283" y="1371"/>
      <point x="1272" y="1422"/>
      <point x="1204" y="1422" type="curve" smooth="yes"/>
      <point x="1155" y="1422"/>
      <point x="1122" y="1369"/>
      <point x="1068" y="1369" type="curve" smooth="yes"/>
      <point x="1028" y="1369"/>
      <point x="991" y="1388"/>
      <point x="954" y="1400" type="curve" smooth="yes"/>
      <point x="894" y="1419"/>
      <point x="831" y="1425"/>
      <point x="768" y="1425" type="curve" smooth="yes"/>
      <point x="366" y="1425"/>
      <point x="70" y="1087"/>
      <point x="70" y="695" type="curve" smooth="yes"/>
      <point x="70" y="258"/>
      <point x="357" y="-40"/>
      <point x="797" y="-40" type="curve" smooth="yes"/>
      <point x="1005" y="-40"/>
      <point x="1232" y="38"/>
      <point x="1351" y="218" type="curve" smooth="yes"/>
      <point x="1383" y="266"/>
      <point x="1406" y="321"/>
    </contour>
  </outline>
</glyph>
<glyph name="D" format="2">
  <advance width="1643"/>
  <unicode hex="0044"/>
  <anchor x="824" y="0" name="bottom"/>
  <anchor x="824" y="692" name="center"/>
  <anchor x="824" y="1384" name="top"/>
  <outline>
    <contour>
      <point x="83" y="109" type="curve" smooth="yes"/>
      <point x="83" y="33"/>
      <point x="131" y="0"/>
      <point x="203" y="0" type="curve" smooth="yes"/>
      <point x="895" y="0" type="line" smooth="yes"/>
      <point x="1277" y="0"/>
      <point x="1586" y="239"/>
      <point x="1586" y="638" type="curve" smooth="yes"/>
      <point x="1586" y="1099"/>
      <point x="1246" y="1384"/>
      <point x="799" y="1384" type="curve" smooth="yes"/>
      <point x="203" y="1384" type="line" smooth="yes"/>
      <point x="132" y="1384"/>
      <point x="83" y="1350"/>
      <point x="83" y="1275" type="curve" smooth="yes"/>
      <point x="83" y="1138"/>
      <point x="223" y="1175"/>
      <point x="223" y="1057" type="curve" smooth="yes"/>
      <point x="223" y="327" type="line" smooth="yes"/>
      <point x="223" y="212"/>
      <point x="83" y="248"/>
    </contour>
    <contour>
      <point x="848" y="223" type="curve" smooth="yes"/>
      <point x="747" y="223"/>
      <point x="715" y="288"/>
      <point x="715" y="379" type="curve" smooth="yes"/>
      <point x="715" y="1161" type="line"/>
      <point x="759" y="1161" type="line" smooth="yes"/>
      <point x="1019" y="1161"/>
      <point x="1081" y="855"/>
      <point x="1081" y="650" type="curve" smooth="yes"/>
      <point x="1081" y="502"/>
      <point x="1045" y="223"/>
    </contour>
  </outline>
</glyph>
<glyph name="E" format="2">
  <advance width="1415"/>
  <unicode hex="0045"/>
  <anchor x="711" y="0" name="bottom"/>
  <anchor x="1263" y="10" name="ogonek"/>
  <anchor x="711" y="1384" name="top"/>
  <anchor x="41" y="1384" name="topleft"/>
  <outline>
    <contour>
      <point x="492" y="794" type="line"/>
      <point x="492" y="593" type="line"/>
      <point x="821" y="593" type="line" smooth="yes"/>
      <point x="907" y="593"/>
      <point x="914" y="591"/>
      <point x="972" y="526" type="curve" smooth="yes"/>
      <point x="997" y="498"/>
      <point x="1022" y="474"/>
      <point x="1062" y="474" type="curve" smooth="yes"/>
      <point x="1119" y="474"/>
      <point x="1165" y="513"/>
      <point x="1165" y="572" type="curve" smooth="yes"/>
      <point x="1165" y="587"/>
      <point x="1162" y="602"/>
      <point x="1159" y="616" type="curve" smooth="yes"/>
      <point x="1098" y="870" type="line" smooth="yes"/>
      <point x="1086" y="921"/>
      <point x="1053" y="954"/>
      <point x="999" y="954" type="curve" smooth="yes"/>
      <point x="868" y="954"/>
      <point x="934" y="794"/>
      <point x="806" y="794" type="curve" smooth="yes"/>
    </contour>
    <contour>
      <point x="93" y="1275" type="curve" smooth="yes"/>
      <point x="93" y="1137"/>
      <point x="235" y="1172"/>
      <point x="235" y="1057" type="curve" smooth="yes"/>
      <point x="235" y="327" type="line" smooth="yes"/>
      <point x="235" y="212"/>
      <point x="93" y="247"/>
      <point x="93" y="109" type="curve" smooth="yes"/>
      <point x="93" y="33"/>
      <point x="143" y="0"/>
      <point x="214" y="0" type="curve" smooth="yes"/>
      <point x="920" y="0" type="line" smooth="yes"/>
      <point x="958" y="0"/>
      <point x="995" y="-4"/>
      <point x="1032" y="-13" type="curve" smooth="yes"/>
      <point x="1071" y="-22"/>
      <point x="1111" y="-35"/>
      <point x="1152" y="-35" type="curve" smooth="yes"/>
      <point x="1257" y="-35"/>
      <point x="1287" y="34"/>
      <point x="1312" y="123" type="curve" smooth="yes"/>
      <point x="1368" y="320" type="line" smooth="yes"/>
      <point x="1372" y="334"/>
      <point x="1375" y="349"/>
      <point x="1375" y="364" type="curve" smooth="yes"/>
      <point x="1375" y="431"/>
      <point x="1320" y="471"/>
      <point x="1257" y="471" type="curve" smooth="yes"/>
      <point x="1199" y="471"/>
      <point x="1176" y="439"/>
      <point x="1151" y="392" type="curve" smooth="yes"/>
      <point x="1079" y="256"/>
      <point x="1051" y="223"/>
      <point x="891" y="223" type="curve" smooth="yes"/>
      <point x="787" y="223"/>
      <point x="727" y="287"/>
      <point x="727" y="390" type="curve" smooth="yes"/>
      <point x="727" y="1161" type="line"/>
      <point x="879" y="1161" type="line" smooth="yes"/>
      <point x="1026" y="1161"/>
      <point x="1043" y="1124"/>
      <point x="1110" y="1005" type="curve" smooth="yes"/>
      <point x="1136" y="958"/>
      <point x="1160" y="928"/>
      <point x="1218" y="928" type="curve" smooth="yes"/>
      <point x="1274" y="928"/>
      <point x="1337" y="960"/>
      <point x="1337" y="1023" type="curve" smooth="yes"/>
      <point x="1337" y="1076"/>
      <point x="1312" y="1134"/>
      <point x="1297" y="1184" type="curve" smooth="yes"/>
      <point x="1266" y="1287"/>
      <point x="1252" y="1417"/>
      <point x="1114" y="1417" type="curve" smooth="yes"/>
      <point x="1084" y="1417"/>
      <point x="1056" y="1404"/>
      <point x="1026" y="1404" type="curve"/>
      <point x="997" y="1390"/>
      <point x="916" y="1384"/>
      <point x="883" y="1384" type="curve" smooth="yes"/>
      <point x="214" y="1384" type="line" smooth="yes"/>
      <point x="143" y="1384"/>
      <point x="93" y="1351"/>
    </contour>
  </outline>
</glyph>
<glyph name="F" format="2">
  <advance width="1354"/>
  <unicode hex="0046"/>
  <anchor x="682" y="0" name="bottom"/>
  <anchor x="682" y="1384" name="top"/>
  <outline>
    <contour>
      <point x="93" y="1275" type="curve" smooth="yes"/>
      <point x="93" y="1139"/>
      <point x="236" y="1171"/>
      <point x="236" y="1057" type="curve" smooth="yes"/>
      <point x="236" y="327" type="line" smooth="yes"/>
      <point x="236" y="215"/>
      <point x="93" y="243"/>
      <point x="93" y="109" type="curve" smooth="yes"/>
      <point x="93" y="33"/>
      <point x="143" y="0"/>
      <point x="214" y="0" type="curve" smooth="yes"/>
      <point x="779" y="0" type="line" smooth="yes"/>
      <point x="851" y="0"/>
      <point x="899" y="33"/>
      <point x="899" y="109" type="curve" smooth="yes"/>
      <point x="899" y="261"/>
      <point x="728" y="196"/>
      <point x="728" y="328" type="curve" smooth="yes"/>
      <point x="728" y="1161" type="line"/>
      <point x="858" y="1161" type="line" smooth="yes"/>
      <point x="1016" y="1161"/>
      <point x="1033" y="1111"/>
      <point x="1101" y="984" type="curve" smooth="yes"/>
      <point x="1126" y="937"/>
      <point x="1149" y="907"/>
      <point x="1207" y="907" type="curve" smooth="yes"/>
      <point x="1261" y="907"/>
      <point x="1325" y="940"/>
      <point x="1325" y="1001" type="curve" smooth="yes"/>
      <point x="1325" y="1060"/>
      <point x="1282" y="1179"/>
      <point x="1262" y="1238" type="curve"/>
      <point x="1261" y="1240"/>
      <point x="1257" y="1253"/>
      <point x="1257" y="1254" type="curve"/>
      <point x="1256" y="1256" type="line"/>
      <point x="1256" y="1257" type="line"/>
      <point x="1255" y="1259" type="line"/>
      <point x="1223" y="1348"/>
      <point x="1206" y="1417"/>
      <point x="1094" y="1417" type="curve" smooth="yes"/>
      <point x="1053" y="1417"/>
      <point x="1015" y="1406"/>
      <point x="976" y="1396" type="curve" smooth="yes"/>
      <point x="939" y="1387"/>
      <point x="901" y="1384"/>
      <point x="863" y="1384" type="curve" smooth="yes"/>
      <point x="214" y="1384" type="line" smooth="yes"/>
      <point x="143" y="1384"/>
      <point x="93" y="1351"/>
    </contour>
    <contour>
      <point x="523" y="743" type="line"/>
      <point x="523" y="542" type="line"/>
      <point x="847" y="542" type="line" smooth="yes"/>
      <point x="934" y="542"/>
      <point x="947" y="542"/>
      <point x="1006" y="475" type="curve" smooth="yes"/>
      <point x="1032" y="445"/>
      <point x="1054" y="423"/>
      <point x="1096" y="423" type="curve" smooth="yes"/>
      <point x="1153" y="423"/>
      <point x="1199" y="463"/>
      <point x="1199" y="521" type="curve" smooth="yes"/>
      <point x="1199" y="536"/>
      <point x="1196" y="551"/>
      <point x="1193" y="565" type="curve" smooth="yes"/>
      <point x="1132" y="819" type="line" smooth="yes"/>
      <point x="1120" y="871"/>
      <point x="1087" y="902"/>
      <point x="1032" y="902" type="curve" smooth="yes"/>
      <point x="895" y="902"/>
      <point x="973" y="743"/>
      <point x="833" y="743" type="curve" smooth="yes"/>
    </contour>
  </outline>
</glyph>
<glyph name="H" format="2">
  <advance width="1642"/>
  <unicode hex="0048"/>
  <anchor x="822" y="0" name="bottom"/>
  <anchor x="822" y="692" name="center"/>
  <anchor x="822" y="1384" name="top"/>
  <anchor x="-8" y="1384" name="topleft"/>
  <outline>
    <contour>
      <point x="379" y="770" type="line"/>
      <point x="379" y="548" type="line"/>
      <point x="1179" y="548" type="line"/>
      <point x="1179" y="770" type="line"/>
    </contour>
    <contour>
      <point x="666" y="1057" type="line" smooth="yes"/>
      <point x="666" y="1172"/>
      <point x="800" y="1141"/>
      <point x="800" y="1275" type="curve" smooth="yes"/>
      <point x="800" y="1351"/>
      <point x="752" y="1384"/>
      <point x="680" y="1384" type="curve" smooth="yes"/>
      <point x="160" y="1384" type="line" smooth="yes"/>
      <point x="88" y="1384"/>
      <point x="40" y="1351"/>
      <point x="40" y="1275" type="curve" smooth="yes"/>
      <point x="40" y="1141"/>
      <point x="174" y="1172"/>
      <point x="174" y="1057" type="curve" smooth="yes"/>
      <point x="174" y="327" type="line" smooth="yes"/>
      <point x="174" y="212"/>
      <point x="40" y="243"/>
      <point x="40" y="109" type="curve" smooth="yes"/>
      <point x="40" y="33"/>
      <point x="88" y="0"/>
      <point x="160" y="0" type="curve" smooth="yes"/>
      <point x="680" y="0" type="line" smooth="yes"/>
      <point x="752" y="0"/>
      <point x="800" y="33"/>
      <point x="800" y="109" type="curve" smooth="yes"/>
      <point x="800" y="245"/>
      <point x="666" y="214"/>
      <point x="666" y="327" type="curve" smooth="yes"/>
    </contour>
    <contour>
      <point x="1469" y="1057" type="line" smooth="yes"/>
      <point x="1469" y="1174"/>
      <point x="1603" y="1138"/>
      <point x="1603" y="1275" type="curve" smooth="yes"/>
      <point x="1603" y="1351"/>
      <point x="1555" y="1384"/>
      <point x="1483" y="1384" type="curve" smooth="yes"/>
      <point x="963" y="1384" type="line" smooth="yes"/>
      <point x="891" y="1384"/>
      <point x="844" y="1351"/>
      <point x="844" y="1275" type="curve" smooth="yes"/>
      <point x="844" y="1143"/>
      <point x="977" y="1172"/>
      <point x="977" y="1057" type="curve" smooth="yes"/>
      <point x="977" y="327" type="line" smooth="yes"/>
      <point x="977" y="209"/>
      <point x="844" y="247"/>
      <point x="844" y="109" type="curve" smooth="yes"/>
      <point x="844" y="33"/>
      <point x="891" y="0"/>
      <point x="963" y="0" type="curve" smooth="yes"/>
      <point x="1483" y="0" type="line" smooth="yes"/>
      <point x="1555" y="0"/>
      <point x="1603" y="33"/>
      <point x="1603" y="109" type="curve" smooth="yes"/>
      <point x="1603" y="247"/>
      <point x="1469" y="209"/>
      <point x="1469" y="327" type="curve" smooth="yes"/>
    </contour>
  </outline>
</glyph>
<glyph name="I" format="2">
  <advance width="847"/>
  <unicode hex="0049"/>
  <anchor x="424" y="0" name="bottom"/>
  <anchor x="783" y="10" name="ogonek"/>
  <anchor x="424" y="1384" name="top"/>
  <anchor x="-6" y="1384" name="topleft"/>
  <outline>
    <contour>
      <point x="670" y="1057" type="line" smooth="yes"/>
      <point x="670" y="1172"/>
      <point x="804" y="1137"/>
      <point x="804" y="1275" type="curve" smooth="yes"/>
      <point x="804" y="1351"/>
      <point x="756" y="1384"/>
      <point x="684" y="1384" type="curve" smooth="yes"/>
      <point x="164" y="1384" type="line" smooth="yes"/>
      <point x="92" y="1384"/>
      <point x="44" y="1351"/>
      <point x="44" y="1275" type="curve" smooth="yes"/>
      <point x="44" y="1137"/>
      <point x="178" y="1172"/>
      <point x="178" y="1057" type="curve" smooth="yes"/>
      <point x="178" y="327" type="line" smooth="yes"/>
      <point x="178" y="212"/>
      <point x="44" y="247"/>
      <point x="44" y="109" type="curve" smooth="yes"/>
      <point x="44" y="33"/>
      <point x="92" y="0"/>
      <point x="164" y="0" type="curve" smooth="yes"/>
      <point x="684" y="0" type="line" smooth="yes"/>
      <point x="756" y="0"/>
      <point x="804" y="33"/>
      <point x="804" y="109" type="curve" smooth="yes"/>
      <point x="804" y="249"/>
      <point x="670" y="213"/>
      <point x="670" y="327" type="curve" smooth="yes"/>
    </contour>
  </outline>
</glyph>
<glyph name="J" format="2">
  <advance width="1284"/>
  <unicode hex="004A"/>
  <anchor x="641" y="0" name="bottom"/>
  <anchor x="641" y="1384" name="top"/>
  <outline>
    <contour>
      <point x="1125" y="281" type="curve" smooth="yes"/>
      <point x="1125" y="361"/>
      <point x="1087" y="433"/>
      <point x="1061" y="507" type="curve" smooth="yes"/>
      <point x="1040" y="565"/>
      <point x="1034" y="624" name=".hr01"/>
      <point x="1034" y="685" type="curve" smooth="yes"/>
      <point x="1034" y="1057" type="line" smooth="yes"/>
      <point x="1034" y="1175"/>
      <point x="1191" y="1131"/>
      <point x="1191" y="1275" type="curve" smooth="yes"/>
      <point x="1191" y="1351"/>
      <point x="1141" y="1384"/>
      <point x="1070" y="1384" type="curve" smooth="yes"/>
      <point x="465" y="1384" type="line" smooth="yes"/>
      <point x="393" y="1384"/>
      <point x="343" y="1352"/>
      <point x="343" y="1275" type="curve" smooth="yes"/>
      <point x="343" y="1104"/>
      <point x="542" y="1188"/>
      <point x="542" y="1057" type="curve" smooth="yes"/>
      <point x="542" y="636" type="line" smooth="yes"/>
      <point x="542" y="520"/>
      <point x="577" y="435"/>
      <point x="631" y="335" type="curve" smooth="yes"/>
      <point x="652" y="296"/>
      <point x="676" y="254" name=".hr02"/>
      <point x="676" y="208" type="curve" smooth="yes"/>
      <point x="676" y="151"/>
      <point x="638" y="124"/>
      <point x="584" y="124" type="curve" smooth="yes"/>
      <point x="464" y="124"/>
      <point x="487" y="258"/>
      <point x="487" y="338" type="curve" smooth="yes"/>
      <point x="487" y="469"/>
      <point x="413" y="567"/>
      <point x="276" y="567" type="curve" smooth="yes"/>
      <point x="138" y="567"/>
      <point x="59" y="461"/>
      <point x="59" y="330" type="curve" smooth="yes"/>
      <point x="59" y="44"/>
      <point x="338" y="-36"/>
      <point x="575" y="-36" type="curve" smooth="yes"/>
      <point x="775" y="-36"/>
      <point x="1125" y="19"/>
    </contour>
  </outline>
</glyph>
<glyph name="K" format="2">
  <advance width="1694"/>
  <unicode hex="004B"/>
  <anchor x="857" y="0" name="bottom"/>
  <anchor x="857" y="1384" name="top"/>
  <outline>
    <contour>
      <point x="549" y="576" type="line"/>
      <point x="636" y="380" type="line"/>
      <point x="1354" y="1038" type="line" smooth="yes"/>
      <point x="1398" y="1079"/>
      <point x="1442" y="1120"/>
      <point x="1495" y="1150" type="curve" smooth="yes"/>
      <point x="1546" y="1179"/>
      <point x="1606" y="1207"/>
      <point x="1606" y="1275" type="curve" smooth="yes"/>
      <point x="1606" y="1351"/>
      <point x="1558" y="1384"/>
      <point x="1486" y="1384" type="curve" smooth="yes"/>
      <point x="1073" y="1384" type="line" smooth="yes"/>
      <point x="1001" y="1384"/>
      <point x="953" y="1351"/>
      <point x="953" y="1275" type="curve" smooth="yes"/>
      <point x="953" y="1161"/>
      <point x="1073" y="1151"/>
      <point x="1073" y="1109" type="curve" smooth="yes"/>
      <point x="1073" y="1083"/>
      <point x="1042" y="1055"/>
      <point x="1025" y="1038" type="curve" smooth="yes"/>
    </contour>
    <contour>
      <point x="753" y="677" type="line"/>
      <point x="971" y="315" type="line" smooth="yes"/>
      <point x="981" y="298"/>
      <point x="992" y="281"/>
      <point x="992" y="260" type="curve" smooth="yes"/>
      <point x="992" y="223"/>
      <point x="912" y="198"/>
      <point x="912" y="109" type="curve" smooth="yes"/>
      <point x="912" y="33"/>
      <point x="961" y="0"/>
      <point x="1033" y="0" type="curve" smooth="yes"/>
      <point x="1556" y="0" type="line" smooth="yes"/>
      <point x="1628" y="0"/>
      <point x="1675" y="33"/>
      <point x="1675" y="109" type="curve" smooth="yes"/>
      <point x="1675" y="227"/>
      <point x="1598" y="224"/>
      <point x="1546" y="305" type="curve" smooth="yes"/>
      <point x="1114" y="975" type="line"/>
    </contour>
    <contour>
      <point x="854" y="1275" type="curve" smooth="yes"/>
      <point x="854" y="1351"/>
      <point x="806" y="1384"/>
      <point x="734" y="1384" type="curve" smooth="yes"/>
      <point x="203" y="1384" type="line" smooth="yes"/>
      <point x="131" y="1384"/>
      <point x="83" y="1351"/>
      <point x="83" y="1275" type="curve" smooth="yes"/>
      <point x="83" y="1138"/>
      <point x="223" y="1175"/>
      <point x="223" y="1057" type="curve" smooth="yes"/>
      <point x="223" y="327" type="line" smooth="yes"/>
      <point x="223" y="212"/>
      <point x="83" y="248"/>
      <point x="83" y="109" type="curve" smooth="yes"/>
      <point x="83" y="33"/>
      <point x="131" y="0"/>
      <point x="203" y="0" type="curve" smooth="yes"/>
      <point x="702" y="0" type="line" smooth="yes"/>
      <point x="773" y="0"/>
      <point x="822" y="34"/>
      <point x="822" y="109" type="curve" smooth="yes"/>
      <point x="822" y="233"/>
      <point x="715" y="194"/>
      <point x="715" y="320" type="curve" smooth="yes"/>
      <point x="715" y="1057" type="line" smooth="yes"/>
      <point x="715" y="1173"/>
      <point x="854" y="1138"/>
    </contour>
  </outline>
</glyph>
<glyph name="L" format="2">
  <advance width="1296"/>
  <unicode hex="004C"/>
  <anchor x="651" y="0" name="bottom"/>
  <anchor x="651" y="692" name="center"/>
  <anchor x="651" y="1384" name="top"/>
  <anchor x="1286" y="1384" name="topright"/>
  <outline>
    <contour>
      <point x="833" y="1275" type="curve" smooth="yes"/>
      <point x="833" y="1351"/>
      <point x="785" y="1384"/>
      <point x="713" y="1384" type="curve" smooth="yes"/>
      <point x="187" y="1384" type="line" smooth="yes"/>
      <point x="115" y="1384"/>
      <point x="67" y="1351"/>
      <point x="67" y="1275" type="curve" smooth="yes"/>
      <point x="67" y="1137"/>
      <point x="205" y="1172"/>
      <point x="205" y="1057" type="curve" smooth="yes"/>
      <point x="205" y="327" type="line" smooth="yes"/>
      <point x="205" y="212"/>
      <point x="67" y="247"/>
      <point x="67" y="109" type="curve" smooth="yes"/>
      <point x="67" y="33"/>
      <point x="115" y="0"/>
      <point x="187" y="0" type="curve" smooth="yes"/>
      <point x="821" y="0" type="line" smooth="yes"/>
      <point x="858" y="0"/>
      <point x="894" y="-3"/>
      <point x="930" y="-12" type="curve" smooth="yes"/>
      <point x="970" y="-22"/>
      <point x="1010" y="-35"/>
      <point x="1052" y="-35" type="curve" smooth="yes"/>
      <point x="1158" y="-35"/>
      <point x="1187" y="33"/>
      <point x="1212" y="123" type="curve" smooth="yes"/>
      <point x="1280" y="371" type="line" smooth="yes"/>
      <point x="1284" y="385"/>
      <point x="1286" y="399"/>
      <point x="1286" y="414" type="curve" smooth="yes"/>
      <point x="1286" y="483"/>
      <point x="1234" y="523"/>
      <point x="1168" y="523" type="curve" smooth="yes"/>
      <point x="1005" y="523"/>
      <point x="1077" y="223"/>
      <point x="824" y="223" type="curve" smooth="yes"/>
      <point x="773" y="223" type="line" smooth="yes"/>
      <point x="714" y="223"/>
      <point x="696" y="261"/>
      <point x="696" y="314" type="curve" smooth="yes"/>
      <point x="696" y="1057" type="line" smooth="yes"/>
      <point x="696" y="1172"/>
      <point x="833" y="1139"/>
    </contour>
  </outline>
</glyph>
<glyph name="M" format="2">
  <advance width="1810"/>
  <unicode hex="004D"/>
  <anchor x="905" y="0" name="bottom"/>
  <anchor x="905" y="1384" name="top"/>
  <outline>
    <contour>
      <point x="1020" y="385" type="line"/>
      <point x="749" y="1182" type="line" smooth="yes"/>
      <point x="710" y="1297"/>
      <point x="651" y="1384"/>
      <point x="518" y="1384" type="curve" smooth="yes"/>
      <point x="163" y="1384" type="line" smooth="yes"/>
      <point x="92" y="1384"/>
      <point x="44" y="1350"/>
      <point x="44" y="1275" type="curve" smooth="yes"/>
      <point x="44" y="1146"/>
      <point x="176" y="1167"/>
      <point x="176" y="1067" type="curve" smooth="yes"/>
      <point x="176" y="1058" type="line"/>
      <point x="126" y="326" type="line" smooth="yes"/>
      <point x="118" y="203"/>
      <point x="-5" y="238"/>
      <point x="-5" y="109" type="curve" smooth="yes"/>
      <point x="-5" y="33"/>
      <point x="42" y="0"/>
      <point x="114" y="0" type="curve" smooth="yes"/>
      <point x="338" y="0" type="line" smooth="yes"/>
      <point x="411" y="0"/>
      <point x="458" y="37"/>
      <point x="458" y="113" type="curve" smooth="yes"/>
      <point x="458" y="224"/>
      <point x="347" y="227"/>
      <point x="347" y="318" type="curve" smooth="yes"/>
      <point x="347" y="326" type="line"/>
      <point x="404" y="1168" type="line"/>
      <point x="254" y="1155" type="line"/>
      <point x="587" y="213" type="line" smooth="yes"/>
      <point x="597" y="184"/>
      <point x="610" y="155"/>
      <point x="625" y="128" type="curve" smooth="yes"/>
      <point x="668" y="50"/>
      <point x="700" y="22"/>
      <point x="792" y="22" type="curve" smooth="yes"/>
      <point x="900" y="22"/>
      <point x="941" y="114"/>
      <point x="972" y="202" type="curve" smooth="yes"/>
      <point x="1321" y="1208" type="line"/>
      <point x="1146" y="1206" type="line"/>
      <point x="1210" y="314" type="line"/>
      <point x="1210" y="308" type="line" smooth="yes"/>
      <point x="1210" y="229"/>
      <point x="1077" y="230"/>
      <point x="1077" y="109" type="curve" smooth="yes"/>
      <point x="1077" y="33"/>
      <point x="1124" y="0"/>
      <point x="1196" y="0" type="curve" smooth="yes"/>
      <point x="1696" y="0" type="line" smooth="yes"/>
      <point x="1770" y="0"/>
      <point x="1815" y="41"/>
      <point x="1815" y="116" type="curve" smooth="yes"/>
      <point x="1815" y="249"/>
      <point x="1701" y="195"/>
      <point x="1694" y="327" type="curve" smooth="yes"/>
      <point x="1652" y="1067" type="line"/>
      <point x="1652" y="1072" type="line" smooth="yes"/>
      <point x="1652" y="1157"/>
      <point x="1785" y="1149"/>
      <point x="1785" y="1275" type="curve" smooth="yes"/>
      <point x="1785" y="1351"/>
      <point x="1737" y="1384"/>
      <point x="1665" y="1384" type="curve" smooth="yes"/>
      <point x="1304" y="1384" type="line" smooth="yes"/>
      <point x="1168" y="1384"/>
      <point x="1110" y="1301"/>
      <point x="1071" y="1182" type="curve" smooth="yes"/>
      <point x="805" y="381" type="line"/>
    </contour>
  </outline>
</glyph>
<glyph name="O" format="2">
  <advance width="1594"/>
  <unicode hex="004F"/>
  <anchor x="798" y="0" name="bottom"/>
  <anchor x="798" y="692" name="center"/>
  <anchor x="1421" y="10" name="ogonek"/>
  <anchor x="798" y="1384" name="top"/>
  <anchor x="38" y="1384" name="topleft"/>
  <anchor x="1558" y="1384" name="topright"/>
  <outline>
    <contour>
      <point x="798" y="1425" type="curve" smooth="yes"/>
      <point x="372" y="1425"/>
      <point x="70" y="1130"/>
      <point x="70" y="702" type="curve" smooth="yes"/>
      <point x="70" y="255"/>
      <point x="346" y="-40"/>
      <point x="798" y="-40" type="curve" smooth="yes"/>
      <point x="1243" y="-40"/>
      <point x="1524" y="269"/>
      <point x="1524" y="707" type="curve" smooth="yes"/>
      <point x="1524" y="1138"/>
      <point x="1226" y="1425"/>
    </contour>
    <contour>
      <point x="1018" y="398" type="curve" smooth="yes"/>
      <point x="1018" y="327"/>
      <point x="1017" y="175"/>
      <point x="915" y="175" type="curve" smooth="yes"/>
      <point x="802" y="175"/>
      <point x="698" y="408"/>
      <point x="665" y="499" type="curve" smooth="yes"/>
      <point x="608" y="655"/>
      <point x="581" y="821"/>
      <point x="581" y="987" type="curve" smooth="yes"/>
      <point x="581" y="1058"/>
      <point x="582" y="1214"/>
      <point x="684" y="1214" type="curve" smooth="yes"/>
      <point x="844" y="1214"/>
      <point x="961" y="833"/>
      <point x="987" y="705" type="curve" smooth="yes"/>
      <point x="1008" y="604"/>
      <point x="1018" y="501"/>
    </contour>
  </outline>
</glyph>
<glyph name="P" format="2">
  <advance width="1401"/>
  <unicode hex="0050"/>
  <anchor x="704" y="0" name="bottom"/>
  <anchor x="704" y="1384" name="top"/>
  <outline>
    <contour>
      <point x="1388" y="860" type="curve" smooth="yes"/>
      <point x="1388" y="1253"/>
      <point x="1011" y="1384"/>
      <point x="678" y="1384" type="curve" smooth="yes"/>
      <point x="158" y="1384" type="line" smooth="yes"/>
      <point x="87" y="1384"/>
      <point x="39" y="1350"/>
      <point x="39" y="1275" type="curve" smooth="yes"/>
      <point x="39" y="1142"/>
      <point x="173" y="1171"/>
      <point x="173" y="1057" type="curve" smooth="yes"/>
      <point x="173" y="327" type="line" smooth="yes"/>
      <point x="173" y="214"/>
      <point x="39" y="245"/>
      <point x="39" y="109" type="curve" smooth="yes"/>
      <point x="39" y="34"/>
      <point x="87" y="0"/>
      <point x="158" y="0" type="curve" smooth="yes"/>
      <point x="706" y="0" type="line" smooth="yes"/>
      <point x="778" y="0"/>
      <point x="825" y="33"/>
      <point x="825" y="109" type="curve" smooth="yes"/>
      <point x="825" y="251"/>
      <point x="665" y="200"/>
      <point x="665" y="327" type="curve" smooth="yes"/>
      <point x="665" y="1162" type="line"/>
      <point x="656" y="1162" type="line"/>
      <point x="819" y="1162"/>
      <point x="915" y="1029"/>
      <point x="915" y="875" type="curve" smooth="yes"/>
      <point x="915" y="733"/>
      <point x="841" y="611"/>
      <point x="687" y="611" type="curve" smooth="yes"/>
      <point x="600" y="611"/>
      <point x="553" y="636"/>
      <point x="482" y="682" type="curve"/>
      <point x="463" y="508" type="line"/>
      <point x="573" y="444"/>
      <point x="701" y="413"/>
      <point x="828" y="413" type="curve" smooth="yes"/>
      <point x="1115" y="413"/>
      <point x="1388" y="533"/>
    </contour>
  </outline>
</glyph>
<glyph name="Q" format="2">
  <advance width="1600"/>
  <unicode hex="0051"/>
  <anchor x="804" y="0" name="bottom"/>
  <anchor x="804" y="1384" name="top"/>
  <outline>
    <contour>
      <point x="804" y="1425" type="curve" smooth="yes"/>
      <point x="377" y="1425"/>
      <point x="70" y="1133"/>
      <point x="70" y="702" type="curve" smooth="yes"/>
      <point x="70" y="252"/>
      <point x="351" y="-40"/>
      <point x="804" y="-40" type="curve" smooth="yes"/>
      <point x="1249" y="-40"/>
      <point x="1536" y="267"/>
      <point x="1536" y="707" type="curve" smooth="yes"/>
      <point x="1536" y="1141"/>
      <point x="1233" y="1425"/>
    </contour>
    <contour>
      <point x="1030" y="406" type="curve" smooth="yes"/>
      <point x="1030" y="330"/>
      <point x="1029" y="175"/>
      <point x="921" y="175" type="curve" smooth="yes"/>
      <point x="807" y="175"/>
      <point x="700" y="407"/>
      <point x="666" y="499" type="curve" smooth="yes"/>
      <point x="609" y="652"/>
      <point x="581" y="815"/>
      <point x="581" y="979" type="curve" smooth="yes"/>
      <point x="581" y="1055"/>
      <point x="582" y="1214"/>
      <point x="690" y="1214" type="curve" smooth="yes"/>
      <point x="852" y="1214"/>
      <point x="972" y="835"/>
      <point x="999" y="705" type="curve" smooth="yes"/>
      <point x="1020" y="607"/>
      <point x="1030" y="507"/>
    </contour>
    <contour>
      <point x="1363" y="-285" type="curve" smooth="yes"/>
      <point x="1492" y="-285"/>
      <point x="1521" y="-247"/>
      <point x="1567" y="-133" type="curve" smooth="yes"/>
      <point x="1578" y="-107"/>
      <point x="1587" y="-80"/>
      <point x="1587" y="-52" type="curve" smooth="yes"/>
      <point x="1587" y="-14"/>
      <point x="1556" y="13"/>
      <point x="1519" y="13" type="curve" smooth="yes"/>
      <point x="1467" y="13"/>
      <point x="1416" y="-7"/>
      <point x="1364" y="-7" type="curve" smooth="yes"/>
      <point x="1122" y="-7"/>
      <point x="1047" y="160"/>
      <point x="983" y="361" type="curve" smooth="yes"/>
      <point x="966" y="415"/>
      <point x="949" y="473"/>
      <point x="881" y="473" type="curve" smooth="yes"/>
      <point x="821" y="473"/>
      <point x="800" y="417"/>
      <point x="800" y="366" type="curve" smooth="yes"/>
      <point x="800" y="355"/>
      <point x="801" y="343"/>
      <point x="803" y="332" type="curve" smooth="yes"/>
      <point x="854" y="41"/>
      <point x="1027" y="-285"/>
    </contour>
  </outline>
</glyph>
<glyph name="R" format="2">
  <advance width="1590"/>
  <unicode hex="0052"/>
  <anchor x="806" y="0" name="bottom"/>
  <anchor x="806" y="1384" name="top"/>
  <outline>
    <contour>
      <point x="1476" y="899" type="curve" smooth="yes"/>
      <point x="1476" y="1282"/>
      <point x="1052" y="1384"/>
      <point x="744" y="1384" type="curve" smooth="yes"/>
      <point x="187" y="1384" type="line" smooth="yes"/>
      <point x="115" y="1384"/>
      <point x="68" y="1351"/>
      <point x="68" y="1275" type="curve" smooth="yes"/>
      <point x="68" y="1139"/>
      <point x="205" y="1175"/>
      <point x="205" y="1057" type="curve" smooth="yes"/>
      <point x="205" y="327" type="line" smooth="yes"/>
      <point x="205" y="209"/>
      <point x="68" y="247"/>
      <point x="68" y="109" type="curve" smooth="yes"/>
      <point x="68" y="33"/>
      <point x="115" y="0"/>
      <point x="187" y="0" type="curve" smooth="yes"/>
      <point x="677" y="0" type="line" smooth="yes"/>
      <point x="750" y="0"/>
      <point x="797" y="32"/>
      <point x="797" y="109" type="curve" smooth="yes"/>
      <point x="797" y="179"/>
      <point x="761" y="206"/>
      <point x="721" y="256" type="curve" smooth="yes"/>
      <point x="697" y="286"/>
      <point x="697" y="289"/>
      <point x="697" y="327" type="curve" smooth="yes"/>
      <point x="697" y="1183" type="line"/>
      <point x="714" y="1183" type="line" smooth="yes"/>
      <point x="874" y="1183"/>
      <point x="975" y="1058"/>
      <point x="975" y="904" type="curve" smooth="yes"/>
      <point x="975" y="752"/>
      <point x="909" y="651"/>
      <point x="747" y="651" type="curve" smooth="yes"/>
      <point x="685" y="651"/>
      <point x="625" y="658"/>
      <point x="573" y="696" type="curve"/>
      <point x="579" y="519" type="line"/>
      <point x="654" y="483"/>
      <point x="738" y="464"/>
      <point x="821" y="464" type="curve" smooth="yes"/>
      <point x="898" y="464"/>
      <point x="971" y="492"/>
      <point x="1042" y="518" type="curve" smooth="yes"/>
      <point x="1082" y="533"/>
      <point x="1124" y="543"/>
      <point x="1165" y="555" type="curve" smooth="yes"/>
      <point x="1338" y="605"/>
      <point x="1476" y="702"/>
    </contour>
    <contour>
      <point x="805" y="550" type="line"/>
      <point x="828" y="499"/>
      <point x="937" y="265"/>
      <point x="937" y="227" type="curve" smooth="yes"/>
      <point x="937" y="214"/>
      <point x="931" y="201"/>
      <point x="930" y="188" type="curve"/>
      <point x="911" y="166"/>
      <point x="898" y="138"/>
      <point x="898" y="109" type="curve" smooth="yes"/>
      <point x="898" y="34"/>
      <point x="940" y="0"/>
      <point x="1013" y="0" type="curve" smooth="yes"/>
      <point x="1441" y="0" type="line" smooth="yes"/>
      <point x="1513" y="0"/>
      <point x="1561" y="33"/>
      <point x="1561" y="109" type="curve" smooth="yes"/>
      <point x="1561" y="218"/>
      <point x="1472" y="224"/>
      <point x="1429" y="306" type="curve" smooth="yes"/>
      <point x="1272" y="607" type="line"/>
    </contour>
  </outline>
</glyph>
<glyph name="T" format="2">
  <advance width="1435"/>
  <unicode hex="0054"/>
  <anchor x="719" y="0" name="bottom"/>
  <anchor x="719" y="692" name="center"/>
  <anchor x="719" y="1384" name="top"/>
  <outline>
    <contour>
      <point x="479" y="1384" type="line" smooth="yes"/>
      <point x="439" y="1384"/>
      <point x="400" y="1389"/>
      <point x="361" y="1397" type="curve" smooth="yes"/>
      <point x="324" y="1405"/>
      <point x="287" y="1417"/>
      <point x="249" y="1417" type="curve" smooth="yes"/>
      <point x="142" y="1417"/>
      <point x="110" y="1352"/>
      <point x="88" y="1259" type="curve" smooth="yes"/>
      <point x="34" y="1030" type="line" smooth="yes"/>
      <point x="31" y="1017"/>
      <point x="29" y="1003"/>
      <point x="29" y="989" type="curve" smooth="yes"/>
      <point x="29" y="918"/>
      <point x="78" y="877"/>
      <point x="147" y="877" type="curve" smooth="yes"/>
      <point x="292" y="877"/>
      <point x="249" y="1148"/>
      <point x="444" y="1148" type="curve" smooth="yes"/>
      <point x="473" y="1148" type="line"/>
      <point x="473" y="327" type="line" smooth="yes"/>
      <point x="473" y="215"/>
      <point x="341" y="239"/>
      <point x="341" y="110" type="curve" smooth="yes"/>
      <point x="341" y="34"/>
      <point x="389" y="0"/>
      <point x="461" y="0" type="curve" smooth="yes"/>
      <point x="976" y="0" type="line" smooth="yes"/>
      <point x="1049" y="0"/>
      <point x="1096" y="32"/>
      <point x="1096" y="109" type="curve" smooth="yes"/>
      <point x="1096" y="240"/>
      <point x="965" y="216"/>
      <point x="965" y="327" type="curve" smooth="yes"/>
      <point x="965" y="1148" type="line"/>
      <point x="994" y="1148" type="line" smooth="yes"/>
      <point x="1189" y="1148"/>
      <point x="1144" y="878"/>
      <point x="1292" y="878" type="curve" smooth="yes"/>
      <point x="1360" y="878"/>
      <point x="1409" y="919"/>
      <point x="1409" y="989" type="curve" smooth="yes"/>
      <point x="1409" y="1003"/>
      <point x="1407" y="1017"/>
      <point x="1404" y="1030" type="curve" smooth="yes"/>
      <point x="1349" y="1259" type="line" smooth="yes"/>
      <point x="1327" y="1351"/>
      <point x="1296" y="1417"/>
      <point x="1189" y="1417" type="curve" smooth="yes"/>
      <point x="1148" y="1417"/>
      <point x="1106" y="1404"/>
      <point x="1066" y="1395" type="curve" smooth="yes"/>
      <point x="1031" y="1387"/>
      <point x="995" y="1384"/>
      <point x="959" y="1384" type="curve" smooth="yes"/>
    </contour>
  </outline>
</glyph>
<glyph name="U" format="2">
  <advance width="1679"/>
  <unicode hex="0055"/>
  <anchor x="840" y="0" name="bottom"/>
  <anchor x="1509" y="10" name="ogonek"/>
  <anchor x="840" y="1384" name="top"/>
  <anchor x="1654" y="1384" name="topright"/>
  <outline>
    <contour>
      <point x="1269" y="430" type="curve" smooth="yes"/>
      <point x="1269" y="263"/>
      <point x="1123" y="210"/>
      <point x="980" y="210" type="curve" smooth="yes"/>
      <point x="803" y="210"/>
      <point x="698" y="285" name=".hr01"/>
      <point x="698" y="471" type="curve" smooth="yes"/>
      <point x="698" y="560"/>
      <point x="705" y="649"/>
      <point x="711" y="738" type="curve" smooth="yes"/>
      <point x="733" y="1057" type="line" smooth="yes"/>
      <point x="736" y="1105"/>
      <point x="743" y="1121"/>
      <point x="787" y="1142" type="curve" smooth="yes"/>
      <point x="857" y="1176"/>
      <point x="922" y="1174"/>
      <point x="922" y="1273" type="curve" smooth="yes"/>
      <point x="922" y="1343"/>
      <point x="876" y="1384"/>
      <point x="807" y="1384" type="curve" smooth="yes"/>
      <point x="155" y="1384" type="line" smooth="yes"/>
      <point x="86" y="1384"/>
      <point x="41" y="1343"/>
      <point x="41" y="1273" type="curve" smooth="yes"/>
      <point x="41" y="1112"/>
      <point x="241" y="1180"/>
      <point x="241" y="1075" type="curve" smooth="yes"/>
      <point x="241" y="1069" type="line"/>
      <point x="212" y="640" type="line" smooth="yes"/>
      <point x="207" y="568"/>
      <point x="197" y="497"/>
      <point x="197" y="425" type="curve" smooth="yes"/>
      <point x="197" y="67"/>
      <point x="504" y="-40"/>
      <point x="810" y="-40" type="curve" smooth="yes"/>
      <point x="1104" y="-40"/>
      <point x="1505" y="46"/>
      <point x="1505" y="414" type="curve" smooth="yes"/>
      <point x="1505" y="482"/>
      <point x="1502" y="551"/>
      <point x="1495" y="619" type="curve" smooth="yes"/>
      <point x="1451" y="1043" type="line"/>
      <point x="1451" y="1045"/>
      <point x="1451" y="1047"/>
      <point x="1451" y="1049" type="curve" smooth="yes"/>
      <point x="1451" y="1183"/>
      <point x="1652" y="1117"/>
      <point x="1652" y="1273" type="curve" smooth="yes"/>
      <point x="1652" y="1343"/>
      <point x="1607" y="1384"/>
      <point x="1538" y="1384" type="curve" smooth="yes"/>
      <point x="1154" y="1384" type="line" smooth="yes"/>
      <point x="1085" y="1384"/>
      <point x="1040" y="1343"/>
      <point x="1040" y="1273" type="curve" smooth="yes"/>
      <point x="1040" y="1194"/>
      <point x="1074" y="1179"/>
      <point x="1141" y="1154" type="curve" smooth="yes"/>
      <point x="1203" y="1131"/>
      <point x="1223" y="1128"/>
      <point x="1228" y="1056" type="curve" smooth="yes"/>
      <point x="1260" y="617" type="line" smooth="yes"/>
      <point x="1265" y="555"/>
      <point x="1269" y="493"/>
    </contour>
  </outline>
</glyph>
<glyph name="V" format="2">
  <advance width="1644"/>
  <unicode hex="0056"/>
  <anchor x="824" y="0" name="bottom"/>
  <anchor x="824" y="1384" name="top"/>
  <outline>
    <contour>
      <point x="1065" y="1275" type="curve" smooth="yes"/>
      <point x="1065" y="1161"/>
      <point x="1205" y="1175"/>
      <point x="1205" y="1093" type="curve" smooth="yes"/>
      <point x="1205" y="1078"/>
      <point x="1201" y="1062"/>
      <point x="1196" y="1048" type="curve" smooth="yes"/>
      <point x="867" y="154" type="line"/>
      <point x="996" y="304" type="line"/>
      <point x="744" y="1012" type="line" smooth="yes"/>
      <point x="736" y="1035"/>
      <point x="730" y="1059"/>
      <point x="730" y="1083" type="curve" smooth="yes"/>
      <point x="730" y="1180"/>
      <point x="865" y="1159"/>
      <point x="865" y="1275" type="curve" smooth="yes"/>
      <point x="865" y="1352"/>
      <point x="816" y="1384"/>
      <point x="744" y="1384" type="curve" smooth="yes"/>
      <point x="170" y="1384" type="line" smooth="yes"/>
      <point x="98" y="1384"/>
      <point x="48" y="1352"/>
      <point x="48" y="1275" type="curve" smooth="yes"/>
      <point x="48" y="1201"/>
      <point x="77" y="1188"/>
      <point x="133" y="1151" type="curve" smooth="yes"/>
      <point x="185" y="1116"/>
      <point x="196" y="1095"/>
      <point x="217" y="1038" type="curve" smooth="yes"/>
      <point x="513" y="235" type="line" smooth="yes"/>
      <point x="529" y="192"/>
      <point x="545" y="148"/>
      <point x="545" y="101" type="curve" smooth="yes"/>
      <point x="545" y="44"/>
      <point x="574" y="0"/>
      <point x="635" y="0" type="curve" smooth="yes"/>
      <point x="1014" y="0" type="line" smooth="yes"/>
      <point x="1071" y="0"/>
      <point x="1108" y="40"/>
      <point x="1108" y="96" type="curve" smooth="yes"/>
      <point x="1108" y="159"/>
      <point x="1121" y="204"/>
      <point x="1143" y="262" type="curve" smooth="yes"/>
      <point x="1424" y="1017" type="line" smooth="yes"/>
      <point x="1444" y="1071"/>
      <point x="1465" y="1123"/>
      <point x="1517" y="1154" type="curve" smooth="yes"/>
      <point x="1571" y="1186"/>
      <point x="1617" y="1201"/>
      <point x="1617" y="1275" type="curve" smooth="yes"/>
      <point x="1617" y="1351"/>
      <point x="1568" y="1384"/>
      <point x="1496" y="1384" type="curve" smooth="yes"/>
      <point x="1187" y="1384" type="line" smooth="yes"/>
      <point x="1115" y="1384"/>
      <point x="1065" y="1352"/>
    </contour>
  </outline>
</glyph>
<glyph name="W" format="2">
  <advance width="2129"/>
  <unicode hex="0057"/>
  <anchor x="1064" y="0" name="bottom"/>
  <anchor x="1064" y="1384" name="top"/>
  <outline>
    <contour>
      <point x="974" y="1078" type="line"/>
      <point x="677" y="149" type="line"/>
      <point x="871" y="294" type="line"/>
      <point x="654" y="1012" type="line" smooth="yes"/>
      <point x="646" y="1038"/>
      <point x="640" y="1064"/>
      <point x="640" y="1091" type="curve" smooth="yes"/>
      <point x="640" y="1189"/>
      <point x="736" y="1169"/>
      <point x="736" y="1275" type="curve" smooth="yes"/>
      <point x="736" y="1352"/>
      <point x="689" y="1384"/>
      <point x="616" y="1384" type="curve" smooth="yes"/>
      <point x="112" y="1384" type="line" smooth="yes"/>
      <point x="40" y="1384"/>
      <point x="-8" y="1351"/>
      <point x="-8" y="1275" type="curve" smooth="yes"/>
      <point x="-8" y="1209"/>
      <point x="19" y="1188"/>
      <point x="68" y="1151" type="curve" smooth="yes"/>
      <point x="118" y="1112"/>
      <point x="130" y="1099"/>
      <point x="149" y="1038" type="curve" smooth="yes"/>
      <point x="405" y="224" type="line" smooth="yes"/>
      <point x="418" y="184"/>
      <point x="425" y="143"/>
      <point x="425" y="101" type="curve" smooth="yes"/>
      <point x="425" y="47"/>
      <point x="453" y="0"/>
      <point x="512" y="0" type="curve" smooth="yes"/>
      <point x="835" y="0" type="line" smooth="yes"/>
      <point x="921" y="0"/>
      <point x="924" y="76"/>
      <point x="924" y="142" type="curve" smooth="yes"/>
      <point x="924" y="190"/>
      <point x="934" y="237"/>
      <point x="949" y="283" type="curve" smooth="yes"/>
      <point x="1197" y="1052" type="line"/>
    </contour>
    <contour>
      <point x="1675" y="1275" type="curve" smooth="yes"/>
      <point x="1675" y="1187"/>
      <point x="1770" y="1169"/>
      <point x="1770" y="1100" type="curve" smooth="yes"/>
      <point x="1770" y="1082"/>
      <point x="1766" y="1065"/>
      <point x="1761" y="1048" type="curve" smooth="yes"/>
      <point x="1499" y="149" type="line"/>
      <point x="1675" y="294" type="line"/>
      <point x="1466" y="1012" type="line" smooth="yes"/>
      <point x="1459" y="1037"/>
      <point x="1453" y="1064"/>
      <point x="1453" y="1090" type="curve" smooth="yes"/>
      <point x="1453" y="1186"/>
      <point x="1553" y="1170"/>
      <point x="1553" y="1275" type="curve" smooth="yes"/>
      <point x="1553" y="1351"/>
      <point x="1505" y="1384"/>
      <point x="1433" y="1384" type="curve" smooth="yes"/>
      <point x="967" y="1384" type="line" smooth="yes"/>
      <point x="896" y="1384"/>
      <point x="847" y="1350"/>
      <point x="847" y="1275" type="curve" smooth="yes"/>
      <point x="847" y="1223"/>
      <point x="864" y="1206"/>
      <point x="904" y="1177" type="curve" smooth="yes"/>
      <point x="968" y="1130"/>
      <point x="961" y="1108"/>
      <point x="982" y="1038" type="curve" smooth="yes"/>
      <point x="1226" y="224" type="line" smooth="yes"/>
      <point x="1238" y="184"/>
      <point x="1247" y="143"/>
      <point x="1247" y="101" type="curve" smooth="yes"/>
      <point x="1247" y="46"/>
      <point x="1276" y="0"/>
      <point x="1335" y="0" type="curve" smooth="yes"/>
      <point x="1657" y="0" type="line" smooth="yes"/>
      <point x="1717" y="0"/>
      <point x="1746" y="45"/>
      <point x="1746" y="101" type="curve" smooth="yes"/>
      <point x="1746" y="162"/>
      <point x="1755" y="224"/>
      <point x="1772" y="283" type="curve" smooth="yes"/>
      <point x="1984" y="1017" type="line" smooth="yes"/>
      <point x="2007" y="1097"/>
      <point x="2016" y="1117"/>
      <point x="2086" y="1166" type="curve" smooth="yes"/>
      <point x="2131" y="1197"/>
      <point x="2160" y="1215"/>
      <point x="2160" y="1275" type="curve" smooth="yes"/>
      <point x="2160" y="1351"/>
      <point x="2113" y="1384"/>
      <point x="2041" y="1384" type="curve" smooth="yes"/>
      <point x="1795" y="1384" type="line" smooth="yes"/>
      <point x="1723" y="1384"/>
      <point x="1675" y="1351"/>
    </contour>
  </outline>
  <guideline angle="0" x="0" y="505"/>
</glyph>
<glyph name="X" format="2">
  <advance width="1628"/>
  <unicode hex="0058"/>
  <anchor x="816" y="0" name="bottom"/>
  <anchor x="816" y="1384" name="top"/>
  <outline>
    <contour>
      <point x="743" y="1124" type="curve" smooth="yes"/>
      <point x="743" y="1161"/>
      <point x="847" y="1162"/>
      <point x="847" y="1275" type="curve" smooth="yes"/>
      <point x="847" y="1352"/>
      <point x="797" y="1384"/>
      <point x="725" y="1384" type="curve" smooth="yes"/>
      <point x="174" y="1384" type="line" smooth="yes"/>
      <point x="103" y="1384"/>
      <point x="52" y="1351"/>
      <point x="52" y="1275" type="curve" smooth="yes"/>
      <point x="52" y="1208"/>
      <point x="76" y="1195"/>
      <point x="126" y="1159" type="curve" smooth="yes"/>
      <point x="158" y="1136"/>
      <point x="187" y="1108"/>
      <point x="212" y="1078" type="curve" smooth="yes"/>
      <point x="808" y="367" type="line" smooth="yes"/>
      <point x="827" y="345"/>
      <point x="876" y="301"/>
      <point x="876" y="272" type="curve" smooth="yes"/>
      <point x="876" y="224"/>
      <point x="762" y="224"/>
      <point x="762" y="109" type="curve" smooth="yes"/>
      <point x="762" y="33"/>
      <point x="813" y="0"/>
      <point x="884" y="0" type="curve" smooth="yes"/>
      <point x="1460" y="0" type="line" smooth="yes"/>
      <point x="1532" y="0"/>
      <point x="1581" y="33"/>
      <point x="1581" y="109" type="curve" smooth="yes"/>
      <point x="1581" y="167"/>
      <point x="1551" y="195"/>
      <point x="1505" y="225" type="curve" smooth="yes"/>
      <point x="1448" y="262"/>
      <point x="1429" y="279"/>
      <point x="1386" y="331" type="curve" smooth="yes"/>
      <point x="779" y="1058" type="line" smooth="yes"/>
      <point x="765" y="1075"/>
      <point x="743" y="1101"/>
    </contour>
    <contour>
      <point x="970" y="638" type="line"/>
      <point x="1300" y="1036" type="line" smooth="yes"/>
      <point x="1334" y="1077"/>
      <point x="1369" y="1116"/>
      <point x="1411" y="1148" type="curve" smooth="yes"/>
      <point x="1456" y="1182"/>
      <point x="1512" y="1214"/>
      <point x="1512" y="1279" type="curve" smooth="yes"/>
      <point x="1512" y="1356"/>
      <point x="1460" y="1384"/>
      <point x="1390" y="1384" type="curve" smooth="yes"/>
      <point x="1121" y="1384" type="line" smooth="yes"/>
      <point x="1048" y="1384"/>
      <point x="1006" y="1350"/>
      <point x="1006" y="1275" type="curve" smooth="yes"/>
      <point x="1006" y="1173"/>
      <point x="1104" y="1157"/>
      <point x="1104" y="1134" type="curve" smooth="yes"/>
      <point x="1104" y="1120"/>
      <point x="800" y="751"/>
      <point x="762" y="705" type="curve"/>
    </contour>
    <contour>
      <point x="604" y="725" type="line"/>
      <point x="284" y="365" type="line" smooth="yes"/>
      <point x="239" y="314"/>
      <point x="191" y="264"/>
      <point x="135" y="225" type="curve" smooth="yes"/>
      <point x="89" y="193"/>
      <point x="53" y="171"/>
      <point x="53" y="109" type="curve" smooth="yes"/>
      <point x="53" y="33"/>
      <point x="102" y="0"/>
      <point x="174" y="0" type="curve" smooth="yes"/>
      <point x="442" y="0" type="line" smooth="yes"/>
      <point x="513" y="0"/>
      <point x="557" y="36"/>
      <point x="557" y="109" type="curve" smooth="yes"/>
      <point x="557" y="203"/>
      <point x="470" y="209"/>
      <point x="470" y="238" type="curve" smooth="yes"/>
      <point x="470" y="256"/>
      <point x="501" y="290"/>
      <point x="513" y="304" type="curve" smooth="yes"/>
      <point x="811" y="644" type="line"/>
    </contour>
  </outline>
</glyph>
<glyph name="Y" format="2">
  <advance width="1597"/>
  <unicode hex="0059"/>
  <anchor x="799" y="0" name="bottom"/>
  <anchor x="799" y="1384" name="top"/>
  <anchor x="24" y="1384" name="topleft"/>
  <outline>
    <contour>
      <point x="1005" y="391" type="line"/>
      <point x="1396" y="1048" type="line" smooth="yes"/>
      <point x="1425" y="1097"/>
      <point x="1444" y="1125"/>
      <point x="1490" y="1160" type="curve" smooth="yes"/>
      <point x="1535" y="1195"/>
      <point x="1562" y="1213"/>
      <point x="1562" y="1275" type="curve" smooth="yes"/>
      <point x="1562" y="1352"/>
      <point x="1512" y="1384"/>
      <point x="1440" y="1384" type="curve" smooth="yes"/>
      <point x="1161" y="1384" type="line" smooth="yes"/>
      <point x="1089" y="1384"/>
      <point x="1039" y="1352"/>
      <point x="1039" y="1275" type="curve" smooth="yes"/>
      <point x="1039" y="1148"/>
      <point x="1167" y="1165"/>
      <point x="1167" y="1103" type="curve" smooth="yes"/>
      <point x="1167" y="1084"/>
      <point x="1156" y="1064"/>
      <point x="1147" y="1048" type="curve" smooth="yes"/>
      <point x="807" y="455" type="line"/>
      <point x="1002" y="561" type="line"/>
      <point x="739" y="1012" type="line" smooth="yes"/>
      <point x="726" y="1035"/>
      <point x="708" y="1067"/>
      <point x="708" y="1094" type="curve" smooth="yes"/>
      <point x="708" y="1166"/>
      <point x="849" y="1140"/>
      <point x="849" y="1275" type="curve" smooth="yes"/>
      <point x="849" y="1352"/>
      <point x="799" y="1384"/>
      <point x="727" y="1384" type="curve" smooth="yes"/>
      <point x="158" y="1384" type="line" smooth="yes"/>
      <point x="86" y="1384"/>
      <point x="35" y="1352"/>
      <point x="35" y="1275" type="curve" smooth="yes"/>
      <point x="35" y="1197"/>
      <point x="68" y="1187"/>
      <point x="126" y="1150" type="curve" smooth="yes"/>
      <point x="181" y="1115"/>
      <point x="182" y="1089"/>
      <point x="213" y="1038" type="curve" smooth="yes"/>
      <point x="639" y="332" type="line"/>
    </contour>
    <contour>
      <point x="562" y="527" type="line"/>
      <point x="562" y="327" type="line" smooth="yes"/>
      <point x="562" y="216"/>
      <point x="398" y="249"/>
      <point x="398" y="109" type="curve" smooth="yes"/>
      <point x="398" y="33"/>
      <point x="449" y="0"/>
      <point x="520" y="0" type="curve" smooth="yes"/>
      <point x="1095" y="0" type="line" smooth="yes"/>
      <point x="1167" y="0"/>
      <point x="1217" y="32"/>
      <point x="1217" y="109" type="curve" smooth="yes"/>
      <point x="1217" y="253"/>
      <point x="1054" y="215"/>
      <point x="1054" y="327" type="curve" smooth="yes"/>
      <point x="1054" y="527" type="line"/>
    </contour>
  </outline>
</glyph>
<glyph name="bracketleft" format="2">
  <advance width="1021"/>
  <unicode hex="005B"/>
  <outline>
    <contour>
      <point x="547" y="1151" type="line" smooth="yes"/>
      <point x="547" y="1242"/>
      <point x="589" y="1266"/>
      <point x="674" y="1266" type="curve" smooth="yes"/>
      <point x="887" y="1266" type="line" smooth="yes"/>
      <point x="953" y="1266"/>
      <point x="1004" y="1291"/>
      <point x="1004" y="1364" type="curve" smooth="yes"/>
      <point x="1004" y="1433"/>
      <point x="949" y="1462"/>
      <point x="887" y="1462" type="curve" smooth="yes"/>
      <point x="332" y="1462" type="line" smooth="yes"/>
      <point x="229" y="1462"/>
      <point x="191" y="1417"/>
      <point x="191" y="1316" type="curve" smooth="yes"/>
      <point x="191" y="-107" type="line" smooth="yes"/>
      <point x="191" y="-207"/>
      <point x="230" y="-252"/>
      <point x="332" y="-252" type="curve" smooth="yes"/>
      <point x="887" y="-252" type="line" smooth="yes"/>
      <point x="949" y="-252"/>
      <point x="1004" y="-224"/>
      <point x="1004" y="-155" type="curve" smooth="yes"/>
      <point x="1004" y="-82"/>
      <point x="953" y="-57"/>
      <point x="887" y="-57" type="curve" smooth="yes"/>
      <point x="674" y="-57" type="line" smooth="yes"/>
      <point x="588" y="-57"/>
      <point x="547" y="-32"/>
      <point x="547" y="59" type="curve" smooth="yes"/>
    </contour>
  </outline>
</glyph>
<glyph name="backslash" format="2">
  <advance width="966"/>
  <unicode hex="005C"/>
  <outline>
    <contour>
      <point x="816" y="-314" type="curve" smooth="yes"/>
      <point x="886" y="-314"/>
      <point x="960" y="-258"/>
      <point x="960" y="-184" type="curve" smooth="yes"/>
      <point x="960" y="-115"/>
      <point x="897" y="-6"/>
      <point x="863" y="55" type="curve" smooth="yes"/>
      <point x="756" y="249"/>
      <point x="645" y="441"/>
      <point x="557" y="645" type="curve" smooth="yes"/>
      <point x="484" y="814"/>
      <point x="425" y="990"/>
      <point x="365" y="1164" type="curve" smooth="yes"/>
      <point x="328" y="1271" type="line" smooth="yes"/>
      <point x="301" y="1350"/>
      <point x="253" y="1519"/>
      <point x="149" y="1519" type="curve" smooth="yes"/>
      <point x="79" y="1519"/>
      <point x="6" y="1465"/>
      <point x="6" y="1391" type="curve" smooth="yes"/>
      <point x="6" y="1315"/>
      <point x="132" y="1078"/>
      <point x="172" y="999" type="curve" smooth="yes"/>
      <point x="245" y="855"/>
      <point x="314" y="709"/>
      <point x="376" y="559" type="curve" smooth="yes"/>
      <point x="641" y="-85" type="line" smooth="yes"/>
      <point x="660" y="-130"/>
      <point x="679" y="-176"/>
      <point x="700" y="-220" type="curve" smooth="yes"/>
      <point x="723" y="-269"/>
      <point x="757" y="-314"/>
    </contour>
  </outline>
</glyph>
<glyph name="bracketright" format="2">
  <advance width="1021"/>
  <unicode hex="005D"/>
  <outline>
    <contour>
      <point x="484" y="59" type="line" smooth="yes"/>
      <point x="484" y="-32"/>
      <point x="443" y="-57"/>
      <point x="357" y="-57" type="curve" smooth="yes"/>
      <point x="145" y="-57" type="line" smooth="yes"/>
      <point x="79" y="-57"/>
      <point x="28" y="-82"/>
      <point x="28" y="-155" type="curve" smooth="yes"/>
      <point x="28" y="-224"/>
      <point x="83" y="-252"/>
      <point x="145" y="-252" type="curve" smooth="yes"/>
      <point x="699" y="-252" type="line" smooth="yes"/>
      <point x="802" y="-252"/>
      <point x="841" y="-208"/>
      <point x="841" y="-107" type="curve" smooth="yes"/>
      <point x="841" y="1316" type="line" smooth="yes"/>
      <point x="841" y="1417"/>
      <point x="802" y="1462"/>
      <point x="699" y="1462" type="curve" smooth="yes"/>
      <point x="145" y="1462" type="line" smooth="yes"/>
      <point x="83" y="1462"/>
      <point x="28" y="1433"/>
      <point x="28" y="1364" type="curve" smooth="yes"/>
      <point x="28" y="1291"/>
      <point x="79" y="1266"/>
      <point x="145" y="1266" type="curve" smooth="yes"/>
      <point x="357" y="1266" type="line" smooth="yes"/>
      <point x="443" y="1266"/>
      <point x="484" y="1242"/>
      <point x="484" y="1151" type="curve" smooth="yes"/>
    </contour>
  </outline>
</glyph>
<glyph name="asciicircum" format="2">
  <advance width="1024"/>
  <unicode hex="005E"/>
  <outline>
    <contour>
      <point x="587" y="1142" type="line"/>
      <point x="347" y="752" type="line" smooth="yes"/>
      <point x="318" y="705"/>
      <point x="258" y="647"/>
      <point x="199" y="647" type="curve" smooth="yes"/>
      <point x="136" y="647"/>
      <point x="93" y="694"/>
      <point x="93" y="756" type="curve" smooth="yes"/>
      <point x="93" y="793"/>
      <point x="107" y="828"/>
      <point x="122" y="861" type="curve" smooth="yes"/>
      <point x="292" y="1247" type="line" smooth="yes"/>
      <point x="332" y="1338"/>
      <point x="405" y="1426"/>
      <point x="513" y="1426" type="curve" smooth="yes"/>
      <point x="621" y="1426"/>
      <point x="694" y="1338"/>
      <point x="734" y="1247" type="curve" smooth="yes"/>
      <point x="904" y="861" type="line" smooth="yes"/>
      <point x="919" y="828"/>
      <point x="933" y="794"/>
      <point x="933" y="757" type="curve" smooth="yes"/>
      <point x="933" y="694"/>
      <point x="891" y="647"/>
      <point x="827" y="647" type="curve" smooth="yes"/>
      <point x="768" y="647"/>
      <point x="708" y="705"/>
      <point x="679" y="752" type="curve" smooth="yes"/>
      <point x="439" y="1142" type="line"/>
    </contour>
  </outline>
</glyph>
<glyph name="underscore" format="2">
  <advance width="1024"/>
  <unicode hex="005F"/>
  <outline>
    <contour>
      <point x="-6" y="-261" type="curve" smooth="yes"/>
      <point x="-6" y="-325"/>
      <point x="14" y="-397"/>
      <point x="91" y="-397" type="curve" smooth="yes"/>
      <point x="935" y="-397" type="line" smooth="yes"/>
      <point x="1012" y="-397"/>
      <point x="1031" y="-324"/>
      <point x="1031" y="-261" type="curve" smooth="yes"/>
      <point x="1031" y="-197"/>
      <point x="1012" y="-126"/>
      <point x="935" y="-126" type="curve" smooth="yes"/>
      <point x="91" y="-126" type="line" smooth="yes"/>
      <point x="14" y="-126"/>
      <point x="-6" y="-197"/>
    </contour>
  </outline>
</glyph>
<glyph name="grave" format="2">
  <advance width="1024"/>
  <unicode hex="0060"/>
  <outline>
    <contour>
      <point x="414" y="1516" type="curve" smooth="yes"/>
      <point x="314" y="1516"/>
      <point x="222" y="1448"/>
      <point x="222" y="1342" type="curve" smooth="yes"/>
      <point x="222" y="1242"/>
      <point x="298" y="1185"/>
      <point x="378" y="1141" type="curve" smooth="yes"/>
      <point x="393" y="1133"/>
      <point x="408" y="1123"/>
      <point x="425" y="1118" type="curve" smooth="yes"/>
      <point x="669" y="1051" type="line" smooth="yes"/>
      <point x="687" y="1046"/>
      <point x="705" y="1038"/>
      <point x="724" y="1038" type="curve" smooth="yes"/>
      <point x="763" y="1038"/>
      <point x="803" y="1061"/>
      <point x="803" y="1104" type="curve" smooth="yes"/>
      <point x="803" y="1121"/>
      <point x="793" y="1159"/>
      <point x="782" y="1172" type="curve" smooth="yes"/>
      <point x="648" y="1323" type="line" smooth="yes"/>
      <point x="637" y="1336"/>
      <point x="630" y="1351"/>
      <point x="622" y="1366" type="curve" smooth="yes"/>
      <point x="578" y="1445"/>
      <point x="511" y="1516"/>
    </contour>
  </outline>
</glyph>
<glyph name="b" format="2">
  <advance width="1295"/>
  <unicode hex="0062"/>
  <anchor x="642" y="0" name="bottom"/>
  <anchor x="642" y="512" name="center"/>
  <anchor x="642" y="1024" name="top"/>
  <outline>
    <contour>
      <point x="561" y="1409" type="line" smooth="yes"/>
      <point x="561" y="1460"/>
      <point x="532" y="1504"/>
      <point x="477" y="1504" type="curve" smooth="yes"/>
      <point x="421" y="1504"/>
      <point x="368" y="1485"/>
      <point x="317" y="1464" type="curve" smooth="yes"/>
      <point x="102" y="1377" type="line" smooth="yes"/>
      <point x="57" y="1359"/>
      <point x="18" y="1334"/>
      <point x="18" y="1280" type="curve" smooth="yes"/>
      <point x="18" y="1194"/>
      <point x="112" y="1219"/>
      <point x="112" y="1099" type="curve" smooth="yes"/>
      <point x="112" y="51" type="line" smooth="yes"/>
      <point x="112" y="5"/>
      <point x="139" y="-27"/>
      <point x="186" y="-27" type="curve" smooth="yes"/>
      <point x="293" y="-27"/>
      <point x="458" y="42"/>
      <point x="561" y="80" type="curve"/>
    </contour>
    <contour>
      <point x="487" y="653" type="line"/>
      <point x="509" y="716"/>
      <point x="552" y="796"/>
      <point x="629" y="796" type="curve" smooth="yes"/>
      <point x="757" y="796"/>
      <point x="776" y="591"/>
      <point x="776" y="498" type="curve" smooth="yes"/>
      <point x="776" y="412"/>
      <point x="763" y="199"/>
      <point x="642" y="199" type="curve" smooth="yes"/>
      <point x="570" y="199"/>
      <point x="528" y="274"/>
      <point x="505" y="332" type="curve"/>
      <point x="384" y="192" type="line"/>
      <point x="463" y="55"/>
      <point x="576" y="-29"/>
      <point x="738" y="-29" type="curve" smooth="yes"/>
      <point x="1063" y="-29"/>
      <point x="1240" y="247"/>
      <point x="1240" y="548" type="curve" smooth="yes"/>
      <point x="1240" y="788"/>
      <point x="1112" y="1056"/>
      <point x="839" y="1056" type="curve" smooth="yes"/>
      <point x="639" y="1056"/>
      <point x="501" y="899"/>
      <point x="410" y="738" type="curve"/>
    </contour>
  </outline>
</glyph>
<glyph name="c" format="2">
  <advance width="1078"/>
  <unicode hex="0063"/>
  <anchor x="542" y="0" name="bottom"/>
  <anchor x="542" y="1024" name="top"/>
  <outline>
    <contour>
      <point x="1027" y="728" type="curve" smooth="yes"/>
      <point x="1027" y="961"/>
      <point x="787" y="1056"/>
      <point x="588" y="1056" type="curve" smooth="yes"/>
      <point x="251" y="1056"/>
      <point x="39" y="813"/>
      <point x="39" y="484" type="curve" smooth="yes"/>
      <point x="39" y="179"/>
      <point x="267" y="-29"/>
      <point x="567" y="-29" type="curve" smooth="yes"/>
      <point x="775" y="-29"/>
      <point x="1032" y="90"/>
      <point x="1032" y="329" type="curve" smooth="yes"/>
      <point x="1032" y="361"/>
      <point x="1022" y="402"/>
      <point x="981" y="402" type="curve" smooth="yes"/>
      <point x="946" y="402"/>
      <point x="823" y="293"/>
      <point x="709" y="293" type="curve" smooth="yes"/>
      <point x="514" y="293"/>
      <point x="434" y="459"/>
      <point x="434" y="632" type="curve" smooth="yes"/>
      <point x="434" y="693"/>
      <point x="451" y="847"/>
      <point x="535" y="847" type="curve" smooth="yes"/>
      <point x="608" y="847"/>
      <point x="611" y="777"/>
      <point x="611" y="722" type="curve" smooth="yes"/>
      <point x="611" y="602"/>
      <point x="688" y="536"/>
      <point x="805" y="536" type="curve" smooth="yes"/>
      <point x="920" y="536"/>
      <point x="1027" y="603"/>
    </contour>
  </outline>
</glyph>
<glyph name="d" format="2">
  <advance width="1332"/>
  <unicode hex="0064"/>
  <anchor x="669" y="0" name="bottom"/>
  <anchor x="669" y="512" name="center"/>
  <anchor x="669" y="2079" name="top"/>
  <anchor x="1300" y="2079" name="topright"/>
  <outline>
    <contour>
      <point x="764" y="225" type="line"/>
      <point x="764" y="176" type="line" smooth="yes"/>
      <point x="764" y="79"/>
      <point x="861" y="0"/>
      <point x="954" y="0" type="curve" smooth="yes"/>
      <point x="1178" y="0" type="line" smooth="yes"/>
      <point x="1234" y="0"/>
      <point x="1276" y="33"/>
      <point x="1276" y="91" type="curve" smooth="yes"/>
      <point x="1276" y="131"/>
      <point x="1267" y="143"/>
      <point x="1240" y="171" type="curve" smooth="yes"/>
      <point x="1194" y="219"/>
      <point x="1192" y="228"/>
      <point x="1192" y="294" type="curve" smooth="yes"/>
      <point x="1192" y="1409" type="line" smooth="yes"/>
      <point x="1192" y="1459"/>
      <point x="1162" y="1504"/>
      <point x="1108" y="1504" type="curve" smooth="yes"/>
      <point x="1052" y="1504"/>
      <point x="999" y="1485"/>
      <point x="948" y="1464" type="curve" smooth="yes"/>
      <point x="731" y="1377" type="line" smooth="yes"/>
      <point x="686" y="1359"/>
      <point x="648" y="1334"/>
      <point x="648" y="1280" type="curve" smooth="yes"/>
      <point x="648" y="1191"/>
      <point x="743" y="1217"/>
      <point x="743" y="1099" type="curve" smooth="yes"/>
      <point x="743" y="230" type="line"/>
    </contour>
    <contour>
      <point x="57" y="479" type="curve" smooth="yes"/>
      <point x="57" y="238"/>
      <point x="189" y="-29"/>
      <point x="462" y="-29" type="curve" smooth="yes"/>
      <point x="664" y="-29"/>
      <point x="802" y="127"/>
      <point x="895" y="289" type="curve"/>
      <point x="819" y="374" type="line"/>
      <point x="795" y="311"/>
      <point x="751" y="230"/>
      <point x="673" y="230" type="curve" smooth="yes"/>
      <point x="541" y="230"/>
      <point x="521" y="432"/>
      <point x="521" y="529" type="curve" smooth="yes"/>
      <point x="521" y="617"/>
      <point x="536" y="828"/>
      <point x="659" y="828" type="curve" smooth="yes"/>
      <point x="732" y="828"/>
      <point x="777" y="755"/>
      <point x="800" y="695" type="curve"/>
      <point x="922" y="835" type="line"/>
      <point x="843" y="971"/>
      <point x="726" y="1056"/>
      <point x="564" y="1056" type="curve" smooth="yes"/>
      <point x="238" y="1056"/>
      <point x="57" y="782"/>
    </contour>
  </outline>
</glyph>
<glyph name="e" format="2">
  <advance width="1086"/>
  <unicode hex="0065"/>
  <anchor x="544" y="0" name="bottom"/>
  <anchor x="978" y="11" name="ogonek"/>
  <anchor x="544" y="1024" name="top"/>
  <outline>
    <contour>
      <point x="1047" y="661" type="curve" smooth="yes"/>
      <point x="1047" y="918"/>
      <point x="826" y="1056"/>
      <point x="589" y="1056" type="curve" smooth="yes"/>
      <point x="245" y="1056"/>
      <point x="40" y="835"/>
      <point x="40" y="495" type="curve" smooth="yes"/>
      <point x="40" y="177"/>
      <point x="257" y="-29"/>
      <point x="572" y="-29" type="curve" smooth="yes"/>
      <point x="785" y="-29"/>
      <point x="1041" y="90"/>
      <point x="1041" y="334" type="curve" smooth="yes"/>
      <point x="1041" y="368"/>
      <point x="1025" y="401"/>
      <point x="986" y="401" type="curve" smooth="yes"/>
      <point x="946" y="401"/>
      <point x="823" y="277"/>
      <point x="705" y="277" type="curve" smooth="yes"/>
      <point x="495" y="277"/>
      <point x="435" y="455"/>
      <point x="435" y="634" type="curve" smooth="yes"/>
      <point x="435" y="690"/>
      <point x="445" y="847"/>
      <point x="525" y="847" type="curve" smooth="yes"/>
      <point x="591" y="847"/>
      <point x="605" y="731"/>
      <point x="605" y="683" type="curve" smooth="yes"/>
      <point x="605" y="635"/>
      <point x="589" y="612"/>
      <point x="539" y="612" type="curve" smooth="yes"/>
      <point x="330" y="612" type="line"/>
      <point x="330" y="480" type="line"/>
      <point x="856" y="480" type="line" smooth="yes"/>
      <point x="971" y="480"/>
      <point x="1047" y="542"/>
    </contour>
  </outline>
</glyph>
<glyph name="f" format="2">
  <advance width="869"/>
  <unicode hex="0066"/>
  <anchor x="441" y="0" name="bottom"/>
  <anchor x="441" y="2079" name="top"/>
  <outline>
    <contour>
      <point x="617" y="760" type="line"/>
      <point x="709" y="760"/>
      <point x="853" y="770"/>
      <point x="853" y="893" type="curve" smooth="yes"/>
      <point x="853" y="947"/>
      <point x="811" y="971"/>
      <point x="762" y="971" type="curve" smooth="yes"/>
      <point x="511" y="971" type="line"/>
      <point x="579" y="893" type="line" name=".hr01"/>
      <point x="579" y="980" type="line" smooth="yes"/>
      <point x="579" y="1077"/>
      <point x="390" y="1132"/>
      <point x="390" y="1239" type="curve" smooth="yes"/>
      <point x="390" y="1286"/>
      <point x="403" y="1329"/>
      <point x="458" y="1329" type="curve" smooth="yes"/>
      <point x="538" y="1329"/>
      <point x="535" y="1261"/>
      <point x="535" y="1201" type="curve" smooth="yes"/>
      <point x="535" y="1084"/>
      <point x="611" y="1011"/>
      <point x="727" y="1011" type="curve" smooth="yes"/>
      <point x="837" y="1011"/>
      <point x="902" y="1080"/>
      <point x="902" y="1189" type="curve" smooth="yes"/>
      <point x="902" y="1405"/>
      <point x="668" y="1484"/>
      <point x="488" y="1484" type="curve" smooth="yes"/>
      <point x="287" y="1484"/>
      <point x="51" y="1401"/>
      <point x="51" y="1163" type="curve" smooth="yes"/>
      <point x="51" y="1066"/>
      <point x="170" y="999"/>
      <point x="170" y="982" type="curve" smooth="yes"/>
      <point x="170" y="927" type="line"/>
      <point x="287" y="971" type="line"/>
      <point x="91" y="971" type="line" smooth="yes"/>
      <point x="40" y="971"/>
      <point x="-1" y="941"/>
      <point x="-1" y="887" type="curve" smooth="yes"/>
      <point x="-1" y="762"/>
      <point x="167" y="789" name=".hr02"/>
      <point x="167" y="691" type="curve" smooth="yes"/>
      <point x="167" y="305" type="line" smooth="yes"/>
      <point x="167" y="146"/>
      <point x="28" y="226"/>
      <point x="28" y="89" type="curve" smooth="yes"/>
      <point x="28" y="30"/>
      <point x="69" y="0"/>
      <point x="125" y="0" type="curve" smooth="yes"/>
      <point x="740" y="0" type="line" smooth="yes"/>
      <point x="798" y="0"/>
      <point x="838" y="31"/>
      <point x="838" y="91" type="curve" smooth="yes"/>
      <point x="838" y="177"/>
      <point x="794" y="180"/>
      <point x="723" y="189" type="curve" smooth="yes"/>
      <point x="633" y="200"/>
      <point x="617" y="206"/>
      <point x="617" y="301" type="curve" smooth="yes"/>
    </contour>
  </outline>
</glyph>
<glyph name="g" format="2">
  <advance width="1184"/>
  <unicode hex="0067"/>
  <anchor x="595" y="-541" name="bottom"/>
  <anchor x="595" y="1024" name="top"/>
  <outline>
    <contour>
      <point x="1208" y="-80" type="curve" smooth="yes"/>
      <point x="1208" y="-357"/>
      <point x="714" y="-395"/>
      <point x="516" y="-395" type="curve" smooth="yes"/>
      <point x="381" y="-395"/>
      <point x="28" y="-388"/>
      <point x="28" y="-193" type="curve" smooth="yes"/>
      <point x="28" y="6"/>
      <point x="397" y="9"/>
      <point x="533" y="9" type="curve"/>
      <point x="490" y="-8"/>
      <point x="387" y="-55"/>
      <point x="387" y="-113" type="curve" smooth="yes"/>
      <point x="387" y="-195"/>
      <point x="583" y="-203"/>
      <point x="634" y="-203" type="curve" smooth="yes"/>
      <point x="677" y="-203"/>
      <point x="821" y="-188"/>
      <point x="821" y="-124" type="curve" smooth="yes"/>
      <point x="821" y="-35"/>
      <point x="682" y="-37"/>
      <point x="621" y="-37" type="curve" smooth="yes"/>
      <point x="547" y="-37"/>
      <point x="473" y="-42"/>
      <point x="399" y="-42" type="curve" smooth="yes"/>
      <point x="305" y="-42"/>
      <point x="135" y="-40"/>
      <point x="135" y="92" type="curve" smooth="yes"/>
      <point x="135" y="268"/>
      <point x="426" y="277"/>
      <point x="550" y="277" type="curve"/>
      <point x="556" y="256" type="line"/>
      <point x="545" y="249"/>
      <point x="533" y="238"/>
      <point x="533" y="224" type="curve" smooth="yes"/>
      <point x="533" y="171"/>
      <point x="723" y="185"/>
      <point x="761" y="185" type="curve" smooth="yes"/>
      <point x="952" y="185"/>
      <point x="1208" y="172"/>
    </contour>
    <contour>
      <point x="570" y="1028" type="line"/>
      <point x="631" y="1196"/>
      <point x="721" y="1406"/>
      <point x="931" y="1406" type="curve" smooth="yes"/>
      <point x="1040" y="1406"/>
      <point x="1120" y="1338"/>
      <point x="1120" y="1226" type="curve" smooth="yes"/>
      <point x="1120" y="1135"/>
      <point x="1079" y="1047"/>
      <point x="976" y="1047" type="curve" smooth="yes"/>
      <point x="868" y="1047"/>
      <point x="851" y="1158"/>
      <point x="793" y="1158" type="curve" smooth="yes"/>
      <point x="740" y="1158"/>
      <point x="707" y="1053"/>
      <point x="694" y="1012" type="curve"/>
    </contour>
    <contour>
      <point x="1125" y="659" type="curve" smooth="yes"/>
      <point x="1125" y="367"/>
      <point x="863" y="246"/>
      <point x="606" y="246" type="curve" smooth="yes"/>
      <point x="364" y="246"/>
      <point x="54" y="330"/>
      <point x="54" y="626" type="curve" smooth="yes"/>
      <point x="54" y="943"/>
      <point x="341" y="1051"/>
      <point x="613" y="1051" type="curve" smooth="yes"/>
      <point x="856" y="1051"/>
      <point x="1125" y="940"/>
    </contour>
    <contour>
      <point x="561" y="897" type="curve" smooth="yes"/>
      <point x="503" y="897"/>
      <point x="503" y="807"/>
      <point x="503" y="767" type="curve" smooth="yes"/>
      <point x="503" y="694"/>
      <point x="513" y="400"/>
      <point x="616" y="400" type="curve" smooth="yes"/>
      <point x="678" y="400"/>
      <point x="678" y="483"/>
      <point x="678" y="527" type="curve" smooth="yes"/>
      <point x="678" y="605"/>
      <point x="673" y="897"/>
    </contour>
  </outline>
</glyph>
<glyph name="h" format="2">
  <advance width="1390"/>
  <unicode hex="0068"/>
  <anchor x="696" y="0" name="bottom"/>
  <anchor x="696" y="1040" name="center"/>
  <anchor x="696" y="2079" name="top"/>
  <outline>
    <contour>
      <point x="564" y="660" type="line"/>
      <point x="606" y="707"/>
      <point x="645" y="746"/>
      <point x="713" y="746" type="curve" smooth="yes"/>
      <point x="792" y="746"/>
      <point x="811" y="674"/>
      <point x="811" y="609" type="curve" smooth="yes"/>
      <point x="811" y="266" type="line" smooth="yes"/>
      <point x="811" y="169"/>
      <point x="739" y="166"/>
      <point x="739" y="91" type="curve" smooth="yes"/>
      <point x="739" y="36"/>
      <point x="771" y="0"/>
      <point x="827" y="0" type="curve" smooth="yes"/>
      <point x="1249" y="0" type="line" smooth="yes"/>
      <point x="1306" y="0"/>
      <point x="1346" y="32"/>
      <point x="1346" y="91" type="curve" smooth="yes"/>
      <point x="1346" y="132"/>
      <point x="1336" y="141"/>
      <point x="1310" y="170" type="curve" smooth="yes"/>
      <point x="1262" y="223"/>
      <point x="1261" y="230"/>
      <point x="1261" y="301" type="curve" smooth="yes"/>
      <point x="1261" y="717" type="line" smooth="yes"/>
      <point x="1261" y="896"/>
      <point x="1161" y="1056"/>
      <point x="967" y="1056" type="curve" smooth="yes"/>
      <point x="787" y="1056"/>
      <point x="600" y="878"/>
      <point x="486" y="753" type="curve"/>
    </contour>
    <contour>
      <point x="515" y="1504" type="curve" smooth="yes"/>
      <point x="459" y="1504"/>
      <point x="406" y="1484"/>
      <point x="355" y="1464" type="curve" smooth="yes"/>
      <point x="137" y="1377" type="line" smooth="yes"/>
      <point x="94" y="1360"/>
      <point x="53" y="1332"/>
      <point x="53" y="1280" type="curve" smooth="yes"/>
      <point x="53" y="1193"/>
      <point x="150" y="1219"/>
      <point x="150" y="1099" type="curve" smooth="yes"/>
      <point x="150" y="280" type="line" smooth="yes"/>
      <point x="150" y="165"/>
      <point x="65" y="182"/>
      <point x="65" y="91" type="curve" smooth="yes"/>
      <point x="65" y="31"/>
      <point x="105" y="0"/>
      <point x="163" y="0" type="curve" smooth="yes"/>
      <point x="585" y="0" type="line" smooth="yes"/>
      <point x="641" y="0"/>
      <point x="673" y="36"/>
      <point x="673" y="91" type="curve" smooth="yes"/>
      <point x="673" y="173"/>
      <point x="600" y="152"/>
      <point x="600" y="275" type="curve" smooth="yes"/>
      <point x="600" y="1409" type="line" smooth="yes"/>
      <point x="600" y="1460"/>
      <point x="569" y="1504"/>
    </contour>
  </outline>
</glyph>
<glyph name="j" format="2">
  <advance width="756"/>
  <unicode hex="006A"/>
  <outline>
    <contour>
      <point x="526" y="1056" type="curve" smooth="yes"/>
      <point x="468" y="1056"/>
      <point x="413" y="1037"/>
      <point x="359" y="1017" type="curve" smooth="yes"/>
      <point x="129" y="931" type="line" smooth="yes"/>
      <point x="85" y="915"/>
      <point x="43" y="885"/>
      <point x="43" y="834" type="curve" smooth="yes"/>
      <point x="43" y="733"/>
      <point x="164" y="787"/>
      <point x="164" y="655" type="curve" smooth="yes"/>
      <point x="164" y="306" type="line" smooth="yes"/>
      <point x="164" y="122"/>
      <point x="430" y="-15"/>
      <point x="430" y="-162" type="curve" smooth="yes"/>
      <point x="430" y="-211"/>
      <point x="404" y="-240"/>
      <point x="354" y="-240" type="curve" smooth="yes"/>
      <point x="277" y="-240"/>
      <point x="276" y="-180"/>
      <point x="276" y="-120" type="curve" smooth="yes"/>
      <point x="276" y="-2"/>
      <point x="201" y="77"/>
      <point x="82" y="77" type="curve" smooth="yes"/>
      <point x="-36" y="77"/>
      <point x="-114" y="10"/>
      <point x="-114" y="-111" type="curve" smooth="yes"/>
      <point x="-114" y="-325"/>
      <point x="130" y="-395"/>
      <point x="305" y="-395" type="curve" smooth="yes"/>
      <point x="523" y="-395"/>
      <point x="746" y="-294"/>
      <point x="746" y="-46" type="curve" smooth="yes"/>
      <point x="746" y="118"/>
      <point x="614" y="248"/>
      <point x="614" y="405" type="curve" smooth="yes"/>
      <point x="614" y="962" type="line" smooth="yes"/>
      <point x="614" y="1014"/>
      <point x="580" y="1056"/>
    </contour>
    <contour>
      <point x="395" y="1060" type="curve" smooth="yes"/>
      <point x="523" y="1060"/>
      <point x="678" y="1109"/>
      <point x="678" y="1263" type="curve" smooth="yes"/>
      <point x="678" y="1415"/>
      <point x="521" y="1462"/>
      <point x="395" y="1462" type="curve" smooth="yes"/>
      <point x="269" y="1462"/>
      <point x="114" y="1415"/>
      <point x="114" y="1263" type="curve" smooth="yes"/>
      <point x="114" y="1110"/>
      <point x="267" y="1060"/>
    </contour>
  </outline>
</glyph>
<glyph name="k" format="2">
  <advance width="1503"/>
  <unicode hex="006B"/>
  <anchor x="754" y="0" name="bottom"/>
  <anchor x="754" y="2079" name="top"/>
  <outline>
    <contour>
      <point x="643" y="0" type="line" smooth="yes"/>
      <point x="700" y="0"/>
      <point x="734" y="34"/>
      <point x="734" y="91" type="curve" smooth="yes"/>
      <point x="734" y="147"/>
      <point x="706" y="155"/>
      <point x="667" y="184" type="curve" smooth="yes"/>
      <point x="629" y="212"/>
      <point x="633" y="259"/>
      <point x="633" y="301" type="curve" smooth="yes"/>
      <point x="633" y="1409" type="line" smooth="yes"/>
      <point x="633" y="1463"/>
      <point x="599" y="1504"/>
      <point x="543" y="1504" type="curve" smooth="yes"/>
      <point x="485" y="1504"/>
      <point x="429" y="1484"/>
      <point x="375" y="1464" type="curve" smooth="yes"/>
      <point x="140" y="1377" type="line" smooth="yes"/>
      <point x="96" y="1361"/>
      <point x="53" y="1333"/>
      <point x="53" y="1280" type="curve" smooth="yes"/>
      <point x="53" y="1242"/>
      <point x="77" y="1216"/>
      <point x="110" y="1200" type="curve" smooth="yes"/>
      <point x="171" y="1171"/>
      <point x="183" y="1172"/>
      <point x="183" y="1099" type="curve" smooth="yes"/>
      <point x="183" y="295" type="line" smooth="yes"/>
      <point x="183" y="227"/>
      <point x="181" y="222"/>
      <point x="125" y="184" type="curve" smooth="yes"/>
      <point x="90" y="160"/>
      <point x="68" y="136"/>
      <point x="68" y="91" type="curve" smooth="yes"/>
      <point x="68" y="30"/>
      <point x="113" y="0"/>
      <point x="170" y="0" type="curve" smooth="yes"/>
    </contour>
    <contour>
      <point x="443" y="445" type="line"/>
      <point x="560" y="303" type="line"/>
      <point x="1095" y="736" type="line" smooth="yes"/>
      <point x="1157" y="786"/>
      <point x="1210" y="802"/>
      <point x="1287" y="822" type="curve" smooth="yes"/>
      <point x="1350" y="838"/>
      <point x="1407" y="858"/>
      <point x="1407" y="934" type="curve" smooth="yes"/>
      <point x="1407" y="996"/>
      <point x="1362" y="1024"/>
      <point x="1305" y="1024" type="curve" smooth="yes"/>
      <point x="892" y="1024" type="line" smooth="yes"/>
      <point x="835" y="1024"/>
      <point x="790" y="996"/>
      <point x="790" y="934" type="curve" smooth="yes"/>
      <point x="790" y="846"/>
      <point x="886" y="844"/>
      <point x="886" y="808" type="curve" smooth="yes"/>
      <point x="886" y="794"/>
      <point x="869" y="784"/>
      <point x="859" y="776" type="curve" smooth="yes"/>
    </contour>
    <contour>
      <point x="969" y="775" type="line"/>
      <point x="682" y="535" type="line"/>
      <point x="909" y="265" type="line" smooth="yes"/>
      <point x="922" y="250"/>
      <point x="940" y="232"/>
      <point x="940" y="211" type="curve" smooth="yes"/>
      <point x="940" y="174"/>
      <point x="851" y="169"/>
      <point x="851" y="91" type="curve" smooth="yes"/>
      <point x="851" y="36"/>
      <point x="887" y="0"/>
      <point x="942" y="0" type="curve" smooth="yes"/>
      <point x="1421" y="0" type="line" smooth="yes"/>
      <point x="1476" y="0"/>
      <point x="1522" y="26"/>
      <point x="1522" y="86" type="curve" smooth="yes"/>
      <point x="1522" y="162"/>
      <point x="1410" y="215"/>
      <point x="1367" y="269" type="curve" smooth="yes"/>
    </contour>
  </outline>
</glyph>
<glyph name="l" format="2">
  <advance width="748"/>
  <unicode hex="006C"/>
  <anchor x="375" y="0" name="bottom"/>
  <anchor x="375" y="1040" name="center"/>
  <anchor x="375" y="2079" name="top"/>
  <anchor x="722" y="2079" name="topright"/>
  <outline>
    <contour>
      <point x="524" y="1504" type="curve" smooth="yes"/>
      <point x="466" y="1504"/>
      <point x="414" y="1485"/>
      <point x="361" y="1464" type="curve" smooth="yes"/>
      <point x="138" y="1377" type="line" smooth="yes"/>
      <point x="94" y="1360"/>
      <point x="53" y="1333"/>
      <point x="53" y="1280" type="curve" smooth="yes"/>
      <point x="53" y="1187"/>
      <point x="160" y="1227"/>
      <point x="160" y="1099" type="curve" smooth="yes"/>
      <point x="160" y="288" type="line" smooth="yes"/>
      <point x="160" y="153"/>
      <point x="66" y="193"/>
      <point x="66" y="91" type="curve" smooth="yes"/>
      <point x="66" y="31"/>
      <point x="108" y="0"/>
      <point x="165" y="0" type="curve" smooth="yes"/>
      <point x="605" y="0" type="line" smooth="yes"/>
      <point x="662" y="0"/>
      <point x="704" y="31"/>
      <point x="704" y="91" type="curve" smooth="yes"/>
      <point x="704" y="149"/>
      <point x="674" y="159"/>
      <point x="638" y="195" type="curve" smooth="yes"/>
      <point x="609" y="224"/>
      <point x="610" y="262"/>
      <point x="610" y="301" type="curve" smooth="yes"/>
      <point x="610" y="1409" type="line" smooth="yes"/>
      <point x="610" y="1461"/>
      <point x="579" y="1504"/>
    </contour>
  </outline>
</glyph>
<glyph name="m" format="2">
  <advance width="1975"/>
  <unicode hex="006D"/>
  <anchor x="989" y="0" name="bottom"/>
  <anchor x="989" y="1024" name="top"/>
  <outline>
    <contour>
      <point x="502" y="1056" type="curve" smooth="yes"/>
      <point x="446" y="1056"/>
      <point x="394" y="1037"/>
      <point x="343" y="1016" type="curve" smooth="yes"/>
      <point x="132" y="929" type="line" smooth="yes"/>
      <point x="87" y="910"/>
      <point x="49" y="886"/>
      <point x="49" y="832" type="curve" smooth="yes"/>
      <point x="49" y="744"/>
      <point x="141" y="770"/>
      <point x="141" y="650" type="curve" smooth="yes"/>
      <point x="141" y="279" type="line" smooth="yes"/>
      <point x="141" y="172"/>
      <point x="60" y="178"/>
      <point x="60" y="91" type="curve" smooth="yes"/>
      <point x="60" y="32"/>
      <point x="100" y="0"/>
      <point x="157" y="0" type="curve" smooth="yes"/>
      <point x="568" y="0" type="line" smooth="yes"/>
      <point x="624" y="0"/>
      <point x="654" y="37"/>
      <point x="654" y="91" type="curve" smooth="yes"/>
      <point x="654" y="164"/>
      <point x="586" y="165"/>
      <point x="586" y="273" type="curve" smooth="yes"/>
      <point x="586" y="961" type="line" smooth="yes"/>
      <point x="586" y="1011"/>
      <point x="556" y="1056"/>
    </contour>
    <contour>
      <point x="562" y="660" type="line"/>
      <point x="594" y="700"/>
      <point x="635" y="746"/>
      <point x="691" y="746" type="curve" smooth="yes"/>
      <point x="762" y="746"/>
      <point x="775" y="664"/>
      <point x="775" y="609" type="curve" smooth="yes"/>
      <point x="775" y="264" type="line" smooth="yes"/>
      <point x="775" y="170"/>
      <point x="707" y="164"/>
      <point x="707" y="91" type="curve" smooth="yes"/>
      <point x="707" y="37"/>
      <point x="737" y="0"/>
      <point x="793" y="0" type="curve" smooth="yes"/>
      <point x="1201" y="0" type="line" smooth="yes"/>
      <point x="1257" y="0"/>
      <point x="1288" y="36"/>
      <point x="1288" y="91" type="curve" smooth="yes"/>
      <point x="1288" y="164"/>
      <point x="1220" y="167"/>
      <point x="1220" y="273" type="curve" smooth="yes"/>
      <point x="1220" y="717" type="line" smooth="yes"/>
      <point x="1220" y="887"/>
      <point x="1133" y="1056"/>
      <point x="943" y="1056" type="curve" smooth="yes"/>
      <point x="777" y="1056"/>
      <point x="587" y="871"/>
      <point x="484" y="753" type="curve"/>
    </contour>
    <contour>
      <point x="1194" y="660" type="line"/>
      <point x="1230" y="698"/>
      <point x="1269" y="746"/>
      <point x="1326" y="746" type="curve" smooth="yes"/>
      <point x="1397" y="746"/>
      <point x="1410" y="664"/>
      <point x="1410" y="609" type="curve" smooth="yes"/>
      <point x="1410" y="264" type="line" smooth="yes"/>
      <point x="1410" y="169"/>
      <point x="1341" y="164"/>
      <point x="1341" y="91" type="curve" smooth="yes"/>
      <point x="1341" y="37"/>
      <point x="1373" y="0"/>
      <point x="1428" y="0" type="curve" smooth="yes"/>
      <point x="1839" y="0" type="line" smooth="yes"/>
      <point x="1896" y="0"/>
      <point x="1936" y="32"/>
      <point x="1936" y="91" type="curve" smooth="yes"/>
      <point x="1936" y="137"/>
      <point x="1909" y="161"/>
      <point x="1880" y="192" type="curve"/>
      <point x="1880" y="193" type="line"/>
      <point x="1854" y="214"/>
      <point x="1855" y="270"/>
      <point x="1855" y="301" type="curve" smooth="yes"/>
      <point x="1855" y="717" type="line" smooth="yes"/>
      <point x="1855" y="887"/>
      <point x="1768" y="1056"/>
      <point x="1578" y="1056" type="curve" smooth="yes"/>
      <point x="1401" y="1056"/>
      <point x="1230" y="872"/>
      <point x="1116" y="753" type="curve"/>
    </contour>
  </outline>
</glyph>
<glyph name="n" format="2">
  <advance width="1374"/>
  <unicode hex="006E"/>
  <anchor x="688" y="0" name="bottom"/>
  <anchor x="688" y="1024" name="top"/>
  <outline>
    <contour>
      <point x="512" y="1056" type="curve" smooth="yes"/>
      <point x="456" y="1056"/>
      <point x="404" y="1037"/>
      <point x="353" y="1016" type="curve" smooth="yes"/>
      <point x="137" y="929" type="line" smooth="yes"/>
      <point x="94" y="912"/>
      <point x="53" y="884"/>
      <point x="53" y="832" type="curve" smooth="yes"/>
      <point x="53" y="747"/>
      <point x="147" y="770"/>
      <point x="147" y="650" type="curve" smooth="yes"/>
      <point x="147" y="279" type="line" smooth="yes"/>
      <point x="147" y="171"/>
      <point x="65" y="178"/>
      <point x="65" y="91" type="curve" smooth="yes"/>
      <point x="65" y="32"/>
      <point x="105" y="0"/>
      <point x="162" y="0" type="curve" smooth="yes"/>
      <point x="580" y="0" type="line" smooth="yes"/>
      <point x="636" y="0"/>
      <point x="667" y="36"/>
      <point x="667" y="91" type="curve" smooth="yes"/>
      <point x="667" y="140"/>
      <point x="646" y="150"/>
      <point x="618" y="184" type="curve" smooth="yes"/>
      <point x="594" y="214"/>
      <point x="596" y="253"/>
      <point x="596" y="289" type="curve" smooth="yes"/>
      <point x="596" y="961" type="line" smooth="yes"/>
      <point x="596" y="1011"/>
      <point x="566" y="1056"/>
    </contour>
    <contour>
      <point x="561" y="660" type="line"/>
      <point x="601" y="705"/>
      <point x="637" y="746"/>
      <point x="703" y="746" type="curve" smooth="yes"/>
      <point x="780" y="746"/>
      <point x="798" y="672"/>
      <point x="798" y="609" type="curve" smooth="yes"/>
      <point x="798" y="262" type="line" smooth="yes"/>
      <point x="798" y="175"/>
      <point x="728" y="166"/>
      <point x="728" y="91" type="curve" smooth="yes"/>
      <point x="728" y="36"/>
      <point x="759" y="0"/>
      <point x="815" y="0" type="curve" smooth="yes"/>
      <point x="1233" y="0" type="line" smooth="yes"/>
      <point x="1290" y="0"/>
      <point x="1330" y="32"/>
      <point x="1330" y="91" type="curve" smooth="yes"/>
      <point x="1330" y="148"/>
      <point x="1302" y="156"/>
      <point x="1272" y="195" type="curve" smooth="yes"/>
      <point x="1247" y="227"/>
      <point x="1248" y="263"/>
      <point x="1248" y="301" type="curve" smooth="yes"/>
      <point x="1248" y="717" type="line" smooth="yes"/>
      <point x="1248" y="894"/>
      <point x="1151" y="1056"/>
      <point x="958" y="1056" type="curve" smooth="yes"/>
      <point x="783" y="1056"/>
      <point x="592" y="878"/>
      <point x="484" y="753" type="curve"/>
    </contour>
  </outline>
</glyph>
<glyph name="o" format="2">
  <advance width="1233"/>
  <unicode hex="006F"/>
  <anchor x="618" y="0" name="bottom"/>
  <anchor x="618" y="512" name="center"/>
  <anchor x="1100" y="11" name="ogonek"/>
  <anchor x="618" y="1024" name="top"/>
  <anchor x="1202" y="1024" name="topright"/>
  <outline>
    <contour>
      <point x="626" y="1056" type="curve" smooth="yes"/>
      <point x="314" y="1056"/>
      <point x="54" y="847"/>
      <point x="54" y="523" type="curve" smooth="yes"/>
      <point x="54" y="190"/>
      <point x="277" y="-29"/>
      <point x="609" y="-29" type="curve" smooth="yes"/>
      <point x="924" y="-29"/>
      <point x="1180" y="182"/>
      <point x="1180" y="508" type="curve" smooth="yes"/>
      <point x="1180" y="839"/>
      <point x="955" y="1056"/>
    </contour>
    <contour>
      <point x="683" y="192" type="curve" smooth="yes"/>
      <point x="575" y="192"/>
      <point x="505" y="618"/>
      <point x="505" y="707" type="curve" smooth="yes"/>
      <point x="505" y="739"/>
      <point x="509" y="838"/>
      <point x="555" y="838" type="curve" smooth="yes"/>
      <point x="626" y="838"/>
      <point x="689" y="607"/>
      <point x="703" y="549" type="curve" smooth="yes"/>
      <point x="721" y="475"/>
      <point x="735" y="400"/>
      <point x="735" y="324" type="curve" smooth="yes"/>
      <point x="735" y="290"/>
      <point x="732" y="192"/>
    </contour>
  </outline>
</glyph>
<glyph name="p" format="2">
  <advance width="1363"/>
  <unicode hex="0070"/>
  <anchor x="681" y="0" name="bottom"/>
  <anchor x="681" y="1024" name="top"/>
  <outline>
    <contour>
      <point x="496" y="1056" type="curve" smooth="yes"/>
      <point x="440" y="1056"/>
      <point x="386" y="1038"/>
      <point x="335" y="1016" type="curve" smooth="yes"/>
      <point x="137" y="929" type="line" smooth="yes"/>
      <point x="95" y="911"/>
      <point x="53" y="883"/>
      <point x="53" y="832" type="curve" smooth="yes"/>
      <point x="53" y="742"/>
      <point x="153" y="773"/>
      <point x="153" y="650" type="curve" smooth="yes"/>
      <point x="153" y="-113" type="line" smooth="yes"/>
      <point x="153" y="-234"/>
      <point x="65" y="-209"/>
      <point x="65" y="-304" type="curve" smooth="yes"/>
      <point x="65" y="-364"/>
      <point x="107" y="-395"/>
      <point x="164" y="-395" type="curve" smooth="yes"/>
      <point x="590" y="-395" type="line" smooth="yes"/>
      <point x="646" y="-395"/>
      <point x="688" y="-362"/>
      <point x="688" y="-304" type="curve" smooth="yes"/>
      <point x="688" y="-265"/>
      <point x="676" y="-250"/>
      <point x="651" y="-223" type="curve" smooth="yes"/>
      <point x="603" y="-171"/>
      <point x="603" y="-164"/>
      <point x="603" y="-94" type="curve" smooth="yes"/>
      <point x="603" y="825" type="line"/>
      <point x="581" y="865" type="line"/>
      <point x="582" y="886"/>
      <point x="583" y="906"/>
      <point x="583" y="927" type="curve" smooth="yes"/>
      <point x="583" y="988"/>
      <point x="573" y="1056"/>
    </contour>
    <contour>
      <point x="526" y="653" type="line"/>
      <point x="551" y="721"/>
      <point x="603" y="796"/>
      <point x="683" y="796" type="curve" smooth="yes"/>
      <point x="821" y="796"/>
      <point x="845" y="601"/>
      <point x="845" y="498" type="curve" smooth="yes"/>
      <point x="845" y="403"/>
      <point x="826" y="199"/>
      <point x="696" y="199" type="curve" smooth="yes"/>
      <point x="620" y="199"/>
      <point x="569" y="268"/>
      <point x="544" y="332" type="curve"/>
      <point x="423" y="192" type="line"/>
      <point x="505" y="53"/>
      <point x="627" y="-29"/>
      <point x="791" y="-29" type="curve" smooth="yes"/>
      <point x="1119" y="-29"/>
      <point x="1308" y="239"/>
      <point x="1308" y="548" type="curve" smooth="yes"/>
      <point x="1308" y="796"/>
      <point x="1170" y="1056"/>
      <point x="893" y="1056" type="curve" smooth="yes"/>
      <point x="687" y="1056"/>
      <point x="547" y="903"/>
      <point x="450" y="738" type="curve"/>
    </contour>
  </outline>
</glyph>
<glyph name="q" format="2">
  <advance width="1327"/>
  <unicode hex="0071"/>
  <anchor x="668" y="0" name="bottom"/>
  <anchor x="668" y="1024" name="top"/>
  <outline>
    <contour>
      <point x="1197" y="-395" type="line" smooth="yes"/>
      <point x="1255" y="-395"/>
      <point x="1295" y="-364"/>
      <point x="1295" y="-304" type="curve" smooth="yes"/>
      <point x="1295" y="-246"/>
      <point x="1268" y="-238"/>
      <point x="1234" y="-200" type="curve" smooth="yes"/>
      <point x="1207" y="-170"/>
      <point x="1209" y="-132"/>
      <point x="1209" y="-94" type="curve" smooth="yes"/>
      <point x="1209" y="976" type="line" smooth="yes"/>
      <point x="1209" y="1023"/>
      <point x="1181" y="1054"/>
      <point x="1133" y="1054" type="curve" smooth="yes"/>
      <point x="1028" y="1054"/>
      <point x="859" y="988"/>
      <point x="759" y="948" type="curve"/>
      <point x="759" y="-94" type="line" smooth="yes"/>
      <point x="759" y="-156"/>
      <point x="758" y="-176"/>
      <point x="714" y="-222" type="curve" smooth="yes"/>
      <point x="686" y="-251"/>
      <point x="675" y="-262"/>
      <point x="675" y="-304" type="curve" smooth="yes"/>
      <point x="675" y="-364"/>
      <point x="717" y="-395"/>
      <point x="774" y="-395" type="curve" smooth="yes"/>
    </contour>
    <contour>
      <point x="836" y="374" type="line"/>
      <point x="811" y="308"/>
      <point x="762" y="230"/>
      <point x="682" y="230" type="curve" smooth="yes"/>
      <point x="544" y="230"/>
      <point x="522" y="427"/>
      <point x="522" y="529" type="curve" smooth="yes"/>
      <point x="522" y="622"/>
      <point x="540" y="828"/>
      <point x="668" y="828" type="curve" smooth="yes"/>
      <point x="743" y="828"/>
      <point x="792" y="758"/>
      <point x="817" y="695" type="curve"/>
      <point x="939" y="835" type="line"/>
      <point x="856" y="974"/>
      <point x="738" y="1056"/>
      <point x="573" y="1056" type="curve" smooth="yes"/>
      <point x="246" y="1056"/>
      <point x="58" y="786"/>
      <point x="58" y="479" type="curve" smooth="yes"/>
      <point x="58" y="232"/>
      <point x="196" y="-29"/>
      <point x="472" y="-29" type="curve" smooth="yes"/>
      <point x="676" y="-29"/>
      <point x="817" y="125"/>
      <point x="912" y="289" type="curve"/>
    </contour>
  </outline>
</glyph>
<glyph name="r" format="2">
  <advance width="1095"/>
  <unicode hex="0072"/>
  <anchor x="551" y="0" name="bottom"/>
  <anchor x="551" y="1024" name="top"/>
  <outline>
    <contour>
      <point x="593" y="593" type="line"/>
      <point x="593" y="630"/>
      <point x="596" y="773"/>
      <point x="650" y="773" type="curve" smooth="yes"/>
      <point x="751" y="773"/>
      <point x="595" y="517"/>
      <point x="876" y="517" type="curve" smooth="yes"/>
      <point x="1030" y="517"/>
      <point x="1072" y="651"/>
      <point x="1072" y="781" type="curve" smooth="yes"/>
      <point x="1072" y="920"/>
      <point x="1019" y="1056"/>
      <point x="858" y="1056" type="curve" smooth="yes"/>
      <point x="596" y="1056"/>
      <point x="546" y="767"/>
      <point x="546" y="561" type="curve"/>
    </contour>
    <contour>
      <point x="488" y="1056" type="curve" smooth="yes"/>
      <point x="452" y="1056"/>
      <point x="419" y="1041"/>
      <point x="387" y="1028" type="curve" smooth="yes"/>
      <point x="137" y="929" type="line" smooth="yes"/>
      <point x="93" y="912"/>
      <point x="53" y="884"/>
      <point x="53" y="832" type="curve" smooth="yes"/>
      <point x="53" y="743"/>
      <point x="154" y="771"/>
      <point x="154" y="650" type="curve" smooth="yes"/>
      <point x="154" y="287" type="line" smooth="yes"/>
      <point x="154" y="159"/>
      <point x="65" y="188"/>
      <point x="65" y="91" type="curve" smooth="yes"/>
      <point x="65" y="31"/>
      <point x="107" y="0"/>
      <point x="164" y="0" type="curve" smooth="yes"/>
      <point x="692" y="0" type="line" smooth="yes"/>
      <point x="750" y="0"/>
      <point x="790" y="31"/>
      <point x="790" y="91" type="curve" smooth="yes"/>
      <point x="790" y="175"/>
      <point x="746" y="177"/>
      <point x="678" y="191" type="curve" smooth="yes"/>
      <point x="600" y="207"/>
      <point x="593" y="224"/>
      <point x="593" y="301" type="curve" smooth="yes"/>
      <point x="593" y="740" type="line" smooth="yes"/>
      <point x="593" y="797"/>
      <point x="581" y="852"/>
      <point x="573" y="908" type="curve" smooth="yes"/>
      <point x="566" y="959"/>
      <point x="558" y="1056"/>
    </contour>
  </outline>
</glyph>
<glyph name="s" format="2">
  <advance width="976"/>
  <unicode hex="0073"/>
  <anchor x="489" y="0" name="bottom"/>
  <anchor x="489" y="1024" name="top"/>
  <outline>
    <contour>
      <point x="510" y="885" type="curve" smooth="yes"/>
      <point x="696" y="885"/>
      <point x="739" y="671"/>
      <point x="865" y="671" type="curve" smooth="yes"/>
      <point x="927" y="671"/>
      <point x="949" y="729"/>
      <point x="949" y="782" type="curve" smooth="yes"/>
      <point x="949" y="813"/>
      <point x="942" y="844"/>
      <point x="937" y="875" type="curve" smooth="yes"/>
      <point x="927" y="935"/>
      <point x="916" y="1056"/>
      <point x="833" y="1056" type="curve" smooth="yes"/>
      <point x="789" y="1056"/>
      <point x="764" y="1009"/>
      <point x="720" y="1009" type="curve" smooth="yes"/>
      <point x="719" y="1009"/>
      <point x="651" y="1034"/>
      <point x="642" y="1037" type="curve" smooth="yes"/>
      <point x="590" y="1054"/>
      <point x="537" y="1056"/>
      <point x="483" y="1056" type="curve" smooth="yes"/>
      <point x="268" y="1056"/>
      <point x="35" y="949"/>
      <point x="35" y="704" type="curve" smooth="yes"/>
      <point x="35" y="427"/>
      <point x="235" y="371"/>
      <point x="464" y="325" type="curve" smooth="yes"/>
      <point x="526" y="313"/>
      <point x="571" y="303"/>
      <point x="571" y="228" type="curve" smooth="yes"/>
      <point x="571" y="176"/>
      <point x="542" y="140"/>
      <point x="488" y="140" type="curve" smooth="yes"/>
      <point x="290" y="140"/>
      <point x="296" y="363"/>
      <point x="123" y="363" type="curve" smooth="yes"/>
      <point x="52" y="363"/>
      <point x="14" y="316"/>
      <point x="14" y="247" type="curve" smooth="yes"/>
      <point x="14" y="208"/>
      <point x="29" y="172"/>
      <point x="39" y="135" type="curve" smooth="yes"/>
      <point x="58" y="69"/>
      <point x="79" y="-31"/>
      <point x="166" y="-31" type="curve" smooth="yes"/>
      <point x="209" y="-31"/>
      <point x="232" y="18"/>
      <point x="273" y="18" type="curve" smooth="yes"/>
      <point x="287" y="18"/>
      <point x="326" y="7"/>
      <point x="340" y="1" type="curve"/>
      <point x="341" y="1" type="line"/>
      <point x="376" y="-18"/>
      <point x="466" y="-29"/>
      <point x="507" y="-29" type="curve" smooth="yes"/>
      <point x="751" y="-29"/>
      <point x="958" y="65"/>
      <point x="958" y="340" type="curve" smooth="yes"/>
      <point x="958" y="544"/>
      <point x="791" y="666"/>
      <point x="607" y="706" type="curve" smooth="yes"/>
      <point x="565" y="715"/>
      <point x="520" y="720"/>
      <point x="480" y="738" type="curve" smooth="yes"/>
      <point x="443" y="754"/>
      <point x="422" y="773"/>
      <point x="422" y="816" type="curve" smooth="yes"/>
      <point x="422" y="868"/>
      <point x="465" y="885"/>
    </contour>
  </outline>
</glyph>
<glyph name="t" format="2">
  <advance width="948"/>
  <unicode hex="0074"/>
  <anchor x="473" y="0" name="bottom"/>
  <anchor x="473" y="512" name="center"/>
  <anchor x="473" y="1024" name="top"/>
  <anchor x="922" y="2079" name="topright"/>
  <outline>
    <contour>
      <point x="512" y="-29" type="curve" smooth="yes"/>
      <point x="695" y="-29"/>
      <point x="909" y="98"/>
      <point x="909" y="300" type="curve" smooth="yes"/>
      <point x="909" y="327"/>
      <point x="896" y="370"/>
      <point x="862" y="370" type="curve" smooth="yes"/>
      <point x="805" y="370"/>
      <point x="768" y="281"/>
      <point x="691" y="281" type="curve" smooth="yes"/>
      <point x="612" y="281"/>
      <point x="594" y="352"/>
      <point x="594" y="417" type="curve" smooth="yes"/>
      <point x="594" y="1211" type="line" smooth="yes"/>
      <point x="594" y="1277"/>
      <point x="554" y="1317"/>
      <point x="488" y="1317" type="curve" smooth="yes"/>
      <point x="342" y="1317"/>
      <point x="258" y="1024"/>
      <point x="160" y="1024" type="curve" smooth="yes"/>
      <point x="115" y="1024" type="line" smooth="yes"/>
      <point x="63" y="1024"/>
      <point x="18" y="991"/>
      <point x="18" y="936" type="curve" smooth="yes"/>
      <point x="18" y="829"/>
      <point x="144" y="860"/>
      <point x="144" y="745" type="curve" smooth="yes"/>
      <point x="144" y="310" type="line" smooth="yes"/>
      <point x="144" y="70"/>
      <point x="284" y="-29"/>
    </contour>
    <contour>
      <point x="441" y="813" type="line"/>
      <point x="698" y="813" type="line" smooth="yes"/>
      <point x="786" y="813"/>
      <point x="913" y="833"/>
      <point x="913" y="946" type="curve" smooth="yes"/>
      <point x="913" y="1002"/>
      <point x="872" y="1024"/>
      <point x="821" y="1024" type="curve" smooth="yes"/>
      <point x="441" y="1024" type="line"/>
    </contour>
  </outline>
</glyph>
<glyph name="u" format="2">
  <advance width="1388"/>
  <unicode hex="0075"/>
  <anchor x="692" y="0" name="bottom"/>
  <anchor x="1241" y="11" name="ogonek"/>
  <anchor x="692" y="1024" name="top"/>
  <anchor x="1358" y="1024" name="topright"/>
  <outline>
    <contour>
      <point x="995" y="0" type="curve" smooth="yes"/>
      <point x="1223" y="0" type="line" smooth="yes"/>
      <point x="1281" y="0"/>
      <point x="1321" y="31"/>
      <point x="1321" y="91" type="curve" smooth="yes"/>
      <point x="1321" y="146"/>
      <point x="1291" y="159"/>
      <point x="1258" y="195" type="curve" smooth="yes"/>
      <point x="1231" y="225"/>
      <point x="1233" y="263"/>
      <point x="1233" y="301" type="curve" smooth="yes"/>
      <point x="1233" y="961" type="line" smooth="yes"/>
      <point x="1233" y="1013"/>
      <point x="1202" y="1056"/>
      <point x="1147" y="1056" type="curve" smooth="yes"/>
      <point x="1090" y="1056"/>
      <point x="1038" y="1037"/>
      <point x="986" y="1016" type="curve" smooth="yes"/>
      <point x="766" y="929" type="line" smooth="yes"/>
      <point x="722" y="912"/>
      <point x="682" y="884"/>
      <point x="682" y="832" type="curve" smooth="yes"/>
      <point x="682" y="788"/>
      <point x="708" y="771"/>
      <point x="739" y="747" type="curve" smooth="yes"/>
      <point x="780" y="715"/>
      <point x="783" y="701"/>
      <point x="783" y="650" type="curve" smooth="yes"/>
      <point x="783" y="238" type="line"/>
      <point x="804" y="234" type="line"/>
      <point x="804" y="191" type="line" smooth="yes"/>
      <point x="804" y="89"/>
      <point x="893" y="0"/>
    </contour>
    <contour>
      <point x="415" y="-29" type="curve" smooth="yes"/>
      <point x="586" y="-29"/>
      <point x="777" y="156"/>
      <point x="888" y="274" type="curve"/>
      <point x="809" y="367" type="line"/>
      <point x="771" y="322"/>
      <point x="730" y="281"/>
      <point x="667" y="281" type="curve" smooth="yes"/>
      <point x="594" y="281"/>
      <point x="580" y="361"/>
      <point x="580" y="418" type="curve" smooth="yes"/>
      <point x="580" y="961" type="line" smooth="yes"/>
      <point x="580" y="1012"/>
      <point x="550" y="1056"/>
      <point x="495" y="1056" type="curve" smooth="yes"/>
      <point x="438" y="1056"/>
      <point x="386" y="1037"/>
      <point x="334" y="1016" type="curve" smooth="yes"/>
      <point x="114" y="929" type="line" smooth="yes"/>
      <point x="70" y="912"/>
      <point x="30" y="884"/>
      <point x="30" y="832" type="curve" smooth="yes"/>
      <point x="30" y="787"/>
      <point x="61" y="770"/>
      <point x="91" y="743" type="curve" smooth="yes"/>
      <point x="128" y="710"/>
      <point x="131" y="699"/>
      <point x="131" y="650" type="curve" smooth="yes"/>
      <point x="131" y="310" type="line" smooth="yes"/>
      <point x="131" y="137"/>
      <point x="224" y="-29"/>
    </contour>
  </outline>
</glyph>
<glyph name="v" format="2">
  <advance width="1285"/>
  <unicode hex="0076"/>
  <anchor x="644" y="0" name="bottom"/>
  <anchor x="644" y="1024" name="top"/>
  <outline>
    <contour>
      <point x="719" y="-21" type="line" smooth="yes"/>
      <point x="806" y="-21"/>
      <point x="853" y="26"/>
      <point x="889" y="100" type="curve" smooth="yes"/>
      <point x="984" y="298"/>
      <point x="1065" y="503"/>
      <point x="1150" y="705" type="curve" smooth="yes"/>
      <point x="1175" y="766"/>
      <point x="1187" y="796"/>
      <point x="1238" y="841" type="curve" smooth="yes"/>
      <point x="1273" y="872"/>
      <point x="1291" y="884"/>
      <point x="1291" y="934" type="curve" smooth="yes"/>
      <point x="1291" y="995"/>
      <point x="1248" y="1024"/>
      <point x="1191" y="1024" type="curve" smooth="yes"/>
      <point x="914" y="1024" type="line" smooth="yes"/>
      <point x="857" y="1024"/>
      <point x="815" y="994"/>
      <point x="815" y="934" type="curve" smooth="yes"/>
      <point x="815" y="829"/>
      <point x="939" y="858"/>
      <point x="939" y="751" type="curve" smooth="yes"/>
      <point x="939" y="720"/>
      <point x="931" y="690"/>
      <point x="920" y="661" type="curve" smooth="yes"/>
      <point x="720" y="148" type="line"/>
      <point x="827" y="148" type="line"/>
      <point x="620" y="677" type="line" smooth="yes"/>
      <point x="609" y="704"/>
      <point x="601" y="733"/>
      <point x="601" y="762" type="curve" smooth="yes"/>
      <point x="601" y="854"/>
      <point x="727" y="838"/>
      <point x="727" y="934" type="curve" smooth="yes"/>
      <point x="727" y="990"/>
      <point x="693" y="1024"/>
      <point x="637" y="1024" type="curve" smooth="yes"/>
      <point x="98" y="1024" type="line" smooth="yes"/>
      <point x="42" y="1024"/>
      <point x="-3" y="994"/>
      <point x="-3" y="934" type="curve" smooth="yes"/>
      <point x="-3" y="891"/>
      <point x="14" y="874"/>
      <point x="45" y="849" type="curve" smooth="yes"/>
      <point x="86" y="816"/>
      <point x="93" y="798"/>
      <point x="114" y="751" type="curve" smooth="yes"/>
      <point x="395" y="112" type="line" smooth="yes"/>
      <point x="427" y="39"/>
      <point x="476" y="-21"/>
      <point x="563" y="-21" type="curve" smooth="yes"/>
    </contour>
  </outline>
  <guideline angle="0" x="0" y="839"/>
</glyph>
<glyph name="w" format="2">
  <advance width="2025"/>
  <unicode hex="0077"/>
  <anchor x="1013" y="0" name="bottom"/>
  <anchor x="1013" y="1024" name="top"/>
  <outline>
    <contour>
      <point x="714" y="-21" type="line" smooth="yes"/>
      <point x="798" y="-21"/>
      <point x="851" y="26"/>
      <point x="884" y="100" type="curve" smooth="yes"/>
      <point x="1132" y="654" type="line"/>
      <point x="967" y="775" type="line"/>
      <point x="713" y="145" type="line"/>
      <point x="828" y="147" type="line"/>
      <point x="618" y="682" type="line"/>
      <point x="608" y="711"/>
      <point x="589" y="753"/>
      <point x="589" y="782" type="curve" smooth="yes"/>
      <point x="589" y="840"/>
      <point x="706" y="841"/>
      <point x="706" y="936" type="curve" smooth="yes"/>
      <point x="706" y="993"/>
      <point x="672" y="1024"/>
      <point x="616" y="1024" type="curve" smooth="yes"/>
      <point x="99" y="1024" type="line" smooth="yes"/>
      <point x="41" y="1024"/>
      <point x="-3" y="996"/>
      <point x="-3" y="934" type="curve" smooth="yes"/>
      <point x="-3" y="883"/>
      <point x="31" y="862"/>
      <point x="66" y="833" type="curve" smooth="yes"/>
      <point x="94" y="810"/>
      <point x="109" y="776"/>
      <point x="123" y="744" type="curve" smooth="yes"/>
      <point x="398" y="112" type="line" smooth="yes"/>
      <point x="431" y="35"/>
      <point x="477" y="-21"/>
      <point x="567" y="-21" type="curve" smooth="yes"/>
    </contour>
    <contour>
      <point x="1474" y="-21" type="line" smooth="yes"/>
      <point x="1558" y="-21"/>
      <point x="1615" y="23"/>
      <point x="1645" y="100" type="curve" smooth="yes"/>
      <point x="1875" y="684" type="line" smooth="yes"/>
      <point x="1903" y="754"/>
      <point x="1919" y="796"/>
      <point x="1980" y="845" type="curve" smooth="yes"/>
      <point x="2015" y="873"/>
      <point x="2031" y="886"/>
      <point x="2031" y="934" type="curve" smooth="yes"/>
      <point x="2031" y="995"/>
      <point x="1987" y="1024"/>
      <point x="1930" y="1024" type="curve" smooth="yes"/>
      <point x="1621" y="1024" type="line" smooth="yes"/>
      <point x="1567" y="1024"/>
      <point x="1541" y="984"/>
      <point x="1541" y="934" type="curve" smooth="yes"/>
      <point x="1541" y="822"/>
      <point x="1671" y="848"/>
      <point x="1671" y="750" type="curve" smooth="yes"/>
      <point x="1671" y="719"/>
      <point x="1662" y="690"/>
      <point x="1652" y="661" type="curve" smooth="yes"/>
      <point x="1473" y="146" type="line"/>
      <point x="1573" y="148" type="line"/>
      <point x="1371" y="697" type="line" smooth="yes"/>
      <point x="1360" y="726"/>
      <point x="1346" y="755"/>
      <point x="1346" y="787" type="curve" smooth="yes"/>
      <point x="1346" y="846"/>
      <point x="1452" y="837"/>
      <point x="1452" y="934" type="curve" smooth="yes"/>
      <point x="1452" y="985"/>
      <point x="1431" y="1024"/>
      <point x="1375" y="1024" type="curve" smooth="yes"/>
      <point x="877" y="1024" type="line" smooth="yes"/>
      <point x="821" y="1024"/>
      <point x="787" y="993"/>
      <point x="787" y="936" type="curve" smooth="yes"/>
      <point x="787" y="891"/>
      <point x="799" y="873"/>
      <point x="832" y="845" type="curve" smooth="yes"/>
      <point x="867" y="816"/>
      <point x="885" y="786"/>
      <point x="902" y="744" type="curve" smooth="yes"/>
      <point x="1160" y="112" type="line" smooth="yes"/>
      <point x="1191" y="36"/>
      <point x="1240" y="-21"/>
      <point x="1328" y="-21" type="curve" smooth="yes"/>
    </contour>
  </outline>
  <guideline angle="0" x="0" y="302"/>
</glyph>
<glyph name="x" format="2">
  <advance width="1232"/>
  <unicode hex="0078"/>
  <anchor x="617" y="0" name="bottom"/>
  <anchor x="617" y="1024" name="top"/>
  <outline>
    <contour>
      <point x="396" y="571" type="line"/>
      <point x="311" y="433"/>
      <point x="235" y="299"/>
      <point x="102" y="201" type="curve" smooth="yes"/>
      <point x="61" y="171"/>
      <point x="25" y="148"/>
      <point x="25" y="91" type="curve" smooth="yes"/>
      <point x="25" y="33"/>
      <point x="67" y="0"/>
      <point x="123" y="0" type="curve" smooth="yes"/>
      <point x="369" y="0" type="line" smooth="yes"/>
      <point x="426" y="0"/>
      <point x="466" y="32"/>
      <point x="466" y="91" type="curve" smooth="yes"/>
      <point x="466" y="173"/>
      <point x="381" y="194"/>
      <point x="381" y="240" type="curve" smooth="yes"/>
      <point x="381" y="272"/>
      <point x="402" y="298"/>
      <point x="421" y="322" type="curve"/>
      <point x="421" y="323" type="line"/>
      <point x="452" y="368"/>
      <point x="476" y="415"/>
      <point x="501" y="464" type="curve"/>
    </contour>
    <contour>
      <point x="684" y="818" type="curve" smooth="yes"/>
      <point x="684" y="855"/>
      <point x="722" y="888"/>
      <point x="722" y="934" type="curve" smooth="yes"/>
      <point x="722" y="994"/>
      <point x="681" y="1024"/>
      <point x="624" y="1024" type="curve" smooth="yes"/>
      <point x="131" y="1024" type="line" smooth="yes"/>
      <point x="74" y="1024"/>
      <point x="33" y="994"/>
      <point x="33" y="934" type="curve" smooth="yes"/>
      <point x="33" y="890"/>
      <point x="53" y="868"/>
      <point x="84" y="840" type="curve" smooth="yes"/>
      <point x="118" y="809"/>
      <point x="153" y="779"/>
      <point x="182" y="743" type="curve" smooth="yes"/>
      <point x="223" y="693"/>
      <point x="562" y="212"/>
      <point x="562" y="198" type="curve" smooth="yes"/>
      <point x="562" y="193"/>
      <point x="523" y="134"/>
      <point x="523" y="91" type="curve" smooth="yes"/>
      <point x="523" y="32"/>
      <point x="563" y="0"/>
      <point x="620" y="0" type="curve" smooth="yes"/>
      <point x="1116" y="0" type="line" smooth="yes"/>
      <point x="1173" y="0"/>
      <point x="1213" y="32"/>
      <point x="1213" y="91" type="curve" smooth="yes"/>
      <point x="1213" y="120"/>
      <point x="1194" y="140"/>
      <point x="1177" y="161" type="curve" smooth="yes"/>
      <point x="1015" y="361"/>
      <point x="856" y="564"/>
      <point x="705" y="772" type="curve" smooth="yes"/>
      <point x="695" y="786"/>
      <point x="684" y="800"/>
    </contour>
    <contour>
      <point x="788" y="421" type="line"/>
      <point x="896" y="569"/>
      <point x="1007" y="715"/>
      <point x="1147" y="833" type="curve" smooth="yes"/>
      <point x="1183" y="863"/>
      <point x="1209" y="883"/>
      <point x="1209" y="934" type="curve" smooth="yes"/>
      <point x="1209" y="994"/>
      <point x="1168" y="1024"/>
      <point x="1111" y="1024" type="curve" smooth="yes"/>
      <point x="874" y="1024" type="line" smooth="yes"/>
      <point x="818" y="1024"/>
      <point x="777" y="993"/>
      <point x="777" y="934" type="curve" smooth="yes"/>
      <point x="777" y="859"/>
      <point x="862" y="838"/>
      <point x="862" y="787" type="curve" smooth="yes"/>
      <point x="862" y="762"/>
      <point x="846" y="739"/>
      <point x="832" y="720" type="curve" smooth="yes"/>
      <point x="671" y="502" type="line"/>
    </contour>
  </outline>
</glyph>
<glyph name="y" format="2">
  <advance width="1268"/>
  <unicode hex="0079"/>
  <anchor x="635" y="0" name="bottom"/>
  <anchor x="635" y="1024" name="top"/>
  <outline>
    <contour>
      <point x="864" y="239" type="line"/>
      <point x="642" y="681" type="line" smooth="yes"/>
      <point x="625" y="715"/>
      <point x="611" y="753"/>
      <point x="611" y="791" type="curve" smooth="yes"/>
      <point x="611" y="856"/>
      <point x="730" y="828"/>
      <point x="730" y="935" type="curve" smooth="yes"/>
      <point x="730" y="995"/>
      <point x="688" y="1024"/>
      <point x="631" y="1024" type="curve" smooth="yes"/>
      <point x="96" y="1024" type="line" smooth="yes"/>
      <point x="39" y="1024"/>
      <point x="-3" y="994"/>
      <point x="-3" y="934" type="curve" smooth="yes"/>
      <point x="-3" y="851"/>
      <point x="115" y="816"/>
      <point x="151" y="747" type="curve" smooth="yes"/>
      <point x="636" y="-190" type="line"/>
    </contour>
    <contour>
      <point x="460" y="-148" type="curve" smooth="yes"/>
      <point x="366" y="-148"/>
      <point x="365" y="109"/>
      <point x="183" y="109" type="curve" smooth="yes"/>
      <point x="71" y="109"/>
      <point x="18" y="25"/>
      <point x="18" y="-79" type="curve" smooth="yes"/>
      <point x="18" y="-280"/>
      <point x="168" y="-395"/>
      <point x="360" y="-395" type="curve" smooth="yes"/>
      <point x="638" y="-395"/>
      <point x="743" y="-94"/>
      <point x="842" y="114" type="curve" smooth="yes"/>
      <point x="1114" y="688" type="line" smooth="yes"/>
      <point x="1147" y="758"/>
      <point x="1168" y="791"/>
      <point x="1226" y="844" type="curve" smooth="yes"/>
      <point x="1258" y="873"/>
      <point x="1276" y="887"/>
      <point x="1276" y="934" type="curve" smooth="yes"/>
      <point x="1276" y="994"/>
      <point x="1235" y="1024"/>
      <point x="1178" y="1024" type="curve" smooth="yes"/>
      <point x="886" y="1024" type="line" smooth="yes"/>
      <point x="830" y="1024"/>
      <point x="787" y="996"/>
      <point x="787" y="936" type="curve" smooth="yes"/>
      <point x="787" y="810"/>
      <point x="922" y="872"/>
      <point x="922" y="760" type="curve" smooth="yes"/>
      <point x="922" y="728"/>
      <point x="915" y="695"/>
      <point x="901" y="666" type="curve" smooth="yes"/>
      <point x="730" y="309" type="line" smooth="yes"/>
      <point x="710" y="268"/>
      <point x="706" y="220"/>
      <point x="681" y="181" type="curve" smooth="yes"/>
      <point x="652" y="136"/>
      <point x="623" y="92"/>
      <point x="594" y="47" type="curve" smooth="yes"/>
      <point x="560" y="-7"/>
      <point x="541" y="-148"/>
    </contour>
  </outline>
</glyph>
<glyph name="z" format="2">
  <advance width="1053"/>
  <unicode hex="007A"/>
  <anchor x="528" y="0" name="bottom"/>
  <anchor x="528" y="512" name="center"/>
  <anchor x="528" y="1024" name="top"/>
  <outline>
    <contour>
      <point x="1027" y="919" type="curve" smooth="yes"/>
      <point x="1027" y="1004"/>
      <point x="954" y="1024"/>
      <point x="883" y="1024" type="curve" smooth="yes"/>
      <point x="353" y="1024" type="line" smooth="yes"/>
      <point x="295" y="1024"/>
      <point x="242" y="1056"/>
      <point x="184" y="1056" type="curve" smooth="yes"/>
      <point x="131" y="1056"/>
      <point x="103" y="1027"/>
      <point x="93" y="977" type="curve" smooth="yes"/>
      <point x="38" y="705" type="line"/>
      <point x="37" y="701"/>
      <point x="37" y="697"/>
      <point x="37" y="693" type="curve" smooth="yes"/>
      <point x="37" y="646"/>
      <point x="87" y="609"/>
      <point x="131" y="609" type="curve" smooth="yes"/>
      <point x="190" y="609"/>
      <point x="211" y="650"/>
      <point x="239" y="694" type="curve" smooth="yes"/>
      <point x="350" y="868"/>
      <point x="447" y="855"/>
      <point x="634" y="851" type="curve"/>
      <point x="578" y="961" type="line"/>
      <point x="79" y="254" type="line" smooth="yes"/>
      <point x="52" y="215"/>
      <point x="34" y="167"/>
      <point x="34" y="119" type="curve" smooth="yes"/>
      <point x="34" y="23"/>
      <point x="126" y="0"/>
      <point x="205" y="0" type="curve" smooth="yes"/>
      <point x="724" y="0" type="line" smooth="yes"/>
      <point x="782" y="0"/>
      <point x="835" y="-31"/>
      <point x="893" y="-31" type="curve" smooth="yes"/>
      <point x="946" y="-31"/>
      <point x="974" y="-3"/>
      <point x="984" y="48" type="curve" smooth="yes"/>
      <point x="1043" y="360" type="line"/>
      <point x="1044" y="364"/>
      <point x="1044" y="367"/>
      <point x="1044" y="371" type="curve" smooth="yes"/>
      <point x="1044" y="417"/>
      <point x="993" y="454"/>
      <point x="950" y="454" type="curve" smooth="yes"/>
      <point x="890" y="454"/>
      <point x="873" y="415"/>
      <point x="846" y="370" type="curve" smooth="yes"/>
      <point x="727" y="175"/>
      <point x="639" y="174"/>
      <point x="426" y="174" type="curve"/>
      <point x="469" y="64" type="line"/>
      <point x="962" y="770" type="line" smooth="yes"/>
      <point x="993" y="814"/>
      <point x="1027" y="863"/>
    </contour>
  </outline>
</glyph>
<glyph name="braceleft" format="2">
  <advance width="1021"/>
  <unicode hex="007B"/>
  <outline>
    <contour>
      <point x="534" y="605" type="curve" smooth="yes"/>
      <point x="534" y="632"/>
      <point x="560" y="640"/>
      <point x="582" y="640" type="curve" smooth="yes"/>
      <point x="684" y="640"/>
      <point x="843" y="659"/>
      <point x="843" y="793" type="curve" smooth="yes"/>
      <point x="843" y="921"/>
      <point x="610" y="1032"/>
      <point x="610" y="1151" type="curve" smooth="yes"/>
      <point x="610" y="1277"/>
      <point x="776" y="1265"/>
      <point x="862" y="1265" type="curve" smooth="yes"/>
      <point x="934" y="1265"/>
      <point x="992" y="1280"/>
      <point x="992" y="1365" type="curve" smooth="yes"/>
      <point x="992" y="1432"/>
      <point x="942" y="1462"/>
      <point x="880" y="1462" type="curve" smooth="yes"/>
      <point x="747" y="1462" type="line" smooth="yes"/>
      <point x="565" y="1462"/>
      <point x="240" y="1424"/>
      <point x="240" y="1182" type="curve" smooth="yes"/>
      <point x="240" y="950"/>
      <point x="537" y="843"/>
      <point x="537" y="746" type="curve" smooth="yes"/>
      <point x="537" y="698"/>
      <point x="484" y="694"/>
      <point x="448" y="694" type="curve" smooth="yes"/>
      <point x="378" y="694"/>
      <point x="316" y="738"/>
      <point x="246" y="738" type="curve" smooth="yes"/>
      <point x="169" y="738"/>
      <point x="105" y="685"/>
      <point x="105" y="605" type="curve" smooth="yes"/>
      <point x="105" y="525"/>
      <point x="168" y="471"/>
      <point x="246" y="471" type="curve" smooth="yes"/>
      <point x="316" y="471"/>
      <point x="378" y="516"/>
      <point x="448" y="516" type="curve" smooth="yes"/>
      <point x="484" y="516"/>
      <point x="537" y="511"/>
      <point x="537" y="463" type="curve" smooth="yes"/>
      <point x="537" y="363"/>
      <point x="240" y="257"/>
      <point x="240" y="27" type="curve" smooth="yes"/>
      <point x="240" y="-215"/>
      <point x="566" y="-252"/>
      <point x="747" y="-252" type="curve" smooth="yes"/>
      <point x="880" y="-252" type="line" smooth="yes"/>
      <point x="942" y="-252"/>
      <point x="992" y="-222"/>
      <point x="992" y="-155" type="curve" smooth="yes"/>
      <point x="992" y="-51"/>
      <point x="905" y="-56"/>
      <point x="828" y="-56" type="curve" smooth="yes"/>
      <point x="744" y="-56"/>
      <point x="610" y="-56"/>
      <point x="610" y="60" type="curve" smooth="yes"/>
      <point x="610" y="181"/>
      <point x="843" y="285"/>
      <point x="843" y="417" type="curve" smooth="yes"/>
      <point x="843" y="551"/>
      <point x="683" y="569"/>
      <point x="582" y="569" type="curve" smooth="yes"/>
      <point x="560" y="569"/>
      <point x="534" y="578"/>
    </contour>
  </outline>
</glyph>
<glyph name="bar" format="2">
  <advance width="1024"/>
  <unicode hex="007C"/>
  <outline>
    <contour>
      <point x="403" y="597" type="curve" smooth="yes"/>
      <point x="403" y="342"/>
      <point x="366" y="89"/>
      <point x="366" y="-165" type="curve" smooth="yes"/>
      <point x="366" y="-259"/>
      <point x="422" y="-305"/>
      <point x="513" y="-305" type="curve" smooth="yes"/>
      <point x="603" y="-305"/>
      <point x="660" y="-258"/>
      <point x="660" y="-165" type="curve" smooth="yes"/>
      <point x="660" y="95"/>
      <point x="623" y="353"/>
      <point x="623" y="613" type="curve" smooth="yes"/>
      <point x="623" y="867"/>
      <point x="660" y="1120"/>
      <point x="660" y="1375" type="curve" smooth="yes"/>
      <point x="660" y="1468"/>
      <point x="603" y="1515"/>
      <point x="513" y="1515" type="curve" smooth="yes"/>
      <point x="422" y="1515"/>
      <point x="366" y="1469"/>
      <point x="366" y="1375" type="curve" smooth="yes"/>
      <point x="366" y="1115"/>
      <point x="403" y="857"/>
    </contour>
  </outline>
</glyph>
<glyph name="braceright" format="2">
  <advance width="1021"/>
  <unicode hex="007D"/>
  <outline>
    <contour>
      <point x="489" y="604" type="curve" smooth="yes"/>
      <point x="489" y="577"/>
      <point x="462" y="569"/>
      <point x="440" y="569" type="curve" smooth="yes"/>
      <point x="339" y="569"/>
      <point x="179" y="549"/>
      <point x="179" y="416" type="curve" smooth="yes"/>
      <point x="179" y="285"/>
      <point x="412" y="182"/>
      <point x="412" y="59" type="curve" smooth="yes"/>
      <point x="412" y="-69"/>
      <point x="248" y="-55"/>
      <point x="161" y="-55" type="curve" smooth="yes"/>
      <point x="89" y="-55"/>
      <point x="29" y="-69"/>
      <point x="29" y="-155" type="curve" smooth="yes"/>
      <point x="29" y="-223"/>
      <point x="80" y="-252"/>
      <point x="142" y="-252" type="curve" smooth="yes"/>
      <point x="275" y="-252" type="line" smooth="yes"/>
      <point x="456" y="-252"/>
      <point x="782" y="-215"/>
      <point x="782" y="27" type="curve" smooth="yes"/>
      <point x="782" y="257"/>
      <point x="485" y="363"/>
      <point x="485" y="463" type="curve" smooth="yes"/>
      <point x="485" y="512"/>
      <point x="539" y="515"/>
      <point x="575" y="515" type="curve" smooth="yes"/>
      <point x="645" y="515"/>
      <point x="707" y="471"/>
      <point x="777" y="471" type="curve" smooth="yes"/>
      <point x="854" y="471"/>
      <point x="916" y="525"/>
      <point x="916" y="604" type="curve" smooth="yes"/>
      <point x="916" y="684"/>
      <point x="855" y="738"/>
      <point x="777" y="738" type="curve" smooth="yes"/>
      <point x="707" y="738"/>
      <point x="645" y="693"/>
      <point x="575" y="693" type="curve" smooth="yes"/>
      <point x="539" y="693"/>
      <point x="485" y="698"/>
      <point x="485" y="746" type="curve" smooth="yes"/>
      <point x="485" y="843"/>
      <point x="782" y="950"/>
      <point x="782" y="1182" type="curve" smooth="yes"/>
      <point x="782" y="1424"/>
      <point x="457" y="1462"/>
      <point x="275" y="1462" type="curve" smooth="yes"/>
      <point x="142" y="1462" type="line" smooth="yes"/>
      <point x="80" y="1462"/>
      <point x="29" y="1431"/>
      <point x="29" y="1364" type="curve" smooth="yes"/>
      <point x="29" y="1259"/>
      <point x="115" y="1266"/>
      <point x="193" y="1266" type="curve" smooth="yes"/>
      <point x="278" y="1266"/>
      <point x="412" y="1266"/>
      <point x="412" y="1149" type="curve" smooth="yes"/>
      <point x="412" y="1027"/>
      <point x="179" y="927"/>
      <point x="179" y="792" type="curve" smooth="yes"/>
      <point x="179" y="659"/>
      <point x="339" y="641"/>
      <point x="440" y="641" type="curve" smooth="yes"/>
      <point x="462" y="641"/>
      <point x="489" y="630"/>
    </contour>
  </outline>
</glyph>
<glyph name="asciitilde" format="2">
  <advance width="1365"/>
  <unicode hex="007E"/>
  <outline>
    <contour>
      <point x="922" y="437" type="curve" smooth="yes"/>
      <point x="1099" y="437"/>
      <point x="1262" y="588"/>
      <point x="1262" y="768" type="curve" smooth="yes"/>
      <point x="1262" y="841"/>
      <point x="1242" y="910"/>
      <point x="1155" y="910" type="curve" smooth="yes"/>
      <point x="1022" y="910"/>
      <point x="1085" y="731"/>
      <point x="903" y="731" type="curve" smooth="yes"/>
      <point x="831" y="731"/>
      <point x="621" y="907"/>
      <point x="441" y="907" type="curve" smooth="yes"/>
      <point x="266" y="907"/>
      <point x="105" y="756"/>
      <point x="105" y="579" type="curve" smooth="yes"/>
      <point x="105" y="505"/>
      <point x="126" y="437"/>
      <point x="213" y="437" type="curve" smooth="yes"/>
      <point x="345" y="437"/>
      <point x="291" y="611"/>
      <point x="460" y="611" type="curve" smooth="yes"/>
      <point x="609" y="611"/>
      <point x="749" y="437"/>
    </contour>
  </outline>
</glyph>
